  0
SECTION
  2
HEADER
  9
$ACADVER
  1
AC1015
  9
$ACADMAINTVER
 70
6
  9
$DWGCODEPAGE
  3
ANSI_1252
  9
$INSBASE
 10
0.0
 20
0.0
 30
0.0
  9
$EXTMIN
 10
1e+20
 20
1e+20
 30
1e+20
  9
$EXTMAX
 10
-1e+20
 20
-1e+20
 30
-1e+20
  9
$LIMMIN
 10
0.0
 20
0.0
  9
$LIMMAX
 10
420.0
 20
297.0
  9
$ORTHOMODE
 70
0
  9
$REGENMODE
 70
1
  9
$FILLMODE
 70
1
  9
$QTEXTMODE
 70
0
  9
$MIRRTEXT
 70
1
  9
$LTSCALE
 40
1.0
  9
$ATTMODE
 70
1
  9
$TEXTSIZE
 40
2.5
  9
$TRACEWID
 40
1.0
  9
$TEXTSTYLE
  7
Standard
  9
$CLAYER
  8
0
  9
$CELTYPE
  6
ByLayer
  9
$CECOLOR
 62
256
  9
$CELTSCALE
 40
1.0
  9
$DISPSILH
 70
0
  9
$DIMSCALE
 40
1.0
  9
$DIMASZ
 40
2.5
  9
$DIMEXO
 40
0.625
  9
$DIMDLI
 40
3.75
  9
$DIMRND
 40
0.0
  9
$DIMDLE
 40
0.0
  9
$DIMEXE
 40
1.25
  9
$DIMTP
 40
0.0
  9
$DIMTM
 40
0.0
  9
$DIMTXT
 40
2.5
  9
$DIMCEN
 40
2.5
  9
$DIMTSZ
 40
0.0
  9
$DIMTOL
 70
0
  9
$DIMLIM
 70
0
  9
$DIMTIH
 70
0
  9
$DIMTOH
 70
0
  9
$DIMSE1
 70
0
  9
$DIMSE2
 70
0
  9
$DIMTAD
 70
1
  9
$DIMZIN
 70
8
  9
$DIMBLK
  1

  9
$DIMASO
 70
1
  9
$DIMSHO
 70
1
  9
$DIMPOST
  1

  9
$DIMAPOST
  1

  9
$DIMALT
 70
0
  9
$DIMALTD
 70
3
  9
$DIMALTF
 40
0.03937007874
  9
$DIMLFAC
 40
1.0
  9
$DIMTOFL
 70
1
  9
$DIMTVP
 40
0.0
  9
$DIMTIX
 70
0
  9
$DIMSOXD
 70
0
  9
$DIMSAH
 70
0
  9
$DIMBLK1
  1

  9
$DIMBLK2
  1

  9
$DIMSTYLE
  2
ISO-25
  9
$DIMCLRD
 70
0
  9
$DIMCLRE
 70
0
  9
$DIMCLRT
 70
0
  9
$DIMTFAC
 40
1.0
  9
$DIMGAP
 40
0.625
  9
$DIMJUST
 70
0
  9
$DIMSD1
 70
0
  9
$DIMSD2
 70
0
  9
$DIMTOLJ
 70
0
  9
$DIMTZIN
 70
8
  9
$DIMALTZ
 70
0
  9
$DIMALTTZ
 70
0
  9
$DIMUPT
 70
0
  9
$DIMDEC
 70
2
  9
$DIMTDEC
 70
2
  9
$DIMALTU
 70
2
  9
$DIMALTTD
 70
3
  9
$DIMTXSTY
  7
Standard
  9
$DIMAUNIT
 70
0
  9
$DIMADEC
 70
0
  9
$DIMALTRND
 40
0.0
  9
$DIMAZIN
 70
0
  9
$DIMDSEP
 70
44
  9
$DIMATFIT
 70
3
  9
$DIMFRAC
 70
0
  9
$DIMLDRBLK
  1

  9
$DIMLUNIT
 70
2
  9
$DIMLWD
 70
-2
  9
$DIMLWE
 70
-2
  9
$DIMTMOVE
 70
0
  9
$LUNITS
 70
2
  9
$LUPREC
 70
4
  9
$SKETCHINC
 40
1.0
  9
$FILLETRAD
 40
10.0
  9
$AUNITS
 70
0
  9
$AUPREC
 70
2
  9
$MENU
  1
.
  9
$ELEVATION
 40
0.0
  9
$PELEVATION
 40
0.0
  9
$THICKNESS
 40
0.0
  9
$LIMCHECK
 70
0
  9
$CHAMFERA
 40
0.0
  9
$CHAMFERB
 40
0.0
  9
$CHAMFERC
 40
0.0
  9
$CHAMFERD
 40
0.0
  9
$SKPOLY
 70
0
  9
$TDCREATE
 40
2461234.9442824074
  9
$TDUCREATE
 40
2458532.153996898
  9
$TDUPDATE
 40
2461234.9442824074
  9
$TDUUPDATE
 40
2458532.1544311
  9
$TDINDWG
 40
0.0
  9
$TDUSRTIMER
 40
0.0
  9
$USRTIMER
 70
1
  9
$ANGBASE
 50
0.0
  9
$ANGDIR
 70
0
  9
$PDMODE
 70
0
  9
$PDSIZE
 40
0.0
  9
$PLINEWID
 40
0.0
  9
$SPLFRAME
 70
0
  9
$SPLINETYPE
 70
6
  9
$SPLINESEGS
 70
8
  9
$HANDSEED
  5
3FB
  9
$SURFTAB1
 70
6
  9
$SURFTAB2
 70
6
  9
$SURFTYPE
 70
6
  9
$SURFU
 70
6
  9
$SURFV
 70
6
  9
$UCSBASE
  2

  9
$UCSNAME
  2

  9
$UCSORG
 10
0.0
 20
0.0
 30
0.0
  9
$UCSXDIR
 10
1.0
 20
0.0
 30
0.0
  9
$UCSYDIR
 10
0.0
 20
1.0
 30
0.0
  9
$UCSORTHOREF
  2

  9
$UCSORTHOVIEW
 70
0
  9
$UCSORGTOP
 10
0.0
 20
0.0
 30
0.0
  9
$UCSORGBOTTOM
 10
0.0
 20
0.0
 30
0.0
  9
$UCSORGLEFT
 10
0.0
 20
0.0
 30
0.0
  9
$UCSORGRIGHT
 10
0.0
 20
0.0
 30
0.0
  9
$UCSORGFRONT
 10
0.0
 20
0.0
 30
0.0
  9
$UCSORGBACK
 10
0.0
 20
0.0
 30
0.0
  9
$PUCSBASE
  2

  9
$PUCSNAME
  2

  9
$PUCSORG
 10
0.0
 20
0.0
 30
0.0
  9
$PUCSXDIR
 10
1.0
 20
0.0
 30
0.0
  9
$PUCSYDIR
 10
0.0
 20
1.0
 30
0.0
  9
$PUCSORTHOREF
  2

  9
$PUCSORTHOVIEW
 70
0
  9
$PUCSORGTOP
 10
0.0
 20
0.0
 30
0.0
  9
$PUCSORGBOTTOM
 10
0.0
 20
0.0
 30
0.0
  9
$PUCSORGLEFT
 10
0.0
 20
0.0
 30
0.0
  9
$PUCSORGRIGHT
 10
0.0
 20
0.0
 30
0.0
  9
$PUCSORGFRONT
 10
0.0
 20
0.0
 30
0.0
  9
$PUCSORGBACK
 10
0.0
 20
0.0
 30
0.0
  9
$USERI1
 70
0
  9
$USERI2
 70
0
  9
$USERI3
 70
0
  9
$USERI4
 70
0
  9
$USERI5
 70
0
  9
$USERR1
 40
0.0
  9
$USERR2
 40
0.0
  9
$USERR3
 40
0.0
  9
$USERR4
 40
0.0
  9
$USERR5
 40
0.0
  9
$WORLDVIEW
 70
1
  9
$SHADEDGE
 70
3
  9
$SHADEDIF
 70
70
  9
$TILEMODE
 70
1
  9
$MAXACTVP
 70
64
  9
$PINSBASE
 10
0.0
 20
0.0
 30
0.0
  9
$PLIMCHECK
 70
0
  9
$PEXTMIN
 10
1e+20
 20
1e+20
 30
1e+20
  9
$PEXTMAX
 10
-1e+20
 20
-1e+20
 30
-1e+20
  9
$PLIMMIN
 10
0.0
 20
0.0
  9
$PLIMMAX
 10
420.0
 20
297.0
  9
$UNITMODE
 70
0
  9
$VISRETAIN
 70
1
  9
$PLINEGEN
 70
0
  9
$PSLTSCALE
 70
1
  9
$TREEDEPTH
 70
3020
  9
$CMLSTYLE
  2
Standard
  9
$CMLJUST
 70
0
  9
$CMLSCALE
 40
20.0
  9
$PROXYGRAPHICS
 70
1
  9
$MEASUREMENT
 70
1
  9
$CELWEIGHT
370
-1
  9
$ENDCAPS
280
0
  9
$JOINSTYLE
280
0
  9
$LWDISPLAY
290
0
  9
$INSUNITS
 70
2
  9
$HYPERLINKBASE
  1

  9
$STYLESHEET
  1

  9
$XEDIT
290
1
  9
$CEPSNTYPE
380
0
  9
$PSTYLEMODE
290
1
  9
$FINGERPRINTGUID
  2
{C39C59D3-EC63-4432-BBFC-42D89E36EECB}
  9
$VERSIONGUID
  2
{171E7851-D141-42DC-A50D-9CFCE51E441E}
  9
$EXTNAMES
290
1
  9
$PSVPSCALE
 40
0.0
  9
$OLESTARTUP
290
0
  0
ENDSEC
  0
SECTION
  2
CLASSES
  0
CLASS
  1
ACDBDICTIONARYWDFLT
  2
AcDbDictionaryWithDefault
  3
ObjectDBX Classes
 90
0
280
0
281
0
  0
CLASS
  1
SUN
  2
AcDbSun
  3
SCENEOE
 90
1153
280
0
281
0
  0
CLASS
  1
VISUALSTYLE
  2
AcDbVisualStyle
  3
ObjectDBX Classes
 90
4095
280
0
281
0
  0
CLASS
  1
MATERIAL
  2
AcDbMaterial
  3
ObjectDBX Classes
 90
1153
280
0
281
0
  0
CLASS
  1
SCALE
  2
AcDbScale
  3
ObjectDBX Classes
 90
1153
280
0
281
0
  0
CLASS
  1
TABLESTYLE
  2
AcDbTableStyle
  3
ObjectDBX Classes
 90
4095
280
0
281
0
  0
CLASS
  1
MLEADERSTYLE
  2
AcDbMLeaderStyle
  3
ACDB_MLEADERSTYLE_CLASS
 90
4095
280
0
281
0
  0
CLASS
  1
DICTIONARYVAR
  2
AcDbDictionaryVar
  3
ObjectDBX Classes
 90
0
280
0
281
0
  0
CLASS
  1
CELLSTYLEMAP
  2
AcDbCellStyleMap
  3
ObjectDBX Classes
 90
1152
280
0
281
0
  0
CLASS
  1
MENTALRAYRENDERSETTINGS
  2
AcDbMentalRayRenderSettings
  3
SCENEOE
 90
1024
280
0
281
0
  0
CLASS
  1
ACDBDETAILVIEWSTYLE
  2
AcDbDetailViewStyle
  3
ObjectDBX Classes
 90
1025
280
0
281
0
  0
CLASS
  1
ACDBSECTIONVIEWSTYLE
  2
AcDbSectionViewStyle
  3
ObjectDBX Classes
 90
1025
280
0
281
0
  0
CLASS
  1
RASTERVARIABLES
  2
AcDbRasterVariables
  3
ISM
 90
0
280
0
281
0
  0
CLASS
  1
ACDBPLACEHOLDER
  2
AcDbPlaceHolder
  3
ObjectDBX Classes
 90
0
280
0
281
0
  0
CLASS
  1
LAYOUT
  2
AcDbLayout
  3
ObjectDBX Classes
 90
0
280
0
281
0
  0
ENDSEC
  0
SECTION
  2
TABLES
  0
TABLE
  2
VPORT
  5
8
330
0
100
AcDbSymbolTable
 70
1
  0
VPORT
  5
23
330
8
100
AcDbSymbolTableRecord
100
AcDbViewportTableRecord
  2
*Active
 70
0
 10
0.0
 20
0.0
 11
1.0
 21
1.0
 12
0.0
 22
0.0
 13
0.0
 23
0.0
 14
0.5
 24
0.5
 15
0.5
 25
0.5
 16
0.0
 26
0.0
 36
1.0
 17
0.0
 27
0.0
 37
0.0
 40
1000.0
 41
1.34
 42
50.0
 43
0.0
 44
0.0
 50
0.0
 51
0.0
 71
0
 72
1000
 73
1
 74
3
 75
0
 76
0
 77
0
 78
0
281
0
 65
0
146
0.0
  0
ENDTAB
  0
TABLE
  2
LTYPE
  5
2
330
0
100
AcDbSymbolTable
 70
4
  0
LTYPE
  5
24
330
2
100
AcDbSymbolTableRecord
100
AcDbLinetypeTableRecord
  2
ByBlock
 70
0
  3

 72
65
 73
0
 40
0.0
  0
LTYPE
  5
25
330
2
100
AcDbSymbolTableRecord
100
AcDbLinetypeTableRecord
  2
ByLayer
 70
0
  3

 72
65
 73
0
 40
0.0
  0
LTYPE
  5
26
330
2
100
AcDbSymbolTableRecord
100
AcDbLinetypeTableRecord
  2
Continuous
 70
0
  3

 72
65
 73
0
 40
0.0
  0
LTYPE
  5
30
330
2
100
AcDbSymbolTableRecord
100
AcDbLinetypeTableRecord
  2
DASHED
 70
0
  3
Guardrail shoulder line
 72
65
 73
2
 40
0.6
 49
0.3
 74
0
 49
-0.3
 74
0
  0
ENDTAB
  0
TABLE
  2
LAYER
  5
1
330
0
100
AcDbSymbolTable
 70
16
  0
LAYER
  5
27
330
1
100
AcDbSymbolTableRecord
100
AcDbLayerTableRecord
  2
0
 70
0
 62
7
  6
Continuous
370
-3
390
13
  0
LAYER
  5
28
330
1
100
AcDbSymbolTableRecord
100
AcDbLayerTableRecord
  2
Defpoints
 70
0
 62
7
  6
Continuous
290
0
370
-3
390
13
  0
LAYER
  5
31
330
1
100
AcDbSymbolTableRecord
100
AcDbLayerTableRecord
  2
GR_ALIGNMENT
 70
0
 62
8
  6
CONTINUOUS
370
18
390
13
  0
LAYER
  5
32
330
1
100
AcDbSymbolTableRecord
100
AcDbLayerTableRecord
  2
GR_ROAD
 70
0
 62
7
  6
CONTINUOUS
370
35
390
13
  0
LAYER
  5
33
330
1
100
AcDbSymbolTableRecord
100
AcDbLayerTableRecord
  2
GR_BRIDGE
 70
0
 62
7
  6
CONTINUOUS
370
50
390
13
  0
LAYER
  5
34
330
1
100
AcDbSymbolTableRecord
100
AcDbLayerTableRecord
  2
GR_LANE_LINES
 70
0
 62
8
  6
CONTINUOUS
370
18
390
13
  0
LAYER
  5
35
330
1
100
AcDbSymbolTableRecord
100
AcDbLayerTableRecord
  2
GR_SHOULDER_FLARE
 70
0
 62
3
  6
DASHED
370
25
390
13
  0
LAYER
  5
36
330
1
100
AcDbSymbolTableRecord
100
AcDbLayerTableRecord
  2
GR_FORESLOPE_W
 70
0
 62
94
  6
CONTINUOUS
370
18
390
13
  0
LAYER
  5
37
330
1
100
AcDbSymbolTableRecord
100
AcDbLayerTableRecord
  2
GR_GUARDRAIL
 70
0
 62
1
  6
CONTINUOUS
370
50
390
13
  0
LAYER
  5
38
330
1
100
AcDbSymbolTableRecord
100
AcDbLayerTableRecord
  2
GR_GUARDRAIL_POSTS
 70
0
 62
1
  6
CONTINUOUS
370
35
390
13
  0
LAYER
  5
39
330
1
100
AcDbSymbolTableRecord
100
AcDbLayerTableRecord
  2
GR_TERMINAL
 70
0
 62
30
  6
CONTINUOUS
370
50
390
13
  0
LAYER
  5
3A
330
1
100
AcDbSymbolTableRecord
100
AcDbLayerTableRecord
  2
GR_GATING
 70
0
 62
6
  6
CONTINUOUS
370
50
390
13
  0
LAYER
  5
3B
330
1
100
AcDbSymbolTableRecord
100
AcDbLayerTableRecord
  2
GR_DIMENSION
 70
0
 62
5
  6
CONTINUOUS
370
18
390
13
  0
LAYER
  5
3C
330
1
100
AcDbSymbolTableRecord
100
AcDbLayerTableRecord
  2
GR_LEADERS
 70
0
 62
8
  6
CONTINUOUS
370
18
390
13
  0
LAYER
  5
3D
330
1
100
AcDbSymbolTableRecord
100
AcDbLayerTableRecord
  2
GR_TEXT
 70
0
 62
7
  6
CONTINUOUS
370
18
390
13
  0
LAYER
  5
3E
330
1
100
AcDbSymbolTableRecord
100
AcDbLayerTableRecord
  2
GR_TRAFFIC_ARROWS
 70
0
 62
7
  6
CONTINUOUS
370
35
390
13
  0
ENDTAB
  0
TABLE
  2
STYLE
  5
5
330
0
100
AcDbSymbolTable
 70
2
  0
STYLE
  5
29
330
5
100
AcDbSymbolTableRecord
100
AcDbTextStyleTableRecord
  2
Standard
 70
0
 40
0.0
 41
1.0
 50
0.0
 71
0
 42
2.5
  3
txt
  4

  0
STYLE
  5
2F
330
5
100
AcDbSymbolTableRecord
100
AcDbTextStyleTableRecord
  2
Engineering Regular
 70
0
 40
0.0
 41
1.0
 50
0.0
 71
0
 42
2.5
  3
EngineeringRegular.ttf
  4

1001
ACAD
1000
Engineering Regular
1071
34
  0
ENDTAB
  0
TABLE
  2
VIEW
  5
7
330
0
100
AcDbSymbolTable
 70
0
  0
ENDTAB
  0
TABLE
  2
UCS
  5
6
330
0
100
AcDbSymbolTable
 70
0
  0
ENDTAB
  0
TABLE
  2
APPID
  5
3
330
0
100
AcDbSymbolTable
 70
3
  0
APPID
  5
2A
330
3
100
AcDbSymbolTableRecord
100
AcDbRegAppTableRecord
  2
ACAD
 70
0
  0
APPID
  5
3F8
330
3
100
AcDbSymbolTableRecord
100
AcDbRegAppTableRecord
  2
HATCHBACKGROUNDCOLOR
 70
0
  0
APPID
  5
3F9
330
3
100
AcDbSymbolTableRecord
100
AcDbRegAppTableRecord
  2
EZDXF
 70
0
  0
ENDTAB
  0
TABLE
  2
DIMSTYLE
  5
4
330
0
100
AcDbSymbolTable
 70
1
100
AcDbDimStyleTable
  0
DIMSTYLE
105
2B
330
4
100
AcDbSymbolTableRecord
100
AcDbDimStyleTableRecord
  2
Standard
 70
0
  3

  4

 40
1.0
 41
2.5
 42
0.625
 43
3.75
 44
1.25
 45
0.0
 46
0.0
 47
0.0
 48
0.0
140
2.5
141
2.5
142
0.0
143
0.03937007874
144
1.0
145
0.0
146
1.0
147
0.625
148
0.0
 71
0
 72
0
 73
0
 74
0
 75
0
 76
0
 77
1
 78
8
 79
3
170
0
171
3
172
1
173
0
174
0
175
0
176
0
177
0
178
0
179
2
271
2
272
2
273
2
274
3
275
0
276
0
277
2
278
44
279
0
280
0
281
0
282
0
283
0
284
8
285
0
286
0
288
0
289
3
371
-2
372
-2
  0
ENDTAB
  0
TABLE
  2
BLOCK_RECORD
  5
9
330
0
100
AcDbSymbolTable
 70
2
  0
BLOCK_RECORD
  5
17
330
9
100
AcDbSymbolTableRecord
100
AcDbBlockTableRecord
  2
*Model_Space
340
1A
  0
BLOCK_RECORD
  5
1B
330
9
100
AcDbSymbolTableRecord
100
AcDbBlockTableRecord
  2
*Paper_Space
340
1E
  0
ENDTAB
  0
ENDSEC
  0
SECTION
  2
BLOCKS
  0
BLOCK
  5
18
330
17
100
AcDbEntity
  8
0
100
AcDbBlockBegin
  2
*Model_Space
 70
0
 10
0.0
 20
0.0
 30
0.0
  3
*Model_Space
  1

  0
ENDBLK
  5
19
330
17
100
AcDbEntity
  8
0
100
AcDbBlockEnd
  0
BLOCK
  5
1C
330
1B
100
AcDbEntity
  8
0
100
AcDbBlockBegin
  2
*Paper_Space
 70
0
 10
0.0
 20
0.0
 30
0.0
  3
*Paper_Space
  1

  0
ENDBLK
  5
1D
330
1B
100
AcDbEntity
  8
0
100
AcDbBlockEnd
  0
ENDSEC
  0
SECTION
  2
ENTITIES
  0
LINE
  5
3F
330
17
100
AcDbEntity
  8
GR_ALIGNMENT
100
AcDbLine
 10
2.842170943040401e-14
 20
0.0
 30
0.0
 11
9.955853174603204
 21
0.0
 31
0.0
  0
LINE
  5
40
330
17
100
AcDbEntity
  8
GR_ALIGNMENT
100
AcDbLine
 10
9.955853174603204
 20
0.0
 30
0.0
 11
19.91170634920638
 21
0.0
 31
0.0
  0
LINE
  5
41
330
17
100
AcDbEntity
  8
GR_ALIGNMENT
100
AcDbLine
 10
19.91170634920638
 20
0.0
 30
0.0
 11
29.867559523809554
 21
0.0
 31
0.0
  0
LINE
  5
42
330
17
100
AcDbEntity
  8
GR_ALIGNMENT
100
AcDbLine
 10
29.867559523809554
 20
0.0
 30
0.0
 11
39.82341269841273
 21
0.0
 31
0.0
  0
LINE
  5
43
330
17
100
AcDbEntity
  8
GR_ALIGNMENT
100
AcDbLine
 10
39.82341269841273
 20
0.0
 30
0.0
 11
49.77926587301591
 21
0.0
 31
0.0
  0
LINE
  5
44
330
17
100
AcDbEntity
  8
GR_ALIGNMENT
100
AcDbLine
 10
49.77926587301591
 20
0.0
 30
0.0
 11
59.73511904761908
 21
0.0
 31
0.0
  0
LINE
  5
45
330
17
100
AcDbEntity
  8
GR_ALIGNMENT
100
AcDbLine
 10
59.73511904761908
 20
0.0
 30
0.0
 11
69.69097222222226
 21
0.0
 31
0.0
  0
LINE
  5
46
330
17
100
AcDbEntity
  8
GR_ALIGNMENT
100
AcDbLine
 10
69.69097222222226
 20
0.0
 30
0.0
 11
79.64682539682543
 21
0.0
 31
0.0
  0
LINE
  5
47
330
17
100
AcDbEntity
  8
GR_ALIGNMENT
100
AcDbLine
 10
79.64682539682543
 20
0.0
 30
0.0
 11
89.60267857142861
 21
0.0
 31
0.0
  0
LINE
  5
48
330
17
100
AcDbEntity
  8
GR_ALIGNMENT
100
AcDbLine
 10
89.60267857142861
 20
0.0
 30
0.0
 11
99.55853174603179
 21
0.0
 31
0.0
  0
LINE
  5
49
330
17
100
AcDbEntity
  8
GR_ALIGNMENT
100
AcDbLine
 10
99.55853174603179
 20
0.0
 30
0.0
 11
109.51438492063495
 21
0.0
 31
0.0
  0
LINE
  5
4A
330
17
100
AcDbEntity
  8
GR_ALIGNMENT
100
AcDbLine
 10
109.51438492063495
 20
0.0
 30
0.0
 11
119.47023809523813
 21
0.0
 31
0.0
  0
LINE
  5
4B
330
17
100
AcDbEntity
  8
GR_ALIGNMENT
100
AcDbLine
 10
119.47023809523813
 20
0.0
 30
0.0
 11
129.42609126984132
 21
0.0
 31
0.0
  0
LINE
  5
4C
330
17
100
AcDbEntity
  8
GR_ALIGNMENT
100
AcDbLine
 10
129.42609126984132
 20
0.0
 30
0.0
 11
139.38194444444449
 21
0.0
 31
0.0
  0
LINE
  5
4D
330
17
100
AcDbEntity
  8
GR_ALIGNMENT
100
AcDbLine
 10
139.38194444444449
 20
0.0
 30
0.0
 11
149.33779761904768
 21
0.0
 31
0.0
  0
LINE
  5
4E
330
17
100
AcDbEntity
  8
GR_ALIGNMENT
100
AcDbLine
 10
149.33779761904768
 20
0.0
 30
0.0
 11
159.29365079365084
 21
0.0
 31
0.0
  0
LINE
  5
4F
330
17
100
AcDbEntity
  8
GR_ALIGNMENT
100
AcDbLine
 10
159.29365079365084
 20
0.0
 30
0.0
 11
169.249503968254
 21
0.0
 31
0.0
  0
LINE
  5
50
330
17
100
AcDbEntity
  8
GR_ALIGNMENT
100
AcDbLine
 10
169.249503968254
 20
0.0
 30
0.0
 11
179.2053571428572
 21
0.0
 31
0.0
  0
LINE
  5
51
330
17
100
AcDbEntity
  8
GR_ALIGNMENT
100
AcDbLine
 10
179.2053571428572
 20
0.0
 30
0.0
 11
189.16121031746036
 21
0.0
 31
0.0
  0
LINE
  5
52
330
17
100
AcDbEntity
  8
GR_ALIGNMENT
100
AcDbLine
 10
189.16121031746036
 20
0.0
 30
0.0
 11
199.11706349206355
 21
0.0
 31
0.0
  0
LINE
  5
53
330
17
100
AcDbEntity
  8
GR_ALIGNMENT
100
AcDbLine
 10
199.11706349206355
 20
0.0
 30
0.0
 11
209.07291666666669
 21
0.0
 31
0.0
  0
LINE
  5
54
330
17
100
AcDbEntity
  8
GR_ALIGNMENT
100
AcDbLine
 10
209.07291666666669
 20
0.0
 30
0.0
 11
219.02876984126988
 21
0.0
 31
0.0
  0
LINE
  5
55
330
17
100
AcDbEntity
  8
GR_ALIGNMENT
100
AcDbLine
 10
219.02876984126988
 20
0.0
 30
0.0
 11
228.98462301587307
 21
0.0
 31
0.0
  0
LINE
  5
56
330
17
100
AcDbEntity
  8
GR_ALIGNMENT
100
AcDbLine
 10
228.98462301587307
 20
0.0
 30
0.0
 11
238.94047619047623
 21
0.0
 31
0.0
  0
LINE
  5
57
330
17
100
AcDbEntity
  8
GR_ALIGNMENT
100
AcDbLine
 10
238.94047619047623
 20
0.0
 30
0.0
 11
248.8963293650794
 21
0.0
 31
0.0
  0
LINE
  5
58
330
17
100
AcDbEntity
  8
GR_ALIGNMENT
100
AcDbLine
 10
248.8963293650794
 20
0.0
 30
0.0
 11
258.85218253968264
 21
0.0
 31
0.0
  0
LINE
  5
59
330
17
100
AcDbEntity
  8
GR_ALIGNMENT
100
AcDbLine
 10
258.85218253968264
 20
0.0
 30
0.0
 11
268.8080357142858
 21
0.0
 31
0.0
  0
LINE
  5
5A
330
17
100
AcDbEntity
  8
GR_ALIGNMENT
100
AcDbLine
 10
268.8080357142858
 20
0.0
 30
0.0
 11
278.7638888888889
 21
0.0
 31
0.0
  0
LINE
  5
5B
330
17
100
AcDbEntity
  8
GR_ALIGNMENT
100
AcDbLine
 10
278.7638888888889
 20
0.0
 30
0.0
 11
288.71974206349216
 21
0.0
 31
0.0
  0
LINE
  5
5C
330
17
100
AcDbEntity
  8
GR_ALIGNMENT
100
AcDbLine
 10
288.71974206349216
 20
0.0
 30
0.0
 11
298.6755952380953
 21
0.0
 31
0.0
  0
LINE
  5
5D
330
17
100
AcDbEntity
  8
GR_ALIGNMENT
100
AcDbLine
 10
298.6755952380953
 20
0.0
 30
0.0
 11
308.63144841269843
 21
0.0
 31
0.0
  0
LINE
  5
5E
330
17
100
AcDbEntity
  8
GR_ALIGNMENT
100
AcDbLine
 10
308.63144841269843
 20
0.0
 30
0.0
 11
318.5873015873017
 21
0.0
 31
0.0
  0
LINE
  5
5F
330
17
100
AcDbEntity
  8
GR_ALIGNMENT
100
AcDbLine
 10
318.5873015873017
 20
0.0
 30
0.0
 11
328.5431547619048
 21
0.0
 31
0.0
  0
LINE
  5
60
330
17
100
AcDbEntity
  8
GR_ALIGNMENT
100
AcDbLine
 10
328.5431547619048
 20
0.0
 30
0.0
 11
338.49900793650795
 21
0.0
 31
0.0
  0
LINE
  5
61
330
17
100
AcDbEntity
  8
GR_ALIGNMENT
100
AcDbLine
 10
338.49900793650795
 20
0.0
 30
0.0
 11
348.4548611111112
 21
0.0
 31
0.0
  0
LINE
  5
62
330
17
100
AcDbEntity
  8
GR_ALIGNMENT
100
AcDbLine
 10
348.4548611111112
 20
0.0
 30
0.0
 11
358.41071428571433
 21
0.0
 31
0.0
  0
LINE
  5
63
330
17
100
AcDbEntity
  8
GR_ALIGNMENT
100
AcDbLine
 10
358.41071428571433
 20
0.0
 30
0.0
 11
368.36656746031747
 21
0.0
 31
0.0
  0
LINE
  5
64
330
17
100
AcDbEntity
  8
GR_ALIGNMENT
100
AcDbLine
 10
368.36656746031747
 20
0.0
 30
0.0
 11
378.3224206349207
 21
0.0
 31
0.0
  0
LINE
  5
65
330
17
100
AcDbEntity
  8
GR_ALIGNMENT
100
AcDbLine
 10
378.3224206349207
 20
0.0
 30
0.0
 11
388.27827380952385
 21
0.0
 31
0.0
  0
LINE
  5
66
330
17
100
AcDbEntity
  8
GR_ALIGNMENT
100
AcDbLine
 10
388.27827380952385
 20
0.0
 30
0.0
 11
398.2341269841271
 21
0.0
 31
0.0
  0
LINE
  5
67
330
17
100
AcDbEntity
  8
GR_ALIGNMENT
100
AcDbLine
 10
398.2341269841271
 20
0.0
 30
0.0
 11
408.18998015873024
 21
0.0
 31
0.0
  0
LINE
  5
68
330
17
100
AcDbEntity
  8
GR_ALIGNMENT
100
AcDbLine
 10
408.18998015873024
 20
0.0
 30
0.0
 11
418.14583333333337
 21
0.0
 31
0.0
  0
LINE
  5
69
330
17
100
AcDbEntity
  8
GR_ALIGNMENT
100
AcDbLine
 10
418.14583333333337
 20
0.0
 30
0.0
 11
428.1016865079366
 21
0.0
 31
0.0
  0
LINE
  5
6A
330
17
100
AcDbEntity
  8
GR_ALIGNMENT
100
AcDbLine
 10
428.1016865079366
 20
0.0
 30
0.0
 11
438.05753968253975
 21
0.0
 31
0.0
  0
LINE
  5
6B
330
17
100
AcDbEntity
  8
GR_ALIGNMENT
100
AcDbLine
 10
438.05753968253975
 20
0.0
 30
0.0
 11
448.0133928571429
 21
0.0
 31
0.0
  0
LINE
  5
6C
330
17
100
AcDbEntity
  8
GR_ALIGNMENT
100
AcDbLine
 10
448.0133928571429
 20
0.0
 30
0.0
 11
457.96924603174614
 21
0.0
 31
0.0
  0
LINE
  5
6D
330
17
100
AcDbEntity
  8
GR_ALIGNMENT
100
AcDbLine
 10
457.96924603174614
 20
0.0
 30
0.0
 11
467.9250992063493
 21
0.0
 31
0.0
  0
LINE
  5
6E
330
17
100
AcDbEntity
  8
GR_ALIGNMENT
100
AcDbLine
 10
467.9250992063493
 20
0.0
 30
0.0
 11
477.8809523809524
 21
0.0
 31
0.0
  0
LINE
  5
6F
330
17
100
AcDbEntity
  8
GR_ALIGNMENT
100
AcDbLine
 10
477.8809523809524
 20
0.0
 30
0.0
 11
487.83680555555566
 21
0.0
 31
0.0
  0
LINE
  5
70
330
17
100
AcDbEntity
  8
GR_ALIGNMENT
100
AcDbLine
 10
487.83680555555566
 20
0.0
 30
0.0
 11
497.7926587301588
 21
0.0
 31
0.0
  0
LINE
  5
71
330
17
100
AcDbEntity
  8
GR_ALIGNMENT
100
AcDbLine
 10
497.7926587301588
 20
0.0
 30
0.0
 11
507.74851190476204
 21
0.0
 31
0.0
  0
LINE
  5
72
330
17
100
AcDbEntity
  8
GR_ALIGNMENT
100
AcDbLine
 10
507.74851190476204
 20
0.0
 30
0.0
 11
517.7043650793652
 21
0.0
 31
0.0
  0
LINE
  5
73
330
17
100
AcDbEntity
  8
GR_ALIGNMENT
100
AcDbLine
 10
517.7043650793652
 20
0.0
 30
0.0
 11
527.6602182539683
 21
0.0
 31
0.0
  0
LINE
  5
74
330
17
100
AcDbEntity
  8
GR_ALIGNMENT
100
AcDbLine
 10
527.6602182539683
 20
0.0
 30
0.0
 11
537.6160714285716
 21
0.0
 31
0.0
  0
LINE
  5
75
330
17
100
AcDbEntity
  8
GR_ALIGNMENT
100
AcDbLine
 10
537.6160714285716
 20
0.0
 30
0.0
 11
547.5719246031747
 21
0.0
 31
0.0
  0
LINE
  5
76
330
17
100
AcDbEntity
  8
GR_ALIGNMENT
100
AcDbLine
 10
547.5719246031747
 20
0.0
 30
0.0
 11
557.5277777777778
 21
0.0
 31
0.0
  0
LINE
  5
77
330
17
100
AcDbEntity
  8
GR_ALIGNMENT
100
AcDbLine
 10
557.5277777777778
 20
0.0
 30
0.0
 11
567.4836309523811
 21
0.0
 31
0.0
  0
LINE
  5
78
330
17
100
AcDbEntity
  8
GR_ALIGNMENT
100
AcDbLine
 10
567.4836309523811
 20
0.0
 30
0.0
 11
577.4394841269842
 21
0.0
 31
0.0
  0
LINE
  5
79
330
17
100
AcDbEntity
  8
GR_ALIGNMENT
100
AcDbLine
 10
577.4394841269842
 20
0.0
 30
0.0
 11
587.3953373015873
 21
0.0
 31
0.0
  0
LINE
  5
7A
330
17
100
AcDbEntity
  8
GR_ALIGNMENT
100
AcDbLine
 10
587.3953373015873
 20
0.0
 30
0.0
 11
597.3511904761906
 21
0.0
 31
0.0
  0
LINE
  5
7B
330
17
100
AcDbEntity
  8
GR_ALIGNMENT
100
AcDbLine
 10
597.3511904761906
 20
0.0
 30
0.0
 11
607.3070436507937
 21
0.0
 31
0.0
  0
LINE
  5
7C
330
17
100
AcDbEntity
  8
GR_ALIGNMENT
100
AcDbLine
 10
607.3070436507937
 20
0.0
 30
0.0
 11
617.2628968253969
 21
0.0
 31
0.0
  0
LINE
  5
7D
330
17
100
AcDbEntity
  8
GR_ALIGNMENT
100
AcDbLine
 10
617.2628968253969
 20
0.0
 30
0.0
 11
627.2187500000001
 21
0.0
 31
0.0
  0
LINE
  5
7E
330
17
100
AcDbEntity
  8
GR_ALIGNMENT
100
AcDbLine
 10
627.2187500000001
 20
0.0
 30
0.0
 11
637.1746031746032
 21
0.0
 31
0.0
  0
LINE
  5
7F
330
17
100
AcDbEntity
  8
GR_ALIGNMENT
100
AcDbLine
 10
637.1746031746032
 20
0.0
 30
0.0
 11
647.1304563492064
 21
0.0
 31
0.0
  0
LINE
  5
80
330
17
100
AcDbEntity
  8
GR_ALIGNMENT
100
AcDbLine
 10
647.1304563492064
 20
0.0
 30
0.0
 11
657.0863095238096
 21
0.0
 31
0.0
  0
LINE
  5
81
330
17
100
AcDbEntity
  8
GR_ALIGNMENT
100
AcDbLine
 10
657.0863095238096
 20
0.0
 30
0.0
 11
667.0421626984128
 21
0.0
 31
0.0
  0
LINE
  5
82
330
17
100
AcDbEntity
  8
GR_ALIGNMENT
100
AcDbLine
 10
667.0421626984128
 20
0.0
 30
0.0
 11
676.9980158730159
 21
0.0
 31
0.0
  0
LINE
  5
83
330
17
100
AcDbEntity
  8
GR_ALIGNMENT
100
AcDbLine
 10
676.9980158730159
 20
0.0
 30
0.0
 11
686.9538690476192
 21
0.0
 31
0.0
  0
LINE
  5
84
330
17
100
AcDbEntity
  8
GR_ALIGNMENT
100
AcDbLine
 10
686.9538690476192
 20
0.0
 30
0.0
 11
696.9097222222223
 21
0.0
 31
0.0
  0
LINE
  5
85
330
17
100
AcDbEntity
  8
GR_ALIGNMENT
100
AcDbLine
 10
696.9097222222223
 20
0.0
 30
0.0
 11
706.8655753968254
 21
0.0
 31
0.0
  0
LINE
  5
86
330
17
100
AcDbEntity
  8
GR_ALIGNMENT
100
AcDbLine
 10
706.8655753968254
 20
0.0
 30
0.0
 11
716.8214285714287
 21
0.0
 31
0.0
  0
LINE
  5
87
330
17
100
AcDbEntity
  8
GR_ALIGNMENT
100
AcDbLine
 10
716.8214285714287
 20
0.0
 30
0.0
 11
726.7772817460318
 21
0.0
 31
0.0
  0
LINE
  5
88
330
17
100
AcDbEntity
  8
GR_ALIGNMENT
100
AcDbLine
 10
726.7772817460318
 20
0.0
 30
0.0
 11
736.7331349206349
 21
0.0
 31
0.0
  0
LINE
  5
89
330
17
100
AcDbEntity
  8
GR_ALIGNMENT
100
AcDbLine
 10
736.7331349206349
 20
0.0
 30
0.0
 11
746.6889880952382
 21
0.0
 31
0.0
  0
LINE
  5
8A
330
17
100
AcDbEntity
  8
GR_ALIGNMENT
100
AcDbLine
 10
746.6889880952382
 20
0.0
 30
0.0
 11
756.6448412698413
 21
0.0
 31
0.0
  0
LINE
  5
8B
330
17
100
AcDbEntity
  8
GR_ALIGNMENT
100
AcDbLine
 10
756.6448412698413
 20
0.0
 30
0.0
 11
766.6006944444445
 21
0.0
 31
0.0
  0
LINE
  5
8C
330
17
100
AcDbEntity
  8
GR_ALIGNMENT
100
AcDbLine
 10
766.6006944444445
 20
0.0
 30
0.0
 11
776.5565476190477
 21
0.0
 31
0.0
  0
LINE
  5
8D
330
17
100
AcDbEntity
  8
GR_ALIGNMENT
100
AcDbLine
 10
776.5565476190477
 20
0.0
 30
0.0
 11
786.5124007936508
 21
0.0
 31
0.0
  0
LINE
  5
8E
330
17
100
AcDbEntity
  8
GR_ALIGNMENT
100
AcDbLine
 10
786.5124007936508
 20
0.0
 30
0.0
 11
796.4682539682541
 21
0.0
 31
0.0
  0
LINE
  5
8F
330
17
100
AcDbEntity
  8
GR_ALIGNMENT
100
AcDbLine
 10
796.4682539682541
 20
0.0
 30
0.0
 11
806.4241071428571
 21
0.0
 31
0.0
  0
LINE
  5
90
330
17
100
AcDbEntity
  8
GR_ALIGNMENT
100
AcDbLine
 10
806.4241071428571
 20
0.0
 30
0.0
 11
816.3799603174604
 21
0.0
 31
0.0
  0
LINE
  5
91
330
17
100
AcDbEntity
  8
GR_ALIGNMENT
100
AcDbLine
 10
816.3799603174604
 20
0.0
 30
0.0
 11
826.3358134920636
 21
0.0
 31
0.0
  0
LINE
  5
92
330
17
100
AcDbEntity
  8
GR_ALIGNMENT
100
AcDbLine
 10
826.3358134920636
 20
0.0
 30
0.0
 11
836.2916666666666
 21
0.0
 31
0.0
  0
LINE
  5
93
330
17
100
AcDbEntity
  8
GR_ROAD
100
AcDbLine
 10
2.842170943040401e-14
 20
-12.0
 30
0.0
 11
9.955853174603204
 21
-12.0
 31
0.0
  0
LINE
  5
94
330
17
100
AcDbEntity
  8
GR_ROAD
100
AcDbLine
 10
9.955853174603204
 20
-12.0
 30
0.0
 11
19.91170634920638
 21
-12.0
 31
0.0
  0
LINE
  5
95
330
17
100
AcDbEntity
  8
GR_ROAD
100
AcDbLine
 10
19.91170634920638
 20
-12.0
 30
0.0
 11
29.867559523809554
 21
-12.0
 31
0.0
  0
LINE
  5
96
330
17
100
AcDbEntity
  8
GR_ROAD
100
AcDbLine
 10
29.867559523809554
 20
-12.0
 30
0.0
 11
39.82341269841273
 21
-12.0
 31
0.0
  0
LINE
  5
97
330
17
100
AcDbEntity
  8
GR_ROAD
100
AcDbLine
 10
39.82341269841273
 20
-12.0
 30
0.0
 11
49.77926587301591
 21
-12.0
 31
0.0
  0
LINE
  5
98
330
17
100
AcDbEntity
  8
GR_ROAD
100
AcDbLine
 10
49.77926587301591
 20
-12.0
 30
0.0
 11
59.73511904761908
 21
-12.0
 31
0.0
  0
LINE
  5
99
330
17
100
AcDbEntity
  8
GR_ROAD
100
AcDbLine
 10
59.73511904761908
 20
-12.0
 30
0.0
 11
69.69097222222226
 21
-12.0
 31
0.0
  0
LINE
  5
9A
330
17
100
AcDbEntity
  8
GR_ROAD
100
AcDbLine
 10
69.69097222222226
 20
-12.0
 30
0.0
 11
79.64682539682543
 21
-12.0
 31
0.0
  0
LINE
  5
9B
330
17
100
AcDbEntity
  8
GR_ROAD
100
AcDbLine
 10
79.64682539682543
 20
-12.0
 30
0.0
 11
89.60267857142861
 21
-12.0
 31
0.0
  0
LINE
  5
9C
330
17
100
AcDbEntity
  8
GR_ROAD
100
AcDbLine
 10
89.60267857142861
 20
-12.0
 30
0.0
 11
99.55853174603179
 21
-12.0
 31
0.0
  0
LINE
  5
9D
330
17
100
AcDbEntity
  8
GR_ROAD
100
AcDbLine
 10
99.55853174603179
 20
-12.0
 30
0.0
 11
109.51438492063495
 21
-12.0
 31
0.0
  0
LINE
  5
9E
330
17
100
AcDbEntity
  8
GR_ROAD
100
AcDbLine
 10
109.51438492063495
 20
-12.0
 30
0.0
 11
119.47023809523813
 21
-12.0
 31
0.0
  0
LINE
  5
9F
330
17
100
AcDbEntity
  8
GR_ROAD
100
AcDbLine
 10
119.47023809523813
 20
-12.0
 30
0.0
 11
129.42609126984132
 21
-12.0
 31
0.0
  0
LINE
  5
A0
330
17
100
AcDbEntity
  8
GR_ROAD
100
AcDbLine
 10
129.42609126984132
 20
-12.0
 30
0.0
 11
139.38194444444449
 21
-12.0
 31
0.0
  0
LINE
  5
A1
330
17
100
AcDbEntity
  8
GR_ROAD
100
AcDbLine
 10
139.38194444444449
 20
-12.0
 30
0.0
 11
149.33779761904768
 21
-12.0
 31
0.0
  0
LINE
  5
A2
330
17
100
AcDbEntity
  8
GR_ROAD
100
AcDbLine
 10
149.33779761904768
 20
-12.0
 30
0.0
 11
159.29365079365084
 21
-12.0
 31
0.0
  0
LINE
  5
A3
330
17
100
AcDbEntity
  8
GR_ROAD
100
AcDbLine
 10
159.29365079365084
 20
-12.0
 30
0.0
 11
169.249503968254
 21
-12.0
 31
0.0
  0
LINE
  5
A4
330
17
100
AcDbEntity
  8
GR_ROAD
100
AcDbLine
 10
169.249503968254
 20
-12.0
 30
0.0
 11
179.2053571428572
 21
-12.0
 31
0.0
  0
LINE
  5
A5
330
17
100
AcDbEntity
  8
GR_ROAD
100
AcDbLine
 10
179.2053571428572
 20
-12.0
 30
0.0
 11
189.16121031746036
 21
-12.0
 31
0.0
  0
LINE
  5
A6
330
17
100
AcDbEntity
  8
GR_ROAD
100
AcDbLine
 10
189.16121031746036
 20
-12.0
 30
0.0
 11
199.11706349206355
 21
-12.0
 31
0.0
  0
LINE
  5
A7
330
17
100
AcDbEntity
  8
GR_ROAD
100
AcDbLine
 10
199.11706349206355
 20
-12.0
 30
0.0
 11
209.07291666666669
 21
-12.0
 31
0.0
  0
LINE
  5
A8
330
17
100
AcDbEntity
  8
GR_ROAD
100
AcDbLine
 10
209.07291666666669
 20
-12.0
 30
0.0
 11
219.02876984126988
 21
-12.0
 31
0.0
  0
LINE
  5
A9
330
17
100
AcDbEntity
  8
GR_ROAD
100
AcDbLine
 10
219.02876984126988
 20
-12.0
 30
0.0
 11
228.98462301587307
 21
-12.0
 31
0.0
  0
LINE
  5
AA
330
17
100
AcDbEntity
  8
GR_ROAD
100
AcDbLine
 10
228.98462301587307
 20
-12.0
 30
0.0
 11
238.94047619047623
 21
-12.0
 31
0.0
  0
LINE
  5
AB
330
17
100
AcDbEntity
  8
GR_ROAD
100
AcDbLine
 10
238.94047619047623
 20
-12.0
 30
0.0
 11
248.8963293650794
 21
-12.0
 31
0.0
  0
LINE
  5
AC
330
17
100
AcDbEntity
  8
GR_ROAD
100
AcDbLine
 10
248.8963293650794
 20
-12.0
 30
0.0
 11
258.85218253968264
 21
-12.0
 31
0.0
  0
LINE
  5
AD
330
17
100
AcDbEntity
  8
GR_ROAD
100
AcDbLine
 10
258.85218253968264
 20
-12.0
 30
0.0
 11
268.8080357142858
 21
-12.0
 31
0.0
  0
LINE
  5
AE
330
17
100
AcDbEntity
  8
GR_ROAD
100
AcDbLine
 10
268.8080357142858
 20
-12.0
 30
0.0
 11
278.7638888888889
 21
-12.0
 31
0.0
  0
LINE
  5
AF
330
17
100
AcDbEntity
  8
GR_ROAD
100
AcDbLine
 10
278.7638888888889
 20
-12.0
 30
0.0
 11
288.71974206349216
 21
-12.0
 31
0.0
  0
LINE
  5
B0
330
17
100
AcDbEntity
  8
GR_ROAD
100
AcDbLine
 10
288.71974206349216
 20
-12.0
 30
0.0
 11
298.6755952380953
 21
-12.0
 31
0.0
  0
LINE
  5
B1
330
17
100
AcDbEntity
  8
GR_ROAD
100
AcDbLine
 10
298.6755952380953
 20
-12.0
 30
0.0
 11
308.63144841269843
 21
-12.0
 31
0.0
  0
LINE
  5
B2
330
17
100
AcDbEntity
  8
GR_ROAD
100
AcDbLine
 10
308.63144841269843
 20
-12.0
 30
0.0
 11
318.5873015873017
 21
-12.0
 31
0.0
  0
LINE
  5
B3
330
17
100
AcDbEntity
  8
GR_ROAD
100
AcDbLine
 10
318.5873015873017
 20
-12.0
 30
0.0
 11
328.5431547619048
 21
-12.0
 31
0.0
  0
LINE
  5
B4
330
17
100
AcDbEntity
  8
GR_ROAD
100
AcDbLine
 10
328.5431547619048
 20
-12.0
 30
0.0
 11
338.49900793650795
 21
-12.0
 31
0.0
  0
LINE
  5
B5
330
17
100
AcDbEntity
  8
GR_ROAD
100
AcDbLine
 10
338.49900793650795
 20
-12.0
 30
0.0
 11
348.4548611111112
 21
-12.0
 31
0.0
  0
LINE
  5
B6
330
17
100
AcDbEntity
  8
GR_ROAD
100
AcDbLine
 10
348.4548611111112
 20
-12.0
 30
0.0
 11
358.41071428571433
 21
-12.0
 31
0.0
  0
LINE
  5
B7
330
17
100
AcDbEntity
  8
GR_ROAD
100
AcDbLine
 10
358.41071428571433
 20
-12.0
 30
0.0
 11
368.36656746031747
 21
-12.0
 31
0.0
  0
LINE
  5
B8
330
17
100
AcDbEntity
  8
GR_ROAD
100
AcDbLine
 10
368.36656746031747
 20
-12.0
 30
0.0
 11
378.3224206349207
 21
-12.0
 31
0.0
  0
LINE
  5
B9
330
17
100
AcDbEntity
  8
GR_ROAD
100
AcDbLine
 10
378.3224206349207
 20
-12.0
 30
0.0
 11
388.27827380952385
 21
-12.0
 31
0.0
  0
LINE
  5
BA
330
17
100
AcDbEntity
  8
GR_ROAD
100
AcDbLine
 10
388.27827380952385
 20
-12.0
 30
0.0
 11
398.2341269841271
 21
-12.0
 31
0.0
  0
LINE
  5
BB
330
17
100
AcDbEntity
  8
GR_ROAD
100
AcDbLine
 10
398.2341269841271
 20
-12.0
 30
0.0
 11
408.18998015873024
 21
-12.0
 31
0.0
  0
LINE
  5
BC
330
17
100
AcDbEntity
  8
GR_ROAD
100
AcDbLine
 10
408.18998015873024
 20
-12.0
 30
0.0
 11
418.14583333333337
 21
-12.0
 31
0.0
  0
LINE
  5
BD
330
17
100
AcDbEntity
  8
GR_ROAD
100
AcDbLine
 10
418.14583333333337
 20
-12.0
 30
0.0
 11
428.1016865079366
 21
-12.0
 31
0.0
  0
LINE
  5
BE
330
17
100
AcDbEntity
  8
GR_ROAD
100
AcDbLine
 10
428.1016865079366
 20
-12.0
 30
0.0
 11
438.05753968253975
 21
-12.0
 31
0.0
  0
LINE
  5
BF
330
17
100
AcDbEntity
  8
GR_ROAD
100
AcDbLine
 10
438.05753968253975
 20
-12.0
 30
0.0
 11
448.0133928571429
 21
-12.0
 31
0.0
  0
LINE
  5
C0
330
17
100
AcDbEntity
  8
GR_ROAD
100
AcDbLine
 10
448.0133928571429
 20
-12.0
 30
0.0
 11
457.96924603174614
 21
-12.0
 31
0.0
  0
LINE
  5
C1
330
17
100
AcDbEntity
  8
GR_ROAD
100
AcDbLine
 10
457.96924603174614
 20
-12.0
 30
0.0
 11
467.9250992063493
 21
-12.0
 31
0.0
  0
LINE
  5
C2
330
17
100
AcDbEntity
  8
GR_ROAD
100
AcDbLine
 10
467.9250992063493
 20
-12.0
 30
0.0
 11
477.8809523809524
 21
-12.0
 31
0.0
  0
LINE
  5
C3
330
17
100
AcDbEntity
  8
GR_ROAD
100
AcDbLine
 10
477.8809523809524
 20
-12.0
 30
0.0
 11
487.83680555555566
 21
-12.0
 31
0.0
  0
LINE
  5
C4
330
17
100
AcDbEntity
  8
GR_ROAD
100
AcDbLine
 10
487.83680555555566
 20
-12.0
 30
0.0
 11
497.7926587301588
 21
-12.0
 31
0.0
  0
LINE
  5
C5
330
17
100
AcDbEntity
  8
GR_ROAD
100
AcDbLine
 10
497.7926587301588
 20
-12.0
 30
0.0
 11
507.74851190476204
 21
-12.0
 31
0.0
  0
LINE
  5
C6
330
17
100
AcDbEntity
  8
GR_ROAD
100
AcDbLine
 10
507.74851190476204
 20
-12.0
 30
0.0
 11
517.7043650793652
 21
-12.0
 31
0.0
  0
LINE
  5
C7
330
17
100
AcDbEntity
  8
GR_ROAD
100
AcDbLine
 10
517.7043650793652
 20
-12.0
 30
0.0
 11
527.6602182539683
 21
-12.0
 31
0.0
  0
LINE
  5
C8
330
17
100
AcDbEntity
  8
GR_ROAD
100
AcDbLine
 10
527.6602182539683
 20
-12.0
 30
0.0
 11
537.6160714285716
 21
-12.0
 31
0.0
  0
LINE
  5
C9
330
17
100
AcDbEntity
  8
GR_ROAD
100
AcDbLine
 10
537.6160714285716
 20
-12.0
 30
0.0
 11
547.5719246031747
 21
-12.0
 31
0.0
  0
LINE
  5
CA
330
17
100
AcDbEntity
  8
GR_ROAD
100
AcDbLine
 10
547.5719246031747
 20
-12.0
 30
0.0
 11
557.5277777777778
 21
-12.0
 31
0.0
  0
LINE
  5
CB
330
17
100
AcDbEntity
  8
GR_ROAD
100
AcDbLine
 10
557.5277777777778
 20
-12.0
 30
0.0
 11
567.4836309523811
 21
-12.0
 31
0.0
  0
LINE
  5
CC
330
17
100
AcDbEntity
  8
GR_ROAD
100
AcDbLine
 10
567.4836309523811
 20
-12.0
 30
0.0
 11
577.4394841269842
 21
-12.0
 31
0.0
  0
LINE
  5
CD
330
17
100
AcDbEntity
  8
GR_ROAD
100
AcDbLine
 10
577.4394841269842
 20
-12.0
 30
0.0
 11
587.3953373015873
 21
-12.0
 31
0.0
  0
LINE
  5
CE
330
17
100
AcDbEntity
  8
GR_ROAD
100
AcDbLine
 10
587.3953373015873
 20
-12.0
 30
0.0
 11
597.3511904761906
 21
-12.0
 31
0.0
  0
LINE
  5
CF
330
17
100
AcDbEntity
  8
GR_ROAD
100
AcDbLine
 10
597.3511904761906
 20
-12.0
 30
0.0
 11
607.3070436507937
 21
-12.0
 31
0.0
  0
LINE
  5
D0
330
17
100
AcDbEntity
  8
GR_ROAD
100
AcDbLine
 10
607.3070436507937
 20
-12.0
 30
0.0
 11
617.2628968253969
 21
-12.0
 31
0.0
  0
LINE
  5
D1
330
17
100
AcDbEntity
  8
GR_ROAD
100
AcDbLine
 10
617.2628968253969
 20
-12.0
 30
0.0
 11
627.2187500000001
 21
-12.0
 31
0.0
  0
LINE
  5
D2
330
17
100
AcDbEntity
  8
GR_ROAD
100
AcDbLine
 10
627.2187500000001
 20
-12.0
 30
0.0
 11
637.1746031746032
 21
-12.0
 31
0.0
  0
LINE
  5
D3
330
17
100
AcDbEntity
  8
GR_ROAD
100
AcDbLine
 10
637.1746031746032
 20
-12.0
 30
0.0
 11
647.1304563492064
 21
-12.0
 31
0.0
  0
LINE
  5
D4
330
17
100
AcDbEntity
  8
GR_ROAD
100
AcDbLine
 10
647.1304563492064
 20
-12.0
 30
0.0
 11
657.0863095238096
 21
-12.0
 31
0.0
  0
LINE
  5
D5
330
17
100
AcDbEntity
  8
GR_ROAD
100
AcDbLine
 10
657.0863095238096
 20
-12.0
 30
0.0
 11
667.0421626984128
 21
-12.0
 31
0.0
  0
LINE
  5
D6
330
17
100
AcDbEntity
  8
GR_ROAD
100
AcDbLine
 10
667.0421626984128
 20
-12.0
 30
0.0
 11
676.9980158730159
 21
-12.0
 31
0.0
  0
LINE
  5
D7
330
17
100
AcDbEntity
  8
GR_ROAD
100
AcDbLine
 10
676.9980158730159
 20
-12.0
 30
0.0
 11
686.9538690476192
 21
-12.0
 31
0.0
  0
LINE
  5
D8
330
17
100
AcDbEntity
  8
GR_ROAD
100
AcDbLine
 10
686.9538690476192
 20
-12.0
 30
0.0
 11
696.9097222222223
 21
-12.0
 31
0.0
  0
LINE
  5
D9
330
17
100
AcDbEntity
  8
GR_ROAD
100
AcDbLine
 10
696.9097222222223
 20
-12.0
 30
0.0
 11
706.8655753968254
 21
-12.0
 31
0.0
  0
LINE
  5
DA
330
17
100
AcDbEntity
  8
GR_ROAD
100
AcDbLine
 10
706.8655753968254
 20
-12.0
 30
0.0
 11
716.8214285714287
 21
-12.0
 31
0.0
  0
LINE
  5
DB
330
17
100
AcDbEntity
  8
GR_ROAD
100
AcDbLine
 10
716.8214285714287
 20
-12.0
 30
0.0
 11
726.7772817460318
 21
-12.0
 31
0.0
  0
LINE
  5
DC
330
17
100
AcDbEntity
  8
GR_ROAD
100
AcDbLine
 10
726.7772817460318
 20
-12.0
 30
0.0
 11
736.7331349206349
 21
-12.0
 31
0.0
  0
LINE
  5
DD
330
17
100
AcDbEntity
  8
GR_ROAD
100
AcDbLine
 10
736.7331349206349
 20
-12.0
 30
0.0
 11
746.6889880952382
 21
-12.0
 31
0.0
  0
LINE
  5
DE
330
17
100
AcDbEntity
  8
GR_ROAD
100
AcDbLine
 10
746.6889880952382
 20
-12.0
 30
0.0
 11
756.6448412698413
 21
-12.0
 31
0.0
  0
LINE
  5
DF
330
17
100
AcDbEntity
  8
GR_ROAD
100
AcDbLine
 10
756.6448412698413
 20
-12.0
 30
0.0
 11
766.6006944444445
 21
-12.0
 31
0.0
  0
LINE
  5
E0
330
17
100
AcDbEntity
  8
GR_ROAD
100
AcDbLine
 10
766.6006944444445
 20
-12.0
 30
0.0
 11
776.5565476190477
 21
-12.0
 31
0.0
  0
LINE
  5
E1
330
17
100
AcDbEntity
  8
GR_ROAD
100
AcDbLine
 10
776.5565476190477
 20
-12.0
 30
0.0
 11
786.5124007936508
 21
-12.0
 31
0.0
  0
LINE
  5
E2
330
17
100
AcDbEntity
  8
GR_ROAD
100
AcDbLine
 10
786.5124007936508
 20
-12.0
 30
0.0
 11
796.4682539682541
 21
-12.0
 31
0.0
  0
LINE
  5
E3
330
17
100
AcDbEntity
  8
GR_ROAD
100
AcDbLine
 10
796.4682539682541
 20
-12.0
 30
0.0
 11
806.4241071428571
 21
-12.0
 31
0.0
  0
LINE
  5
E4
330
17
100
AcDbEntity
  8
GR_ROAD
100
AcDbLine
 10
806.4241071428571
 20
-12.0
 30
0.0
 11
816.3799603174604
 21
-12.0
 31
0.0
  0
LINE
  5
E5
330
17
100
AcDbEntity
  8
GR_ROAD
100
AcDbLine
 10
816.3799603174604
 20
-12.0
 30
0.0
 11
826.3358134920636
 21
-12.0
 31
0.0
  0
LINE
  5
E6
330
17
100
AcDbEntity
  8
GR_ROAD
100
AcDbLine
 10
826.3358134920636
 20
-12.0
 30
0.0
 11
836.2916666666666
 21
-12.0
 31
0.0
  0
LINE
  5
E7
330
17
100
AcDbEntity
  8
GR_ROAD
100
AcDbLine
 10
2.842170943040401e-14
 20
12.0
 30
0.0
 11
9.955853174603204
 21
12.0
 31
0.0
  0
LINE
  5
E8
330
17
100
AcDbEntity
  8
GR_ROAD
100
AcDbLine
 10
9.955853174603204
 20
12.0
 30
0.0
 11
19.91170634920638
 21
12.0
 31
0.0
  0
LINE
  5
E9
330
17
100
AcDbEntity
  8
GR_ROAD
100
AcDbLine
 10
19.91170634920638
 20
12.0
 30
0.0
 11
29.867559523809554
 21
12.0
 31
0.0
  0
LINE
  5
EA
330
17
100
AcDbEntity
  8
GR_ROAD
100
AcDbLine
 10
29.867559523809554
 20
12.0
 30
0.0
 11
39.82341269841273
 21
12.0
 31
0.0
  0
LINE
  5
EB
330
17
100
AcDbEntity
  8
GR_ROAD
100
AcDbLine
 10
39.82341269841273
 20
12.0
 30
0.0
 11
49.77926587301591
 21
12.0
 31
0.0
  0
LINE
  5
EC
330
17
100
AcDbEntity
  8
GR_ROAD
100
AcDbLine
 10
49.77926587301591
 20
12.0
 30
0.0
 11
59.73511904761908
 21
12.0
 31
0.0
  0
LINE
  5
ED
330
17
100
AcDbEntity
  8
GR_ROAD
100
AcDbLine
 10
59.73511904761908
 20
12.0
 30
0.0
 11
69.69097222222226
 21
12.0
 31
0.0
  0
LINE
  5
EE
330
17
100
AcDbEntity
  8
GR_ROAD
100
AcDbLine
 10
69.69097222222226
 20
12.0
 30
0.0
 11
79.64682539682543
 21
12.0
 31
0.0
  0
LINE
  5
EF
330
17
100
AcDbEntity
  8
GR_ROAD
100
AcDbLine
 10
79.64682539682543
 20
12.0
 30
0.0
 11
89.60267857142861
 21
12.0
 31
0.0
  0
LINE
  5
F0
330
17
100
AcDbEntity
  8
GR_ROAD
100
AcDbLine
 10
89.60267857142861
 20
12.0
 30
0.0
 11
99.55853174603179
 21
12.0
 31
0.0
  0
LINE
  5
F1
330
17
100
AcDbEntity
  8
GR_ROAD
100
AcDbLine
 10
99.55853174603179
 20
12.0
 30
0.0
 11
109.51438492063495
 21
12.0
 31
0.0
  0
LINE
  5
F2
330
17
100
AcDbEntity
  8
GR_ROAD
100
AcDbLine
 10
109.51438492063495
 20
12.0
 30
0.0
 11
119.47023809523813
 21
12.0
 31
0.0
  0
LINE
  5
F3
330
17
100
AcDbEntity
  8
GR_ROAD
100
AcDbLine
 10
119.47023809523813
 20
12.0
 30
0.0
 11
129.42609126984132
 21
12.0
 31
0.0
  0
LINE
  5
F4
330
17
100
AcDbEntity
  8
GR_ROAD
100
AcDbLine
 10
129.42609126984132
 20
12.0
 30
0.0
 11
139.38194444444449
 21
12.0
 31
0.0
  0
LINE
  5
F5
330
17
100
AcDbEntity
  8
GR_ROAD
100
AcDbLine
 10
139.38194444444449
 20
12.0
 30
0.0
 11
149.33779761904768
 21
12.0
 31
0.0
  0
LINE
  5
F6
330
17
100
AcDbEntity
  8
GR_ROAD
100
AcDbLine
 10
149.33779761904768
 20
12.0
 30
0.0
 11
159.29365079365084
 21
12.0
 31
0.0
  0
LINE
  5
F7
330
17
100
AcDbEntity
  8
GR_ROAD
100
AcDbLine
 10
159.29365079365084
 20
12.0
 30
0.0
 11
169.249503968254
 21
12.0
 31
0.0
  0
LINE
  5
F8
330
17
100
AcDbEntity
  8
GR_ROAD
100
AcDbLine
 10
169.249503968254
 20
12.0
 30
0.0
 11
179.2053571428572
 21
12.0
 31
0.0
  0
LINE
  5
F9
330
17
100
AcDbEntity
  8
GR_ROAD
100
AcDbLine
 10
179.2053571428572
 20
12.0
 30
0.0
 11
189.16121031746036
 21
12.0
 31
0.0
  0
LINE
  5
FA
330
17
100
AcDbEntity
  8
GR_ROAD
100
AcDbLine
 10
189.16121031746036
 20
12.0
 30
0.0
 11
199.11706349206355
 21
12.0
 31
0.0
  0
LINE
  5
FB
330
17
100
AcDbEntity
  8
GR_ROAD
100
AcDbLine
 10
199.11706349206355
 20
12.0
 30
0.0
 11
209.07291666666669
 21
12.0
 31
0.0
  0
LINE
  5
FC
330
17
100
AcDbEntity
  8
GR_ROAD
100
AcDbLine
 10
209.07291666666669
 20
12.0
 30
0.0
 11
219.02876984126988
 21
12.0
 31
0.0
  0
LINE
  5
FD
330
17
100
AcDbEntity
  8
GR_ROAD
100
AcDbLine
 10
219.02876984126988
 20
12.0
 30
0.0
 11
228.98462301587307
 21
12.0
 31
0.0
  0
LINE
  5
FE
330
17
100
AcDbEntity
  8
GR_ROAD
100
AcDbLine
 10
228.98462301587307
 20
12.0
 30
0.0
 11
238.94047619047623
 21
12.0
 31
0.0
  0
LINE
  5
FF
330
17
100
AcDbEntity
  8
GR_ROAD
100
AcDbLine
 10
238.94047619047623
 20
12.0
 30
0.0
 11
248.8963293650794
 21
12.0
 31
0.0
  0
LINE
  5
100
330
17
100
AcDbEntity
  8
GR_ROAD
100
AcDbLine
 10
248.8963293650794
 20
12.0
 30
0.0
 11
258.85218253968264
 21
12.0
 31
0.0
  0
LINE
  5
101
330
17
100
AcDbEntity
  8
GR_ROAD
100
AcDbLine
 10
258.85218253968264
 20
12.0
 30
0.0
 11
268.8080357142858
 21
12.0
 31
0.0
  0
LINE
  5
102
330
17
100
AcDbEntity
  8
GR_ROAD
100
AcDbLine
 10
268.8080357142858
 20
12.0
 30
0.0
 11
278.7638888888889
 21
12.0
 31
0.0
  0
LINE
  5
103
330
17
100
AcDbEntity
  8
GR_ROAD
100
AcDbLine
 10
278.7638888888889
 20
12.0
 30
0.0
 11
288.71974206349216
 21
12.0
 31
0.0
  0
LINE
  5
104
330
17
100
AcDbEntity
  8
GR_ROAD
100
AcDbLine
 10
288.71974206349216
 20
12.0
 30
0.0
 11
298.6755952380953
 21
12.0
 31
0.0
  0
LINE
  5
105
330
17
100
AcDbEntity
  8
GR_ROAD
100
AcDbLine
 10
298.6755952380953
 20
12.0
 30
0.0
 11
308.63144841269843
 21
12.0
 31
0.0
  0
LINE
  5
106
330
17
100
AcDbEntity
  8
GR_ROAD
100
AcDbLine
 10
308.63144841269843
 20
12.0
 30
0.0
 11
318.5873015873017
 21
12.0
 31
0.0
  0
LINE
  5
107
330
17
100
AcDbEntity
  8
GR_ROAD
100
AcDbLine
 10
318.5873015873017
 20
12.0
 30
0.0
 11
328.5431547619048
 21
12.0
 31
0.0
  0
LINE
  5
108
330
17
100
AcDbEntity
  8
GR_ROAD
100
AcDbLine
 10
328.5431547619048
 20
12.0
 30
0.0
 11
338.49900793650795
 21
12.0
 31
0.0
  0
LINE
  5
109
330
17
100
AcDbEntity
  8
GR_ROAD
100
AcDbLine
 10
338.49900793650795
 20
12.0
 30
0.0
 11
348.4548611111112
 21
12.0
 31
0.0
  0
LINE
  5
10A
330
17
100
AcDbEntity
  8
GR_ROAD
100
AcDbLine
 10
348.4548611111112
 20
12.0
 30
0.0
 11
358.41071428571433
 21
12.0
 31
0.0
  0
LINE
  5
10B
330
17
100
AcDbEntity
  8
GR_ROAD
100
AcDbLine
 10
358.41071428571433
 20
12.0
 30
0.0
 11
368.36656746031747
 21
12.0
 31
0.0
  0
LINE
  5
10C
330
17
100
AcDbEntity
  8
GR_ROAD
100
AcDbLine
 10
368.36656746031747
 20
12.0
 30
0.0
 11
378.3224206349207
 21
12.0
 31
0.0
  0
LINE
  5
10D
330
17
100
AcDbEntity
  8
GR_ROAD
100
AcDbLine
 10
378.3224206349207
 20
12.0
 30
0.0
 11
388.27827380952385
 21
12.0
 31
0.0
  0
LINE
  5
10E
330
17
100
AcDbEntity
  8
GR_ROAD
100
AcDbLine
 10
388.27827380952385
 20
12.0
 30
0.0
 11
398.2341269841271
 21
12.0
 31
0.0
  0
LINE
  5
10F
330
17
100
AcDbEntity
  8
GR_ROAD
100
AcDbLine
 10
398.2341269841271
 20
12.0
 30
0.0
 11
408.18998015873024
 21
12.0
 31
0.0
  0
LINE
  5
110
330
17
100
AcDbEntity
  8
GR_ROAD
100
AcDbLine
 10
408.18998015873024
 20
12.0
 30
0.0
 11
418.14583333333337
 21
12.0
 31
0.0
  0
LINE
  5
111
330
17
100
AcDbEntity
  8
GR_ROAD
100
AcDbLine
 10
418.14583333333337
 20
12.0
 30
0.0
 11
428.1016865079366
 21
12.0
 31
0.0
  0
LINE
  5
112
330
17
100
AcDbEntity
  8
GR_ROAD
100
AcDbLine
 10
428.1016865079366
 20
12.0
 30
0.0
 11
438.05753968253975
 21
12.0
 31
0.0
  0
LINE
  5
113
330
17
100
AcDbEntity
  8
GR_ROAD
100
AcDbLine
 10
438.05753968253975
 20
12.0
 30
0.0
 11
448.0133928571429
 21
12.0
 31
0.0
  0
LINE
  5
114
330
17
100
AcDbEntity
  8
GR_ROAD
100
AcDbLine
 10
448.0133928571429
 20
12.0
 30
0.0
 11
457.96924603174614
 21
12.0
 31
0.0
  0
LINE
  5
115
330
17
100
AcDbEntity
  8
GR_ROAD
100
AcDbLine
 10
457.96924603174614
 20
12.0
 30
0.0
 11
467.9250992063493
 21
12.0
 31
0.0
  0
LINE
  5
116
330
17
100
AcDbEntity
  8
GR_ROAD
100
AcDbLine
 10
467.9250992063493
 20
12.0
 30
0.0
 11
477.8809523809524
 21
12.0
 31
0.0
  0
LINE
  5
117
330
17
100
AcDbEntity
  8
GR_ROAD
100
AcDbLine
 10
477.8809523809524
 20
12.0
 30
0.0
 11
487.83680555555566
 21
12.0
 31
0.0
  0
LINE
  5
118
330
17
100
AcDbEntity
  8
GR_ROAD
100
AcDbLine
 10
487.83680555555566
 20
12.0
 30
0.0
 11
497.7926587301588
 21
12.0
 31
0.0
  0
LINE
  5
119
330
17
100
AcDbEntity
  8
GR_ROAD
100
AcDbLine
 10
497.7926587301588
 20
12.0
 30
0.0
 11
507.74851190476204
 21
12.0
 31
0.0
  0
LINE
  5
11A
330
17
100
AcDbEntity
  8
GR_ROAD
100
AcDbLine
 10
507.74851190476204
 20
12.0
 30
0.0
 11
517.7043650793652
 21
12.0
 31
0.0
  0
LINE
  5
11B
330
17
100
AcDbEntity
  8
GR_ROAD
100
AcDbLine
 10
517.7043650793652
 20
12.0
 30
0.0
 11
527.6602182539683
 21
12.0
 31
0.0
  0
LINE
  5
11C
330
17
100
AcDbEntity
  8
GR_ROAD
100
AcDbLine
 10
527.6602182539683
 20
12.0
 30
0.0
 11
537.6160714285716
 21
12.0
 31
0.0
  0
LINE
  5
11D
330
17
100
AcDbEntity
  8
GR_ROAD
100
AcDbLine
 10
537.6160714285716
 20
12.0
 30
0.0
 11
547.5719246031747
 21
12.0
 31
0.0
  0
LINE
  5
11E
330
17
100
AcDbEntity
  8
GR_ROAD
100
AcDbLine
 10
547.5719246031747
 20
12.0
 30
0.0
 11
557.5277777777778
 21
12.0
 31
0.0
  0
LINE
  5
11F
330
17
100
AcDbEntity
  8
GR_ROAD
100
AcDbLine
 10
557.5277777777778
 20
12.0
 30
0.0
 11
567.4836309523811
 21
12.0
 31
0.0
  0
LINE
  5
120
330
17
100
AcDbEntity
  8
GR_ROAD
100
AcDbLine
 10
567.4836309523811
 20
12.0
 30
0.0
 11
577.4394841269842
 21
12.0
 31
0.0
  0
LINE
  5
121
330
17
100
AcDbEntity
  8
GR_ROAD
100
AcDbLine
 10
577.4394841269842
 20
12.0
 30
0.0
 11
587.3953373015873
 21
12.0
 31
0.0
  0
LINE
  5
122
330
17
100
AcDbEntity
  8
GR_ROAD
100
AcDbLine
 10
587.3953373015873
 20
12.0
 30
0.0
 11
597.3511904761906
 21
12.0
 31
0.0
  0
LINE
  5
123
330
17
100
AcDbEntity
  8
GR_ROAD
100
AcDbLine
 10
597.3511904761906
 20
12.0
 30
0.0
 11
607.3070436507937
 21
12.0
 31
0.0
  0
LINE
  5
124
330
17
100
AcDbEntity
  8
GR_ROAD
100
AcDbLine
 10
607.3070436507937
 20
12.0
 30
0.0
 11
617.2628968253969
 21
12.0
 31
0.0
  0
LINE
  5
125
330
17
100
AcDbEntity
  8
GR_ROAD
100
AcDbLine
 10
617.2628968253969
 20
12.0
 30
0.0
 11
627.2187500000001
 21
12.0
 31
0.0
  0
LINE
  5
126
330
17
100
AcDbEntity
  8
GR_ROAD
100
AcDbLine
 10
627.2187500000001
 20
12.0
 30
0.0
 11
637.1746031746032
 21
12.0
 31
0.0
  0
LINE
  5
127
330
17
100
AcDbEntity
  8
GR_ROAD
100
AcDbLine
 10
637.1746031746032
 20
12.0
 30
0.0
 11
647.1304563492064
 21
12.0
 31
0.0
  0
LINE
  5
128
330
17
100
AcDbEntity
  8
GR_ROAD
100
AcDbLine
 10
647.1304563492064
 20
12.0
 30
0.0
 11
657.0863095238096
 21
12.0
 31
0.0
  0
LINE
  5
129
330
17
100
AcDbEntity
  8
GR_ROAD
100
AcDbLine
 10
657.0863095238096
 20
12.0
 30
0.0
 11
667.0421626984128
 21
12.0
 31
0.0
  0
LINE
  5
12A
330
17
100
AcDbEntity
  8
GR_ROAD
100
AcDbLine
 10
667.0421626984128
 20
12.0
 30
0.0
 11
676.9980158730159
 21
12.0
 31
0.0
  0
LINE
  5
12B
330
17
100
AcDbEntity
  8
GR_ROAD
100
AcDbLine
 10
676.9980158730159
 20
12.0
 30
0.0
 11
686.9538690476192
 21
12.0
 31
0.0
  0
LINE
  5
12C
330
17
100
AcDbEntity
  8
GR_ROAD
100
AcDbLine
 10
686.9538690476192
 20
12.0
 30
0.0
 11
696.9097222222223
 21
12.0
 31
0.0
  0
LINE
  5
12D
330
17
100
AcDbEntity
  8
GR_ROAD
100
AcDbLine
 10
696.9097222222223
 20
12.0
 30
0.0
 11
706.8655753968254
 21
12.0
 31
0.0
  0
LINE
  5
12E
330
17
100
AcDbEntity
  8
GR_ROAD
100
AcDbLine
 10
706.8655753968254
 20
12.0
 30
0.0
 11
716.8214285714287
 21
12.0
 31
0.0
  0
LINE
  5
12F
330
17
100
AcDbEntity
  8
GR_ROAD
100
AcDbLine
 10
716.8214285714287
 20
12.0
 30
0.0
 11
726.7772817460318
 21
12.0
 31
0.0
  0
LINE
  5
130
330
17
100
AcDbEntity
  8
GR_ROAD
100
AcDbLine
 10
726.7772817460318
 20
12.0
 30
0.0
 11
736.7331349206349
 21
12.0
 31
0.0
  0
LINE
  5
131
330
17
100
AcDbEntity
  8
GR_ROAD
100
AcDbLine
 10
736.7331349206349
 20
12.0
 30
0.0
 11
746.6889880952382
 21
12.0
 31
0.0
  0
LINE
  5
132
330
17
100
AcDbEntity
  8
GR_ROAD
100
AcDbLine
 10
746.6889880952382
 20
12.0
 30
0.0
 11
756.6448412698413
 21
12.0
 31
0.0
  0
LINE
  5
133
330
17
100
AcDbEntity
  8
GR_ROAD
100
AcDbLine
 10
756.6448412698413
 20
12.0
 30
0.0
 11
766.6006944444445
 21
12.0
 31
0.0
  0
LINE
  5
134
330
17
100
AcDbEntity
  8
GR_ROAD
100
AcDbLine
 10
766.6006944444445
 20
12.0
 30
0.0
 11
776.5565476190477
 21
12.0
 31
0.0
  0
LINE
  5
135
330
17
100
AcDbEntity
  8
GR_ROAD
100
AcDbLine
 10
776.5565476190477
 20
12.0
 30
0.0
 11
786.5124007936508
 21
12.0
 31
0.0
  0
LINE
  5
136
330
17
100
AcDbEntity
  8
GR_ROAD
100
AcDbLine
 10
786.5124007936508
 20
12.0
 30
0.0
 11
796.4682539682541
 21
12.0
 31
0.0
  0
LINE
  5
137
330
17
100
AcDbEntity
  8
GR_ROAD
100
AcDbLine
 10
796.4682539682541
 20
12.0
 30
0.0
 11
806.4241071428571
 21
12.0
 31
0.0
  0
LINE
  5
138
330
17
100
AcDbEntity
  8
GR_ROAD
100
AcDbLine
 10
806.4241071428571
 20
12.0
 30
0.0
 11
816.3799603174604
 21
12.0
 31
0.0
  0
LINE
  5
139
330
17
100
AcDbEntity
  8
GR_ROAD
100
AcDbLine
 10
816.3799603174604
 20
12.0
 30
0.0
 11
826.3358134920636
 21
12.0
 31
0.0
  0
LINE
  5
13A
330
17
100
AcDbEntity
  8
GR_ROAD
100
AcDbLine
 10
826.3358134920636
 20
12.0
 30
0.0
 11
836.2916666666666
 21
12.0
 31
0.0
  0
LINE
  5
13B
330
17
100
AcDbEntity
  8
GR_LANE_LINES
100
AcDbLine
 10
2.842170943040401e-14
 20
0.0
 30
0.0
 11
9.955853174603204
 21
0.0
 31
0.0
  0
LINE
  5
13C
330
17
100
AcDbEntity
  8
GR_LANE_LINES
100
AcDbLine
 10
9.955853174603204
 20
0.0
 30
0.0
 11
19.91170634920638
 21
0.0
 31
0.0
  0
LINE
  5
13D
330
17
100
AcDbEntity
  8
GR_LANE_LINES
100
AcDbLine
 10
19.91170634920638
 20
0.0
 30
0.0
 11
29.867559523809554
 21
0.0
 31
0.0
  0
LINE
  5
13E
330
17
100
AcDbEntity
  8
GR_LANE_LINES
100
AcDbLine
 10
29.867559523809554
 20
0.0
 30
0.0
 11
39.82341269841273
 21
0.0
 31
0.0
  0
LINE
  5
13F
330
17
100
AcDbEntity
  8
GR_LANE_LINES
100
AcDbLine
 10
39.82341269841273
 20
0.0
 30
0.0
 11
49.77926587301591
 21
0.0
 31
0.0
  0
LINE
  5
140
330
17
100
AcDbEntity
  8
GR_LANE_LINES
100
AcDbLine
 10
49.77926587301591
 20
0.0
 30
0.0
 11
59.73511904761908
 21
0.0
 31
0.0
  0
LINE
  5
141
330
17
100
AcDbEntity
  8
GR_LANE_LINES
100
AcDbLine
 10
59.73511904761908
 20
0.0
 30
0.0
 11
69.69097222222226
 21
0.0
 31
0.0
  0
LINE
  5
142
330
17
100
AcDbEntity
  8
GR_LANE_LINES
100
AcDbLine
 10
69.69097222222226
 20
0.0
 30
0.0
 11
79.64682539682543
 21
0.0
 31
0.0
  0
LINE
  5
143
330
17
100
AcDbEntity
  8
GR_LANE_LINES
100
AcDbLine
 10
79.64682539682543
 20
0.0
 30
0.0
 11
89.60267857142861
 21
0.0
 31
0.0
  0
LINE
  5
144
330
17
100
AcDbEntity
  8
GR_LANE_LINES
100
AcDbLine
 10
89.60267857142861
 20
0.0
 30
0.0
 11
99.55853174603179
 21
0.0
 31
0.0
  0
LINE
  5
145
330
17
100
AcDbEntity
  8
GR_LANE_LINES
100
AcDbLine
 10
99.55853174603179
 20
0.0
 30
0.0
 11
109.51438492063495
 21
0.0
 31
0.0
  0
LINE
  5
146
330
17
100
AcDbEntity
  8
GR_LANE_LINES
100
AcDbLine
 10
109.51438492063495
 20
0.0
 30
0.0
 11
119.47023809523813
 21
0.0
 31
0.0
  0
LINE
  5
147
330
17
100
AcDbEntity
  8
GR_LANE_LINES
100
AcDbLine
 10
119.47023809523813
 20
0.0
 30
0.0
 11
129.42609126984132
 21
0.0
 31
0.0
  0
LINE
  5
148
330
17
100
AcDbEntity
  8
GR_LANE_LINES
100
AcDbLine
 10
129.42609126984132
 20
0.0
 30
0.0
 11
139.38194444444449
 21
0.0
 31
0.0
  0
LINE
  5
149
330
17
100
AcDbEntity
  8
GR_LANE_LINES
100
AcDbLine
 10
139.38194444444449
 20
0.0
 30
0.0
 11
149.33779761904768
 21
0.0
 31
0.0
  0
LINE
  5
14A
330
17
100
AcDbEntity
  8
GR_LANE_LINES
100
AcDbLine
 10
149.33779761904768
 20
0.0
 30
0.0
 11
159.29365079365084
 21
0.0
 31
0.0
  0
LINE
  5
14B
330
17
100
AcDbEntity
  8
GR_LANE_LINES
100
AcDbLine
 10
159.29365079365084
 20
0.0
 30
0.0
 11
169.249503968254
 21
0.0
 31
0.0
  0
LINE
  5
14C
330
17
100
AcDbEntity
  8
GR_LANE_LINES
100
AcDbLine
 10
169.249503968254
 20
0.0
 30
0.0
 11
179.2053571428572
 21
0.0
 31
0.0
  0
LINE
  5
14D
330
17
100
AcDbEntity
  8
GR_LANE_LINES
100
AcDbLine
 10
179.2053571428572
 20
0.0
 30
0.0
 11
189.16121031746036
 21
0.0
 31
0.0
  0
LINE
  5
14E
330
17
100
AcDbEntity
  8
GR_LANE_LINES
100
AcDbLine
 10
189.16121031746036
 20
0.0
 30
0.0
 11
199.11706349206355
 21
0.0
 31
0.0
  0
LINE
  5
14F
330
17
100
AcDbEntity
  8
GR_LANE_LINES
100
AcDbLine
 10
199.11706349206355
 20
0.0
 30
0.0
 11
209.07291666666669
 21
0.0
 31
0.0
  0
LINE
  5
150
330
17
100
AcDbEntity
  8
GR_LANE_LINES
100
AcDbLine
 10
209.07291666666669
 20
0.0
 30
0.0
 11
219.02876984126988
 21
0.0
 31
0.0
  0
LINE
  5
151
330
17
100
AcDbEntity
  8
GR_LANE_LINES
100
AcDbLine
 10
219.02876984126988
 20
0.0
 30
0.0
 11
228.98462301587307
 21
0.0
 31
0.0
  0
LINE
  5
152
330
17
100
AcDbEntity
  8
GR_LANE_LINES
100
AcDbLine
 10
228.98462301587307
 20
0.0
 30
0.0
 11
238.94047619047623
 21
0.0
 31
0.0
  0
LINE
  5
153
330
17
100
AcDbEntity
  8
GR_LANE_LINES
100
AcDbLine
 10
238.94047619047623
 20
0.0
 30
0.0
 11
248.8963293650794
 21
0.0
 31
0.0
  0
LINE
  5
154
330
17
100
AcDbEntity
  8
GR_LANE_LINES
100
AcDbLine
 10
248.8963293650794
 20
0.0
 30
0.0
 11
258.85218253968264
 21
0.0
 31
0.0
  0
LINE
  5
155
330
17
100
AcDbEntity
  8
GR_LANE_LINES
100
AcDbLine
 10
258.85218253968264
 20
0.0
 30
0.0
 11
268.8080357142858
 21
0.0
 31
0.0
  0
LINE
  5
156
330
17
100
AcDbEntity
  8
GR_LANE_LINES
100
AcDbLine
 10
268.8080357142858
 20
0.0
 30
0.0
 11
278.7638888888889
 21
0.0
 31
0.0
  0
LINE
  5
157
330
17
100
AcDbEntity
  8
GR_LANE_LINES
100
AcDbLine
 10
278.7638888888889
 20
0.0
 30
0.0
 11
288.71974206349216
 21
0.0
 31
0.0
  0
LINE
  5
158
330
17
100
AcDbEntity
  8
GR_LANE_LINES
100
AcDbLine
 10
288.71974206349216
 20
0.0
 30
0.0
 11
298.6755952380953
 21
0.0
 31
0.0
  0
LINE
  5
159
330
17
100
AcDbEntity
  8
GR_LANE_LINES
100
AcDbLine
 10
298.6755952380953
 20
0.0
 30
0.0
 11
308.63144841269843
 21
0.0
 31
0.0
  0
LINE
  5
15A
330
17
100
AcDbEntity
  8
GR_LANE_LINES
100
AcDbLine
 10
308.63144841269843
 20
0.0
 30
0.0
 11
318.5873015873017
 21
0.0
 31
0.0
  0
LINE
  5
15B
330
17
100
AcDbEntity
  8
GR_LANE_LINES
100
AcDbLine
 10
318.5873015873017
 20
0.0
 30
0.0
 11
328.5431547619048
 21
0.0
 31
0.0
  0
LINE
  5
15C
330
17
100
AcDbEntity
  8
GR_LANE_LINES
100
AcDbLine
 10
328.5431547619048
 20
0.0
 30
0.0
 11
338.49900793650795
 21
0.0
 31
0.0
  0
LINE
  5
15D
330
17
100
AcDbEntity
  8
GR_LANE_LINES
100
AcDbLine
 10
338.49900793650795
 20
0.0
 30
0.0
 11
348.4548611111112
 21
0.0
 31
0.0
  0
LINE
  5
15E
330
17
100
AcDbEntity
  8
GR_LANE_LINES
100
AcDbLine
 10
348.4548611111112
 20
0.0
 30
0.0
 11
358.41071428571433
 21
0.0
 31
0.0
  0
LINE
  5
15F
330
17
100
AcDbEntity
  8
GR_LANE_LINES
100
AcDbLine
 10
358.41071428571433
 20
0.0
 30
0.0
 11
368.36656746031747
 21
0.0
 31
0.0
  0
LINE
  5
160
330
17
100
AcDbEntity
  8
GR_LANE_LINES
100
AcDbLine
 10
368.36656746031747
 20
0.0
 30
0.0
 11
378.3224206349207
 21
0.0
 31
0.0
  0
LINE
  5
161
330
17
100
AcDbEntity
  8
GR_LANE_LINES
100
AcDbLine
 10
378.3224206349207
 20
0.0
 30
0.0
 11
388.27827380952385
 21
0.0
 31
0.0
  0
LINE
  5
162
330
17
100
AcDbEntity
  8
GR_LANE_LINES
100
AcDbLine
 10
388.27827380952385
 20
0.0
 30
0.0
 11
398.2341269841271
 21
0.0
 31
0.0
  0
LINE
  5
163
330
17
100
AcDbEntity
  8
GR_LANE_LINES
100
AcDbLine
 10
398.2341269841271
 20
0.0
 30
0.0
 11
408.18998015873024
 21
0.0
 31
0.0
  0
LINE
  5
164
330
17
100
AcDbEntity
  8
GR_LANE_LINES
100
AcDbLine
 10
408.18998015873024
 20
0.0
 30
0.0
 11
418.14583333333337
 21
0.0
 31
0.0
  0
LINE
  5
165
330
17
100
AcDbEntity
  8
GR_LANE_LINES
100
AcDbLine
 10
418.14583333333337
 20
0.0
 30
0.0
 11
428.1016865079366
 21
0.0
 31
0.0
  0
LINE
  5
166
330
17
100
AcDbEntity
  8
GR_LANE_LINES
100
AcDbLine
 10
428.1016865079366
 20
0.0
 30
0.0
 11
438.05753968253975
 21
0.0
 31
0.0
  0
LINE
  5
167
330
17
100
AcDbEntity
  8
GR_LANE_LINES
100
AcDbLine
 10
438.05753968253975
 20
0.0
 30
0.0
 11
448.0133928571429
 21
0.0
 31
0.0
  0
LINE
  5
168
330
17
100
AcDbEntity
  8
GR_LANE_LINES
100
AcDbLine
 10
448.0133928571429
 20
0.0
 30
0.0
 11
457.96924603174614
 21
0.0
 31
0.0
  0
LINE
  5
169
330
17
100
AcDbEntity
  8
GR_LANE_LINES
100
AcDbLine
 10
457.96924603174614
 20
0.0
 30
0.0
 11
467.9250992063493
 21
0.0
 31
0.0
  0
LINE
  5
16A
330
17
100
AcDbEntity
  8
GR_LANE_LINES
100
AcDbLine
 10
467.9250992063493
 20
0.0
 30
0.0
 11
477.8809523809524
 21
0.0
 31
0.0
  0
LINE
  5
16B
330
17
100
AcDbEntity
  8
GR_LANE_LINES
100
AcDbLine
 10
477.8809523809524
 20
0.0
 30
0.0
 11
487.83680555555566
 21
0.0
 31
0.0
  0
LINE
  5
16C
330
17
100
AcDbEntity
  8
GR_LANE_LINES
100
AcDbLine
 10
487.83680555555566
 20
0.0
 30
0.0
 11
497.7926587301588
 21
0.0
 31
0.0
  0
LINE
  5
16D
330
17
100
AcDbEntity
  8
GR_LANE_LINES
100
AcDbLine
 10
497.7926587301588
 20
0.0
 30
0.0
 11
507.74851190476204
 21
0.0
 31
0.0
  0
LINE
  5
16E
330
17
100
AcDbEntity
  8
GR_LANE_LINES
100
AcDbLine
 10
507.74851190476204
 20
0.0
 30
0.0
 11
517.7043650793652
 21
0.0
 31
0.0
  0
LINE
  5
16F
330
17
100
AcDbEntity
  8
GR_LANE_LINES
100
AcDbLine
 10
517.7043650793652
 20
0.0
 30
0.0
 11
527.6602182539683
 21
0.0
 31
0.0
  0
LINE
  5
170
330
17
100
AcDbEntity
  8
GR_LANE_LINES
100
AcDbLine
 10
527.6602182539683
 20
0.0
 30
0.0
 11
537.6160714285716
 21
0.0
 31
0.0
  0
LINE
  5
171
330
17
100
AcDbEntity
  8
GR_LANE_LINES
100
AcDbLine
 10
537.6160714285716
 20
0.0
 30
0.0
 11
547.5719246031747
 21
0.0
 31
0.0
  0
LINE
  5
172
330
17
100
AcDbEntity
  8
GR_LANE_LINES
100
AcDbLine
 10
547.5719246031747
 20
0.0
 30
0.0
 11
557.5277777777778
 21
0.0
 31
0.0
  0
LINE
  5
173
330
17
100
AcDbEntity
  8
GR_LANE_LINES
100
AcDbLine
 10
557.5277777777778
 20
0.0
 30
0.0
 11
567.4836309523811
 21
0.0
 31
0.0
  0
LINE
  5
174
330
17
100
AcDbEntity
  8
GR_LANE_LINES
100
AcDbLine
 10
567.4836309523811
 20
0.0
 30
0.0
 11
577.4394841269842
 21
0.0
 31
0.0
  0
LINE
  5
175
330
17
100
AcDbEntity
  8
GR_LANE_LINES
100
AcDbLine
 10
577.4394841269842
 20
0.0
 30
0.0
 11
587.3953373015873
 21
0.0
 31
0.0
  0
LINE
  5
176
330
17
100
AcDbEntity
  8
GR_LANE_LINES
100
AcDbLine
 10
587.3953373015873
 20
0.0
 30
0.0
 11
597.3511904761906
 21
0.0
 31
0.0
  0
LINE
  5
177
330
17
100
AcDbEntity
  8
GR_LANE_LINES
100
AcDbLine
 10
597.3511904761906
 20
0.0
 30
0.0
 11
607.3070436507937
 21
0.0
 31
0.0
  0
LINE
  5
178
330
17
100
AcDbEntity
  8
GR_LANE_LINES
100
AcDbLine
 10
607.3070436507937
 20
0.0
 30
0.0
 11
617.2628968253969
 21
0.0
 31
0.0
  0
LINE
  5
179
330
17
100
AcDbEntity
  8
GR_LANE_LINES
100
AcDbLine
 10
617.2628968253969
 20
0.0
 30
0.0
 11
627.2187500000001
 21
0.0
 31
0.0
  0
LINE
  5
17A
330
17
100
AcDbEntity
  8
GR_LANE_LINES
100
AcDbLine
 10
627.2187500000001
 20
0.0
 30
0.0
 11
637.1746031746032
 21
0.0
 31
0.0
  0
LINE
  5
17B
330
17
100
AcDbEntity
  8
GR_LANE_LINES
100
AcDbLine
 10
637.1746031746032
 20
0.0
 30
0.0
 11
647.1304563492064
 21
0.0
 31
0.0
  0
LINE
  5
17C
330
17
100
AcDbEntity
  8
GR_LANE_LINES
100
AcDbLine
 10
647.1304563492064
 20
0.0
 30
0.0
 11
657.0863095238096
 21
0.0
 31
0.0
  0
LINE
  5
17D
330
17
100
AcDbEntity
  8
GR_LANE_LINES
100
AcDbLine
 10
657.0863095238096
 20
0.0
 30
0.0
 11
667.0421626984128
 21
0.0
 31
0.0
  0
LINE
  5
17E
330
17
100
AcDbEntity
  8
GR_LANE_LINES
100
AcDbLine
 10
667.0421626984128
 20
0.0
 30
0.0
 11
676.9980158730159
 21
0.0
 31
0.0
  0
LINE
  5
17F
330
17
100
AcDbEntity
  8
GR_LANE_LINES
100
AcDbLine
 10
676.9980158730159
 20
0.0
 30
0.0
 11
686.9538690476192
 21
0.0
 31
0.0
  0
LINE
  5
180
330
17
100
AcDbEntity
  8
GR_LANE_LINES
100
AcDbLine
 10
686.9538690476192
 20
0.0
 30
0.0
 11
696.9097222222223
 21
0.0
 31
0.0
  0
LINE
  5
181
330
17
100
AcDbEntity
  8
GR_LANE_LINES
100
AcDbLine
 10
696.9097222222223
 20
0.0
 30
0.0
 11
706.8655753968254
 21
0.0
 31
0.0
  0
LINE
  5
182
330
17
100
AcDbEntity
  8
GR_LANE_LINES
100
AcDbLine
 10
706.8655753968254
 20
0.0
 30
0.0
 11
716.8214285714287
 21
0.0
 31
0.0
  0
LINE
  5
183
330
17
100
AcDbEntity
  8
GR_LANE_LINES
100
AcDbLine
 10
716.8214285714287
 20
0.0
 30
0.0
 11
726.7772817460318
 21
0.0
 31
0.0
  0
LINE
  5
184
330
17
100
AcDbEntity
  8
GR_LANE_LINES
100
AcDbLine
 10
726.7772817460318
 20
0.0
 30
0.0
 11
736.7331349206349
 21
0.0
 31
0.0
  0
LINE
  5
185
330
17
100
AcDbEntity
  8
GR_LANE_LINES
100
AcDbLine
 10
736.7331349206349
 20
0.0
 30
0.0
 11
746.6889880952382
 21
0.0
 31
0.0
  0
LINE
  5
186
330
17
100
AcDbEntity
  8
GR_LANE_LINES
100
AcDbLine
 10
746.6889880952382
 20
0.0
 30
0.0
 11
756.6448412698413
 21
0.0
 31
0.0
  0
LINE
  5
187
330
17
100
AcDbEntity
  8
GR_LANE_LINES
100
AcDbLine
 10
756.6448412698413
 20
0.0
 30
0.0
 11
766.6006944444445
 21
0.0
 31
0.0
  0
LINE
  5
188
330
17
100
AcDbEntity
  8
GR_LANE_LINES
100
AcDbLine
 10
766.6006944444445
 20
0.0
 30
0.0
 11
776.5565476190477
 21
0.0
 31
0.0
  0
LINE
  5
189
330
17
100
AcDbEntity
  8
GR_LANE_LINES
100
AcDbLine
 10
776.5565476190477
 20
0.0
 30
0.0
 11
786.5124007936508
 21
0.0
 31
0.0
  0
LINE
  5
18A
330
17
100
AcDbEntity
  8
GR_LANE_LINES
100
AcDbLine
 10
786.5124007936508
 20
0.0
 30
0.0
 11
796.4682539682541
 21
0.0
 31
0.0
  0
LINE
  5
18B
330
17
100
AcDbEntity
  8
GR_LANE_LINES
100
AcDbLine
 10
796.4682539682541
 20
0.0
 30
0.0
 11
806.4241071428571
 21
0.0
 31
0.0
  0
LINE
  5
18C
330
17
100
AcDbEntity
  8
GR_LANE_LINES
100
AcDbLine
 10
806.4241071428571
 20
0.0
 30
0.0
 11
816.3799603174604
 21
0.0
 31
0.0
  0
LINE
  5
18D
330
17
100
AcDbEntity
  8
GR_LANE_LINES
100
AcDbLine
 10
816.3799603174604
 20
0.0
 30
0.0
 11
826.3358134920636
 21
0.0
 31
0.0
  0
LINE
  5
18E
330
17
100
AcDbEntity
  8
GR_LANE_LINES
100
AcDbLine
 10
826.3358134920636
 20
0.0
 30
0.0
 11
836.2916666666666
 21
0.0
 31
0.0
  0
LINE
  5
18F
330
17
100
AcDbEntity
  8
GR_BRIDGE
100
AcDbLine
 10
368.14583333333337
 20
-12.0
 30
0.0
 11
378.14583333333337
 21
-12.0
 31
0.0
  0
LINE
  5
190
330
17
100
AcDbEntity
  8
GR_BRIDGE
100
AcDbLine
 10
378.14583333333337
 20
-12.0
 30
0.0
 11
388.14583333333337
 21
-12.0
 31
0.0
  0
LINE
  5
191
330
17
100
AcDbEntity
  8
GR_BRIDGE
100
AcDbLine
 10
388.14583333333337
 20
-12.0
 30
0.0
 11
398.14583333333337
 21
-12.0
 31
0.0
  0
LINE
  5
192
330
17
100
AcDbEntity
  8
GR_BRIDGE
100
AcDbLine
 10
398.14583333333337
 20
-12.0
 30
0.0
 11
408.14583333333337
 21
-12.0
 31
0.0
  0
LINE
  5
193
330
17
100
AcDbEntity
  8
GR_BRIDGE
100
AcDbLine
 10
408.14583333333337
 20
-12.0
 30
0.0
 11
418.14583333333337
 21
-12.0
 31
0.0
  0
LINE
  5
194
330
17
100
AcDbEntity
  8
GR_BRIDGE
100
AcDbLine
 10
418.14583333333337
 20
-12.0
 30
0.0
 11
428.14583333333337
 21
-12.0
 31
0.0
  0
LINE
  5
195
330
17
100
AcDbEntity
  8
GR_BRIDGE
100
AcDbLine
 10
428.14583333333337
 20
-12.0
 30
0.0
 11
438.14583333333337
 21
-12.0
 31
0.0
  0
LINE
  5
196
330
17
100
AcDbEntity
  8
GR_BRIDGE
100
AcDbLine
 10
438.14583333333337
 20
-12.0
 30
0.0
 11
448.14583333333337
 21
-12.0
 31
0.0
  0
LINE
  5
197
330
17
100
AcDbEntity
  8
GR_BRIDGE
100
AcDbLine
 10
448.14583333333337
 20
-12.0
 30
0.0
 11
458.14583333333337
 21
-12.0
 31
0.0
  0
LINE
  5
198
330
17
100
AcDbEntity
  8
GR_BRIDGE
100
AcDbLine
 10
458.14583333333337
 20
-12.0
 30
0.0
 11
468.14583333333337
 21
-12.0
 31
0.0
  0
LINE
  5
199
330
17
100
AcDbEntity
  8
GR_BRIDGE
100
AcDbLine
 10
368.14583333333337
 20
12.0
 30
0.0
 11
378.14583333333337
 21
12.0
 31
0.0
  0
LINE
  5
19A
330
17
100
AcDbEntity
  8
GR_BRIDGE
100
AcDbLine
 10
378.14583333333337
 20
12.0
 30
0.0
 11
388.14583333333337
 21
12.0
 31
0.0
  0
LINE
  5
19B
330
17
100
AcDbEntity
  8
GR_BRIDGE
100
AcDbLine
 10
388.14583333333337
 20
12.0
 30
0.0
 11
398.14583333333337
 21
12.0
 31
0.0
  0
LINE
  5
19C
330
17
100
AcDbEntity
  8
GR_BRIDGE
100
AcDbLine
 10
398.14583333333337
 20
12.0
 30
0.0
 11
408.14583333333337
 21
12.0
 31
0.0
  0
LINE
  5
19D
330
17
100
AcDbEntity
  8
GR_BRIDGE
100
AcDbLine
 10
408.14583333333337
 20
12.0
 30
0.0
 11
418.14583333333337
 21
12.0
 31
0.0
  0
LINE
  5
19E
330
17
100
AcDbEntity
  8
GR_BRIDGE
100
AcDbLine
 10
418.14583333333337
 20
12.0
 30
0.0
 11
428.14583333333337
 21
12.0
 31
0.0
  0
LINE
  5
19F
330
17
100
AcDbEntity
  8
GR_BRIDGE
100
AcDbLine
 10
428.14583333333337
 20
12.0
 30
0.0
 11
438.14583333333337
 21
12.0
 31
0.0
  0
LINE
  5
1A0
330
17
100
AcDbEntity
  8
GR_BRIDGE
100
AcDbLine
 10
438.14583333333337
 20
12.0
 30
0.0
 11
448.14583333333337
 21
12.0
 31
0.0
  0
LINE
  5
1A1
330
17
100
AcDbEntity
  8
GR_BRIDGE
100
AcDbLine
 10
448.14583333333337
 20
12.0
 30
0.0
 11
458.14583333333337
 21
12.0
 31
0.0
  0
LINE
  5
1A2
330
17
100
AcDbEntity
  8
GR_BRIDGE
100
AcDbLine
 10
458.14583333333337
 20
12.0
 30
0.0
 11
468.14583333333337
 21
12.0
 31
0.0
  0
LINE
  5
1A3
330
17
100
AcDbEntity
  8
GR_BRIDGE
100
AcDbLine
 10
368.14583333333337
 20
-12.0
 30
0.0
 11
368.14583333333337
 21
12.0
 31
0.0
  0
LINE
  5
1A4
330
17
100
AcDbEntity
  8
GR_BRIDGE
100
AcDbLine
 10
468.14583333333337
 20
-12.0
 30
0.0
 11
468.14583333333337
 21
12.0
 31
0.0
  0
TEXT
  5
1A5
330
17
100
AcDbEntity
  8
GR_TEXT
100
AcDbText
 10
382.14583333333337
 20
-114.0
 30
0.0
 40
2.5
  1
BR START
  7
Engineering Regular
 11
382.14583333333337
 21
-114.0
 31
0.0
100
AcDbText
  0
LINE
  5
1A6
330
17
100
AcDbEntity
  8
GR_LEADERS
100
AcDbLine
 10
368.14583333333337
 20
-12.0
 30
0.0
 11
368.14583333333337
 21
-114.0
 31
0.0
  0
LINE
  5
1A7
330
17
100
AcDbEntity
  8
GR_LEADERS
100
AcDbLine
 10
368.14583333333337
 20
-114.0
 30
0.0
 11
380.64583333333337
 21
-114.0
 31
0.0
  0
LINE
  5
1A8
330
17
100
AcDbEntity
  8
GR_LEADERS
100
AcDbLine
 10
368.14583333333337
 20
-12.0
 30
0.0
 11
368.9458333333334
 21
-14.2
 31
0.0
  0
LINE
  5
1A9
330
17
100
AcDbEntity
  8
GR_LEADERS
100
AcDbLine
 10
368.14583333333337
 20
-12.0
 30
0.0
 11
367.34583333333336
 21
-14.2
 31
0.0
  0
TEXT
  5
1AA
330
17
100
AcDbEntity
  8
GR_TEXT
100
AcDbText
 10
482.14583333333337
 20
-114.0
 30
0.0
 40
2.5
  1
BR END
  7
Engineering Regular
 11
482.14583333333337
 21
-114.0
 31
0.0
100
AcDbText
  0
LINE
  5
1AB
330
17
100
AcDbEntity
  8
GR_LEADERS
100
AcDbLine
 10
468.14583333333337
 20
-12.0
 30
0.0
 11
468.14583333333337
 21
-114.0
 31
0.0
  0
LINE
  5
1AC
330
17
100
AcDbEntity
  8
GR_LEADERS
100
AcDbLine
 10
468.14583333333337
 20
-114.0
 30
0.0
 11
480.64583333333337
 21
-114.0
 31
0.0
  0
LINE
  5
1AD
330
17
100
AcDbEntity
  8
GR_LEADERS
100
AcDbLine
 10
468.14583333333337
 20
-12.0
 30
0.0
 11
468.9458333333334
 21
-14.2
 31
0.0
  0
LINE
  5
1AE
330
17
100
AcDbEntity
  8
GR_LEADERS
100
AcDbLine
 10
468.14583333333337
 20
-12.0
 30
0.0
 11
467.34583333333336
 21
-14.2
 31
0.0
  0
LINE
  5
1AF
330
17
100
AcDbEntity
  8
GR_GUARDRAIL
100
AcDbLine
 10
368.14583333333337
 20
22.0
 30
0.0
 11
359.07291666666674
 21
22.0
 31
0.0
  0
LINE
  5
1B0
330
17
100
AcDbEntity
  8
GR_GUARDRAIL
100
AcDbLine
 10
359.07291666666674
 20
22.0
 30
0.0
 11
350.00000000000006
 21
22.0
 31
0.0
  0
LINE
  5
1B1
330
17
100
AcDbEntity
  8
GR_GUARDRAIL
100
AcDbLine
 10
350.00000000000006
 20
22.0
 30
0.0
 11
342.96875000000006
 21
22.234375
 31
0.0
  0
LINE
  5
1B2
330
17
100
AcDbEntity
  8
GR_GUARDRAIL
100
AcDbLine
 10
342.96875000000006
 20
22.234375
 30
0.0
 11
335.93750000000006
 21
22.46875
 31
0.0
  0
LINE
  5
1B3
330
17
100
AcDbEntity
  8
GR_GUARDRAIL
100
AcDbLine
 10
335.93750000000006
 20
22.46875
 30
0.0
 11
328.90625000000006
 21
22.703125
 31
0.0
  0
LINE
  5
1B4
330
17
100
AcDbEntity
  8
GR_GUARDRAIL
100
AcDbLine
 10
328.90625000000006
 20
22.703125
 30
0.0
 11
321.87500000000006
 21
22.9375
 31
0.0
  0
LINE
  5
1B5
330
17
100
AcDbEntity
  8
GR_GUARDRAIL
100
AcDbLine
 10
321.87500000000006
 20
22.9375
 30
0.0
 11
314.84375000000006
 21
23.171875
 31
0.0
  0
LINE
  5
1B6
330
17
100
AcDbEntity
  8
GR_GUARDRAIL
100
AcDbLine
 10
314.84375000000006
 20
23.171875
 30
0.0
 11
307.81250000000006
 21
23.40625
 31
0.0
  0
LINE
  5
1B7
330
17
100
AcDbEntity
  8
GR_GUARDRAIL
100
AcDbLine
 10
307.81250000000006
 20
23.40625
 30
0.0
 11
300.78125000000006
 21
23.640625
 31
0.0
  0
LINE
  5
1B8
330
17
100
AcDbEntity
  8
GR_GUARDRAIL
100
AcDbLine
 10
300.78125000000006
 20
23.640625
 30
0.0
 11
293.75000000000006
 21
23.875
 31
0.0
  0
LINE
  5
1B9
330
17
100
AcDbEntity
  8
GR_GUARDRAIL
100
AcDbLine
 10
293.75000000000006
 20
23.875
 30
0.0
 11
286.71875000000006
 21
24.109375
 31
0.0
  0
LINE
  5
1BA
330
17
100
AcDbEntity
  8
GR_GUARDRAIL
100
AcDbLine
 10
286.71875000000006
 20
24.109375
 30
0.0
 11
279.68750000000006
 21
24.34375
 31
0.0
  0
LINE
  5
1BB
330
17
100
AcDbEntity
  8
GR_GUARDRAIL
100
AcDbLine
 10
279.68750000000006
 20
24.34375
 30
0.0
 11
272.65625000000006
 21
24.578125
 31
0.0
  0
LINE
  5
1BC
330
17
100
AcDbEntity
  8
GR_GUARDRAIL
100
AcDbLine
 10
272.65625000000006
 20
24.578125
 30
0.0
 11
265.62500000000006
 21
24.8125
 31
0.0
  0
LINE
  5
1BD
330
17
100
AcDbEntity
  8
GR_GUARDRAIL
100
AcDbLine
 10
265.62500000000006
 20
24.8125
 30
0.0
 11
258.59375000000006
 21
25.046875
 31
0.0
  0
LINE
  5
1BE
330
17
100
AcDbEntity
  8
GR_GUARDRAIL
100
AcDbLine
 10
258.59375000000006
 20
25.046875
 30
0.0
 11
251.56250000000006
 21
25.28125
 31
0.0
  0
LINE
  5
1BF
330
17
100
AcDbEntity
  8
GR_GUARDRAIL
100
AcDbLine
 10
251.56250000000006
 20
25.28125
 30
0.0
 11
244.53125000000006
 21
25.515625
 31
0.0
  0
LINE
  5
1C0
330
17
100
AcDbEntity
  8
GR_GUARDRAIL
100
AcDbLine
 10
244.53125000000006
 20
25.515625
 30
0.0
 11
237.50000000000003
 21
25.75
 31
0.0
  0
LINE
  5
1C1
330
17
100
AcDbEntity
  8
GR_TERMINAL
100
AcDbLine
 10
237.50000000000003
 20
25.75
 30
0.0
 11
234.37500000000003
 21
26.0
 31
0.0
  0
LINE
  5
1C2
330
17
100
AcDbEntity
  8
GR_TERMINAL
100
AcDbLine
 10
234.37500000000003
 20
26.0
 30
0.0
 11
231.25000000000003
 21
26.25
 31
0.0
  0
LINE
  5
1C3
330
17
100
AcDbEntity
  8
GR_TERMINAL
100
AcDbLine
 10
231.25000000000003
 20
26.25
 30
0.0
 11
228.12500000000003
 21
26.5
 31
0.0
  0
LINE
  5
1C4
330
17
100
AcDbEntity
  8
GR_TERMINAL
100
AcDbLine
 10
228.12500000000003
 20
26.5
 30
0.0
 11
225.00000000000003
 21
26.75
 31
0.0
  0
LINE
  5
1C5
330
17
100
AcDbEntity
  8
GR_TERMINAL
100
AcDbLine
 10
225.00000000000003
 20
26.75
 30
0.0
 11
221.87500000000003
 21
27.0
 31
0.0
  0
LINE
  5
1C6
330
17
100
AcDbEntity
  8
GR_TERMINAL
100
AcDbLine
 10
221.87500000000003
 20
27.0
 30
0.0
 11
218.75000000000003
 21
27.25
 31
0.0
  0
LINE
  5
1C7
330
17
100
AcDbEntity
  8
GR_TERMINAL
100
AcDbLine
 10
218.75000000000003
 20
27.25
 30
0.0
 11
215.62500000000003
 21
27.5
 31
0.0
  0
LINE
  5
1C8
330
17
100
AcDbEntity
  8
GR_TERMINAL
100
AcDbLine
 10
215.62500000000003
 20
27.5
 30
0.0
 11
212.50000000000003
 21
27.75
 31
0.0
  0
LINE
  5
1C9
330
17
100
AcDbEntity
  8
GR_GATING
100
AcDbLine
 10
212.50000000000003
 20
27.75
 30
0.0
 11
209.37500000000003
 21
28.416666666666668
 31
0.0
  0
LINE
  5
1CA
330
17
100
AcDbEntity
  8
GR_GATING
100
AcDbLine
 10
209.37500000000003
 20
28.416666666666668
 30
0.0
 11
206.25000000000003
 21
29.083333333333332
 31
0.0
  0
LINE
  5
1CB
330
17
100
AcDbEntity
  8
GR_GATING
100
AcDbLine
 10
206.25000000000003
 20
29.083333333333332
 30
0.0
 11
203.12500000000003
 21
29.75
 31
0.0
  0
LINE
  5
1CC
330
17
100
AcDbEntity
  8
GR_GATING
100
AcDbLine
 10
203.12500000000003
 20
29.75
 30
0.0
 11
200.00000000000003
 21
30.416666666666668
 31
0.0
  0
LINE
  5
1CD
330
17
100
AcDbEntity
  8
GR_GUARDRAIL_POSTS
100
AcDbLine
 10
367.8658333333334
 20
21.72
 30
0.0
 11
368.42583333333334
 21
21.72
 31
0.0
  0
LINE
  5
1CE
330
17
100
AcDbEntity
  8
GR_GUARDRAIL_POSTS
100
AcDbLine
 10
368.42583333333334
 20
21.72
 30
0.0
 11
368.42583333333334
 21
22.28
 31
0.0
  0
LINE
  5
1CF
330
17
100
AcDbEntity
  8
GR_GUARDRAIL_POSTS
100
AcDbLine
 10
368.42583333333334
 20
22.28
 30
0.0
 11
367.8658333333334
 21
22.28
 31
0.0
  0
LINE
  5
1D0
330
17
100
AcDbEntity
  8
GR_GUARDRAIL_POSTS
100
AcDbLine
 10
367.8658333333334
 20
22.28
 30
0.0
 11
367.8658333333334
 21
21.72
 31
0.0
  0
LINE
  5
1D1
330
17
100
AcDbEntity
  8
GR_GUARDRAIL_POSTS
100
AcDbLine
 10
361.6158333333334
 20
21.72
 30
0.0
 11
362.17583333333334
 21
21.72
 31
0.0
  0
LINE
  5
1D2
330
17
100
AcDbEntity
  8
GR_GUARDRAIL_POSTS
100
AcDbLine
 10
362.17583333333334
 20
21.72
 30
0.0
 11
362.17583333333334
 21
22.28
 31
0.0
  0
LINE
  5
1D3
330
17
100
AcDbEntity
  8
GR_GUARDRAIL_POSTS
100
AcDbLine
 10
362.17583333333334
 20
22.28
 30
0.0
 11
361.6158333333334
 21
22.28
 31
0.0
  0
LINE
  5
1D4
330
17
100
AcDbEntity
  8
GR_GUARDRAIL_POSTS
100
AcDbLine
 10
361.6158333333334
 20
22.28
 30
0.0
 11
361.6158333333334
 21
21.72
 31
0.0
  0
LINE
  5
1D5
330
17
100
AcDbEntity
  8
GR_GUARDRAIL_POSTS
100
AcDbLine
 10
355.3658333333334
 20
21.72
 30
0.0
 11
355.92583333333334
 21
21.72
 31
0.0
  0
LINE
  5
1D6
330
17
100
AcDbEntity
  8
GR_GUARDRAIL_POSTS
100
AcDbLine
 10
355.92583333333334
 20
21.72
 30
0.0
 11
355.92583333333334
 21
22.28
 31
0.0
  0
LINE
  5
1D7
330
17
100
AcDbEntity
  8
GR_GUARDRAIL_POSTS
100
AcDbLine
 10
355.92583333333334
 20
22.28
 30
0.0
 11
355.3658333333334
 21
22.28
 31
0.0
  0
LINE
  5
1D8
330
17
100
AcDbEntity
  8
GR_GUARDRAIL_POSTS
100
AcDbLine
 10
355.3658333333334
 20
22.28
 30
0.0
 11
355.3658333333334
 21
21.72
 31
0.0
  0
LINE
  5
1D9
330
17
100
AcDbEntity
  8
GR_GUARDRAIL_POSTS
100
AcDbLine
 10
349.1158333333334
 20
21.740138888888886
 30
0.0
 11
349.67583333333334
 21
21.740138888888886
 31
0.0
  0
LINE
  5
1DA
330
17
100
AcDbEntity
  8
GR_GUARDRAIL_POSTS
100
AcDbLine
 10
349.67583333333334
 20
21.740138888888886
 30
0.0
 11
349.67583333333334
 21
22.30013888888889
 31
0.0
  0
LINE
  5
1DB
330
17
100
AcDbEntity
  8
GR_GUARDRAIL_POSTS
100
AcDbLine
 10
349.67583333333334
 20
22.30013888888889
 30
0.0
 11
349.1158333333334
 21
22.30013888888889
 31
0.0
  0
LINE
  5
1DC
330
17
100
AcDbEntity
  8
GR_GUARDRAIL_POSTS
100
AcDbLine
 10
349.1158333333334
 20
22.30013888888889
 30
0.0
 11
349.1158333333334
 21
21.740138888888886
 31
0.0
  0
LINE
  5
1DD
330
17
100
AcDbEntity
  8
GR_GUARDRAIL_POSTS
100
AcDbLine
 10
342.8658333333334
 20
21.94847222222222
 30
0.0
 11
343.42583333333334
 21
21.94847222222222
 31
0.0
  0
LINE
  5
1DE
330
17
100
AcDbEntity
  8
GR_GUARDRAIL_POSTS
100
AcDbLine
 10
343.42583333333334
 20
21.94847222222222
 30
0.0
 11
343.42583333333334
 21
22.508472222222224
 31
0.0
  0
LINE
  5
1DF
330
17
100
AcDbEntity
  8
GR_GUARDRAIL_POSTS
100
AcDbLine
 10
343.42583333333334
 20
22.508472222222224
 30
0.0
 11
342.8658333333334
 21
22.508472222222224
 31
0.0
  0
LINE
  5
1E0
330
17
100
AcDbEntity
  8
GR_GUARDRAIL_POSTS
100
AcDbLine
 10
342.8658333333334
 20
22.508472222222224
 30
0.0
 11
342.8658333333334
 21
21.94847222222222
 31
0.0
  0
LINE
  5
1E1
330
17
100
AcDbEntity
  8
GR_GUARDRAIL_POSTS
100
AcDbLine
 10
336.6158333333334
 20
22.156805555555554
 30
0.0
 11
337.17583333333334
 21
22.156805555555554
 31
0.0
  0
LINE
  5
1E2
330
17
100
AcDbEntity
  8
GR_GUARDRAIL_POSTS
100
AcDbLine
 10
337.17583333333334
 20
22.156805555555554
 30
0.0
 11
337.17583333333334
 21
22.716805555555556
 31
0.0
  0
LINE
  5
1E3
330
17
100
AcDbEntity
  8
GR_GUARDRAIL_POSTS
100
AcDbLine
 10
337.17583333333334
 20
22.716805555555556
 30
0.0
 11
336.6158333333334
 21
22.716805555555556
 31
0.0
  0
LINE
  5
1E4
330
17
100
AcDbEntity
  8
GR_GUARDRAIL_POSTS
100
AcDbLine
 10
336.6158333333334
 20
22.716805555555556
 30
0.0
 11
336.6158333333334
 21
22.156805555555554
 31
0.0
  0
LINE
  5
1E5
330
17
100
AcDbEntity
  8
GR_GUARDRAIL_POSTS
100
AcDbLine
 10
330.3658333333334
 20
22.365138888888886
 30
0.0
 11
330.92583333333334
 21
22.365138888888886
 31
0.0
  0
LINE
  5
1E6
330
17
100
AcDbEntity
  8
GR_GUARDRAIL_POSTS
100
AcDbLine
 10
330.92583333333334
 20
22.365138888888886
 30
0.0
 11
330.92583333333334
 21
22.92513888888889
 31
0.0
  0
LINE
  5
1E7
330
17
100
AcDbEntity
  8
GR_GUARDRAIL_POSTS
100
AcDbLine
 10
330.92583333333334
 20
22.92513888888889
 30
0.0
 11
330.3658333333334
 21
22.92513888888889
 31
0.0
  0
LINE
  5
1E8
330
17
100
AcDbEntity
  8
GR_GUARDRAIL_POSTS
100
AcDbLine
 10
330.3658333333334
 20
22.92513888888889
 30
0.0
 11
330.3658333333334
 21
22.365138888888886
 31
0.0
  0
LINE
  5
1E9
330
17
100
AcDbEntity
  8
GR_GUARDRAIL_POSTS
100
AcDbLine
 10
324.1158333333334
 20
22.57347222222222
 30
0.0
 11
324.67583333333334
 21
22.57347222222222
 31
0.0
  0
LINE
  5
1EA
330
17
100
AcDbEntity
  8
GR_GUARDRAIL_POSTS
100
AcDbLine
 10
324.67583333333334
 20
22.57347222222222
 30
0.0
 11
324.67583333333334
 21
23.133472222222224
 31
0.0
  0
LINE
  5
1EB
330
17
100
AcDbEntity
  8
GR_GUARDRAIL_POSTS
100
AcDbLine
 10
324.67583333333334
 20
23.133472222222224
 30
0.0
 11
324.1158333333334
 21
23.133472222222224
 31
0.0
  0
LINE
  5
1EC
330
17
100
AcDbEntity
  8
GR_GUARDRAIL_POSTS
100
AcDbLine
 10
324.1158333333334
 20
23.133472222222224
 30
0.0
 11
324.1158333333334
 21
22.57347222222222
 31
0.0
  0
LINE
  5
1ED
330
17
100
AcDbEntity
  8
GR_GUARDRAIL_POSTS
100
AcDbLine
 10
317.8658333333334
 20
22.781805555555554
 30
0.0
 11
318.42583333333334
 21
22.781805555555554
 31
0.0
  0
LINE
  5
1EE
330
17
100
AcDbEntity
  8
GR_GUARDRAIL_POSTS
100
AcDbLine
 10
318.42583333333334
 20
22.781805555555554
 30
0.0
 11
318.42583333333334
 21
23.341805555555556
 31
0.0
  0
LINE
  5
1EF
330
17
100
AcDbEntity
  8
GR_GUARDRAIL_POSTS
100
AcDbLine
 10
318.42583333333334
 20
23.341805555555556
 30
0.0
 11
317.8658333333334
 21
23.341805555555556
 31
0.0
  0
LINE
  5
1F0
330
17
100
AcDbEntity
  8
GR_GUARDRAIL_POSTS
100
AcDbLine
 10
317.8658333333334
 20
23.341805555555556
 30
0.0
 11
317.8658333333334
 21
22.781805555555554
 31
0.0
  0
LINE
  5
1F1
330
17
100
AcDbEntity
  8
GR_GUARDRAIL_POSTS
100
AcDbLine
 10
311.6158333333334
 20
22.99013888888889
 30
0.0
 11
312.17583333333334
 21
22.99013888888889
 31
0.0
  0
LINE
  5
1F2
330
17
100
AcDbEntity
  8
GR_GUARDRAIL_POSTS
100
AcDbLine
 10
312.17583333333334
 20
22.99013888888889
 30
0.0
 11
312.17583333333334
 21
23.550138888888892
 31
0.0
  0
LINE
  5
1F3
330
17
100
AcDbEntity
  8
GR_GUARDRAIL_POSTS
100
AcDbLine
 10
312.17583333333334
 20
23.550138888888892
 30
0.0
 11
311.6158333333334
 21
23.550138888888892
 31
0.0
  0
LINE
  5
1F4
330
17
100
AcDbEntity
  8
GR_GUARDRAIL_POSTS
100
AcDbLine
 10
311.6158333333334
 20
23.550138888888892
 30
0.0
 11
311.6158333333334
 21
22.99013888888889
 31
0.0
  0
LINE
  5
1F5
330
17
100
AcDbEntity
  8
GR_GUARDRAIL_POSTS
100
AcDbLine
 10
305.3658333333334
 20
23.19847222222222
 30
0.0
 11
305.92583333333334
 21
23.19847222222222
 31
0.0
  0
LINE
  5
1F6
330
17
100
AcDbEntity
  8
GR_GUARDRAIL_POSTS
100
AcDbLine
 10
305.92583333333334
 20
23.19847222222222
 30
0.0
 11
305.92583333333334
 21
23.758472222222224
 31
0.0
  0
LINE
  5
1F7
330
17
100
AcDbEntity
  8
GR_GUARDRAIL_POSTS
100
AcDbLine
 10
305.92583333333334
 20
23.758472222222224
 30
0.0
 11
305.3658333333334
 21
23.758472222222224
 31
0.0
  0
LINE
  5
1F8
330
17
100
AcDbEntity
  8
GR_GUARDRAIL_POSTS
100
AcDbLine
 10
305.3658333333334
 20
23.758472222222224
 30
0.0
 11
305.3658333333334
 21
23.19847222222222
 31
0.0
  0
LINE
  5
1F9
330
17
100
AcDbEntity
  8
GR_GUARDRAIL_POSTS
100
AcDbLine
 10
299.1158333333334
 20
23.406805555555554
 30
0.0
 11
299.67583333333334
 21
23.406805555555554
 31
0.0
  0
LINE
  5
1FA
330
17
100
AcDbEntity
  8
GR_GUARDRAIL_POSTS
100
AcDbLine
 10
299.67583333333334
 20
23.406805555555554
 30
0.0
 11
299.67583333333334
 21
23.966805555555556
 31
0.0
  0
LINE
  5
1FB
330
17
100
AcDbEntity
  8
GR_GUARDRAIL_POSTS
100
AcDbLine
 10
299.67583333333334
 20
23.966805555555556
 30
0.0
 11
299.1158333333334
 21
23.966805555555556
 31
0.0
  0
LINE
  5
1FC
330
17
100
AcDbEntity
  8
GR_GUARDRAIL_POSTS
100
AcDbLine
 10
299.1158333333334
 20
23.966805555555556
 30
0.0
 11
299.1158333333334
 21
23.406805555555554
 31
0.0
  0
LINE
  5
1FD
330
17
100
AcDbEntity
  8
GR_GUARDRAIL_POSTS
100
AcDbLine
 10
292.8658333333334
 20
23.61513888888889
 30
0.0
 11
293.42583333333334
 21
23.61513888888889
 31
0.0
  0
LINE
  5
1FE
330
17
100
AcDbEntity
  8
GR_GUARDRAIL_POSTS
100
AcDbLine
 10
293.42583333333334
 20
23.61513888888889
 30
0.0
 11
293.42583333333334
 21
24.175138888888892
 31
0.0
  0
LINE
  5
1FF
330
17
100
AcDbEntity
  8
GR_GUARDRAIL_POSTS
100
AcDbLine
 10
293.42583333333334
 20
24.175138888888892
 30
0.0
 11
292.8658333333334
 21
24.175138888888892
 31
0.0
  0
LINE
  5
200
330
17
100
AcDbEntity
  8
GR_GUARDRAIL_POSTS
100
AcDbLine
 10
292.8658333333334
 20
24.175138888888892
 30
0.0
 11
292.8658333333334
 21
23.61513888888889
 31
0.0
  0
LINE
  5
201
330
17
100
AcDbEntity
  8
GR_GUARDRAIL_POSTS
100
AcDbLine
 10
286.6158333333334
 20
23.82347222222222
 30
0.0
 11
287.17583333333334
 21
23.82347222222222
 31
0.0
  0
LINE
  5
202
330
17
100
AcDbEntity
  8
GR_GUARDRAIL_POSTS
100
AcDbLine
 10
287.17583333333334
 20
23.82347222222222
 30
0.0
 11
287.17583333333334
 21
24.383472222222224
 31
0.0
  0
LINE
  5
203
330
17
100
AcDbEntity
  8
GR_GUARDRAIL_POSTS
100
AcDbLine
 10
287.17583333333334
 20
24.383472222222224
 30
0.0
 11
286.6158333333334
 21
24.383472222222224
 31
0.0
  0
LINE
  5
204
330
17
100
AcDbEntity
  8
GR_GUARDRAIL_POSTS
100
AcDbLine
 10
286.6158333333334
 20
24.383472222222224
 30
0.0
 11
286.6158333333334
 21
23.82347222222222
 31
0.0
  0
LINE
  5
205
330
17
100
AcDbEntity
  8
GR_GUARDRAIL_POSTS
100
AcDbLine
 10
280.3658333333334
 20
24.031805555555554
 30
0.0
 11
280.92583333333334
 21
24.031805555555554
 31
0.0
  0
LINE
  5
206
330
17
100
AcDbEntity
  8
GR_GUARDRAIL_POSTS
100
AcDbLine
 10
280.92583333333334
 20
24.031805555555554
 30
0.0
 11
280.92583333333334
 21
24.591805555555556
 31
0.0
  0
LINE
  5
207
330
17
100
AcDbEntity
  8
GR_GUARDRAIL_POSTS
100
AcDbLine
 10
280.92583333333334
 20
24.591805555555556
 30
0.0
 11
280.3658333333334
 21
24.591805555555556
 31
0.0
  0
LINE
  5
208
330
17
100
AcDbEntity
  8
GR_GUARDRAIL_POSTS
100
AcDbLine
 10
280.3658333333334
 20
24.591805555555556
 30
0.0
 11
280.3658333333334
 21
24.031805555555554
 31
0.0
  0
LINE
  5
209
330
17
100
AcDbEntity
  8
GR_GUARDRAIL_POSTS
100
AcDbLine
 10
274.1158333333334
 20
24.240138888888886
 30
0.0
 11
274.67583333333334
 21
24.240138888888886
 31
0.0
  0
LINE
  5
20A
330
17
100
AcDbEntity
  8
GR_GUARDRAIL_POSTS
100
AcDbLine
 10
274.67583333333334
 20
24.240138888888886
 30
0.0
 11
274.67583333333334
 21
24.80013888888889
 31
0.0
  0
LINE
  5
20B
330
17
100
AcDbEntity
  8
GR_GUARDRAIL_POSTS
100
AcDbLine
 10
274.67583333333334
 20
24.80013888888889
 30
0.0
 11
274.1158333333334
 21
24.80013888888889
 31
0.0
  0
LINE
  5
20C
330
17
100
AcDbEntity
  8
GR_GUARDRAIL_POSTS
100
AcDbLine
 10
274.1158333333334
 20
24.80013888888889
 30
0.0
 11
274.1158333333334
 21
24.240138888888886
 31
0.0
  0
LINE
  5
20D
330
17
100
AcDbEntity
  8
GR_GUARDRAIL_POSTS
100
AcDbLine
 10
267.8658333333334
 20
24.44847222222222
 30
0.0
 11
268.42583333333334
 21
24.44847222222222
 31
0.0
  0
LINE
  5
20E
330
17
100
AcDbEntity
  8
GR_GUARDRAIL_POSTS
100
AcDbLine
 10
268.42583333333334
 20
24.44847222222222
 30
0.0
 11
268.42583333333334
 21
25.008472222222224
 31
0.0
  0
LINE
  5
20F
330
17
100
AcDbEntity
  8
GR_GUARDRAIL_POSTS
100
AcDbLine
 10
268.42583333333334
 20
25.008472222222224
 30
0.0
 11
267.8658333333334
 21
25.008472222222224
 31
0.0
  0
LINE
  5
210
330
17
100
AcDbEntity
  8
GR_GUARDRAIL_POSTS
100
AcDbLine
 10
267.8658333333334
 20
25.008472222222224
 30
0.0
 11
267.8658333333334
 21
24.44847222222222
 31
0.0
  0
LINE
  5
211
330
17
100
AcDbEntity
  8
GR_GUARDRAIL_POSTS
100
AcDbLine
 10
261.6158333333334
 20
24.656805555555554
 30
0.0
 11
262.17583333333334
 21
24.656805555555554
 31
0.0
  0
LINE
  5
212
330
17
100
AcDbEntity
  8
GR_GUARDRAIL_POSTS
100
AcDbLine
 10
262.17583333333334
 20
24.656805555555554
 30
0.0
 11
262.17583333333334
 21
25.216805555555556
 31
0.0
  0
LINE
  5
213
330
17
100
AcDbEntity
  8
GR_GUARDRAIL_POSTS
100
AcDbLine
 10
262.17583333333334
 20
25.216805555555556
 30
0.0
 11
261.6158333333334
 21
25.216805555555556
 31
0.0
  0
LINE
  5
214
330
17
100
AcDbEntity
  8
GR_GUARDRAIL_POSTS
100
AcDbLine
 10
261.6158333333334
 20
25.216805555555556
 30
0.0
 11
261.6158333333334
 21
24.656805555555554
 31
0.0
  0
LINE
  5
215
330
17
100
AcDbEntity
  8
GR_GUARDRAIL_POSTS
100
AcDbLine
 10
255.36583333333337
 20
24.865138888888886
 30
0.0
 11
255.92583333333337
 21
24.865138888888886
 31
0.0
  0
LINE
  5
216
330
17
100
AcDbEntity
  8
GR_GUARDRAIL_POSTS
100
AcDbLine
 10
255.92583333333337
 20
24.865138888888886
 30
0.0
 11
255.92583333333337
 21
25.42513888888889
 31
0.0
  0
LINE
  5
217
330
17
100
AcDbEntity
  8
GR_GUARDRAIL_POSTS
100
AcDbLine
 10
255.92583333333337
 20
25.42513888888889
 30
0.0
 11
255.36583333333337
 21
25.42513888888889
 31
0.0
  0
LINE
  5
218
330
17
100
AcDbEntity
  8
GR_GUARDRAIL_POSTS
100
AcDbLine
 10
255.36583333333337
 20
25.42513888888889
 30
0.0
 11
255.36583333333337
 21
24.865138888888886
 31
0.0
  0
LINE
  5
219
330
17
100
AcDbEntity
  8
GR_GUARDRAIL_POSTS
100
AcDbLine
 10
249.11583333333337
 20
25.07347222222222
 30
0.0
 11
249.67583333333337
 21
25.07347222222222
 31
0.0
  0
LINE
  5
21A
330
17
100
AcDbEntity
  8
GR_GUARDRAIL_POSTS
100
AcDbLine
 10
249.67583333333337
 20
25.07347222222222
 30
0.0
 11
249.67583333333337
 21
25.633472222222224
 31
0.0
  0
LINE
  5
21B
330
17
100
AcDbEntity
  8
GR_GUARDRAIL_POSTS
100
AcDbLine
 10
249.67583333333337
 20
25.633472222222224
 30
0.0
 11
249.11583333333337
 21
25.633472222222224
 31
0.0
  0
LINE
  5
21C
330
17
100
AcDbEntity
  8
GR_GUARDRAIL_POSTS
100
AcDbLine
 10
249.11583333333337
 20
25.633472222222224
 30
0.0
 11
249.11583333333337
 21
25.07347222222222
 31
0.0
  0
LINE
  5
21D
330
17
100
AcDbEntity
  8
GR_GUARDRAIL_POSTS
100
AcDbLine
 10
242.86583333333337
 20
25.281805555555554
 30
0.0
 11
243.42583333333337
 21
25.281805555555554
 31
0.0
  0
LINE
  5
21E
330
17
100
AcDbEntity
  8
GR_GUARDRAIL_POSTS
100
AcDbLine
 10
243.42583333333337
 20
25.281805555555554
 30
0.0
 11
243.42583333333337
 21
25.841805555555556
 31
0.0
  0
LINE
  5
21F
330
17
100
AcDbEntity
  8
GR_GUARDRAIL_POSTS
100
AcDbLine
 10
243.42583333333337
 20
25.841805555555556
 30
0.0
 11
242.86583333333337
 21
25.841805555555556
 31
0.0
  0
LINE
  5
220
330
17
100
AcDbEntity
  8
GR_GUARDRAIL_POSTS
100
AcDbLine
 10
242.86583333333337
 20
25.841805555555556
 30
0.0
 11
242.86583333333337
 21
25.281805555555554
 31
0.0
  0
LINE
  5
221
330
17
100
AcDbEntity
  8
GR_GUARDRAIL_POSTS
100
AcDbLine
 10
236.61583333333337
 20
25.51833333333333
 30
0.0
 11
237.17583333333337
 21
25.51833333333333
 31
0.0
  0
LINE
  5
222
330
17
100
AcDbEntity
  8
GR_GUARDRAIL_POSTS
100
AcDbLine
 10
237.17583333333337
 20
25.51833333333333
 30
0.0
 11
237.17583333333337
 21
26.078333333333333
 31
0.0
  0
LINE
  5
223
330
17
100
AcDbEntity
  8
GR_GUARDRAIL_POSTS
100
AcDbLine
 10
237.17583333333337
 20
26.078333333333333
 30
0.0
 11
236.61583333333337
 21
26.078333333333333
 31
0.0
  0
LINE
  5
224
330
17
100
AcDbEntity
  8
GR_GUARDRAIL_POSTS
100
AcDbLine
 10
236.61583333333337
 20
26.078333333333333
 30
0.0
 11
236.61583333333337
 21
25.51833333333333
 31
0.0
  0
LINE
  5
225
330
17
100
AcDbEntity
  8
GR_GUARDRAIL_POSTS
100
AcDbLine
 10
230.36583333333337
 20
26.01833333333333
 30
0.0
 11
230.92583333333337
 21
26.01833333333333
 31
0.0
  0
LINE
  5
226
330
17
100
AcDbEntity
  8
GR_GUARDRAIL_POSTS
100
AcDbLine
 10
230.92583333333337
 20
26.01833333333333
 30
0.0
 11
230.92583333333337
 21
26.578333333333333
 31
0.0
  0
LINE
  5
227
330
17
100
AcDbEntity
  8
GR_GUARDRAIL_POSTS
100
AcDbLine
 10
230.92583333333337
 20
26.578333333333333
 30
0.0
 11
230.36583333333337
 21
26.578333333333333
 31
0.0
  0
LINE
  5
228
330
17
100
AcDbEntity
  8
GR_GUARDRAIL_POSTS
100
AcDbLine
 10
230.36583333333337
 20
26.578333333333333
 30
0.0
 11
230.36583333333337
 21
26.01833333333333
 31
0.0
  0
LINE
  5
229
330
17
100
AcDbEntity
  8
GR_GUARDRAIL_POSTS
100
AcDbLine
 10
224.11583333333337
 20
26.51833333333333
 30
0.0
 11
224.67583333333337
 21
26.51833333333333
 31
0.0
  0
LINE
  5
22A
330
17
100
AcDbEntity
  8
GR_GUARDRAIL_POSTS
100
AcDbLine
 10
224.67583333333337
 20
26.51833333333333
 30
0.0
 11
224.67583333333337
 21
27.078333333333333
 31
0.0
  0
LINE
  5
22B
330
17
100
AcDbEntity
  8
GR_GUARDRAIL_POSTS
100
AcDbLine
 10
224.67583333333337
 20
27.078333333333333
 30
0.0
 11
224.11583333333337
 21
27.078333333333333
 31
0.0
  0
LINE
  5
22C
330
17
100
AcDbEntity
  8
GR_GUARDRAIL_POSTS
100
AcDbLine
 10
224.11583333333337
 20
27.078333333333333
 30
0.0
 11
224.11583333333337
 21
26.51833333333333
 31
0.0
  0
LINE
  5
22D
330
17
100
AcDbEntity
  8
GR_GUARDRAIL_POSTS
100
AcDbLine
 10
217.86583333333337
 20
27.01833333333333
 30
0.0
 11
218.42583333333337
 21
27.01833333333333
 31
0.0
  0
LINE
  5
22E
330
17
100
AcDbEntity
  8
GR_GUARDRAIL_POSTS
100
AcDbLine
 10
218.42583333333337
 20
27.01833333333333
 30
0.0
 11
218.42583333333337
 21
27.578333333333333
 31
0.0
  0
LINE
  5
22F
330
17
100
AcDbEntity
  8
GR_GUARDRAIL_POSTS
100
AcDbLine
 10
218.42583333333337
 20
27.578333333333333
 30
0.0
 11
217.86583333333337
 21
27.578333333333333
 31
0.0
  0
LINE
  5
230
330
17
100
AcDbEntity
  8
GR_GUARDRAIL_POSTS
100
AcDbLine
 10
217.86583333333337
 20
27.578333333333333
 30
0.0
 11
217.86583333333337
 21
27.01833333333333
 31
0.0
  0
LINE
  5
231
330
17
100
AcDbEntity
  8
GR_GUARDRAIL_POSTS
100
AcDbLine
 10
211.61583333333337
 20
27.598888888888887
 30
0.0
 11
212.17583333333337
 21
27.598888888888887
 31
0.0
  0
LINE
  5
232
330
17
100
AcDbEntity
  8
GR_GUARDRAIL_POSTS
100
AcDbLine
 10
212.17583333333337
 20
27.598888888888887
 30
0.0
 11
212.17583333333337
 21
28.15888888888889
 31
0.0
  0
LINE
  5
233
330
17
100
AcDbEntity
  8
GR_GUARDRAIL_POSTS
100
AcDbLine
 10
212.17583333333337
 20
28.15888888888889
 30
0.0
 11
211.61583333333337
 21
28.15888888888889
 31
0.0
  0
LINE
  5
234
330
17
100
AcDbEntity
  8
GR_GUARDRAIL_POSTS
100
AcDbLine
 10
211.61583333333337
 20
28.15888888888889
 30
0.0
 11
211.61583333333337
 21
27.598888888888887
 31
0.0
  0
LINE
  5
235
330
17
100
AcDbEntity
  8
GR_GUARDRAIL_POSTS
100
AcDbLine
 10
205.36583333333337
 20
28.93222222222222
 30
0.0
 11
205.92583333333337
 21
28.93222222222222
 31
0.0
  0
LINE
  5
236
330
17
100
AcDbEntity
  8
GR_GUARDRAIL_POSTS
100
AcDbLine
 10
205.92583333333337
 20
28.93222222222222
 30
0.0
 11
205.92583333333337
 21
29.49222222222222
 31
0.0
  0
LINE
  5
237
330
17
100
AcDbEntity
  8
GR_GUARDRAIL_POSTS
100
AcDbLine
 10
205.92583333333337
 20
29.49222222222222
 30
0.0
 11
205.36583333333337
 21
29.49222222222222
 31
0.0
  0
LINE
  5
238
330
17
100
AcDbEntity
  8
GR_GUARDRAIL_POSTS
100
AcDbLine
 10
205.36583333333337
 20
29.49222222222222
 30
0.0
 11
205.36583333333337
 21
28.93222222222222
 31
0.0
  0
LINE
  5
239
330
17
100
AcDbEntity
  8
GR_SHOULDER_FLARE
100
AcDbLine
 10
368.14583333333337
 20
25.0
 30
0.0
 11
350.00000000000006
 21
25.0
 31
0.0
  0
LINE
  5
23A
330
17
100
AcDbEntity
  8
GR_SHOULDER_FLARE
100
AcDbLine
 10
350.00000000000006
 20
25.0
 30
0.0
 11
237.50000000000003
 21
28.75
 31
0.0
  0
LINE
  5
23B
330
17
100
AcDbEntity
  8
GR_SHOULDER_FLARE
100
AcDbLine
 10
237.50000000000003
 20
28.75
 30
0.0
 11
212.50000000000003
 21
31.416666666666668
 31
0.0
  0
LINE
  5
23C
330
17
100
AcDbEntity
  8
GR_SHOULDER_FLARE
100
AcDbLine
 10
212.50000000000003
 20
31.416666666666668
 30
0.0
 11
200.00000000000003
 21
34.41666666666667
 31
0.0
  0
LINE
  5
23D
330
17
100
AcDbEntity
  8
GR_SHOULDER_FLARE
100
AcDbLine
 10
200.00000000000003
 20
34.41666666666667
 30
0.0
 11
50.0
 21
12.0
 31
0.0
  0
LINE
  5
23E
330
17
100
AcDbEntity
  8
GR_SHOULDER_FLARE
100
AcDbLine
 10
116.91449814126395
 20
22.0
 30
0.0
 11
0.0
 21
22.0
 31
0.0
  0
LINE
  5
23F
330
17
100
AcDbEntity
  8
GR_FORESLOPE_W
100
AcDbLine
 10
0.0
 20
42.0
 30
0.0
 11
200.00000000000003
 21
42.0
 31
0.0
  0
LINE
  5
240
330
17
100
AcDbEntity
  8
GR_FORESLOPE_W
100
AcDbLine
 10
200.00000000000003
 20
42.0
 30
0.0
 11
275.0
 21
27.5
 31
0.0
  0
TEXT
  5
241
330
17
100
AcDbEntity
  8
GR_TEXT
100
AcDbText
 10
145.00000000000003
 20
47.0
 30
0.0
 40
2.5
  1
LA = 30.00'
  7
Engineering Regular
 11
145.00000000000003
 21
47.0
 31
0.0
100
AcDbText
  0
LINE
  5
242
330
17
100
AcDbEntity
  8
GR_DIMENSION
100
AcDbLine
 10
368.14583333333337
 20
60.0
 30
0.0
 11
212.50000000000003
 21
60.0
 31
0.0
  0
LINE
  5
243
330
17
100
AcDbEntity
  8
GR_DIMENSION
100
AcDbLine
 10
368.14583333333337
 20
58.0
 30
0.0
 11
368.14583333333337
 21
62.0
 31
0.0
  0
LINE
  5
244
330
17
100
AcDbEntity
  8
GR_DIMENSION
100
AcDbLine
 10
212.50000000000003
 20
58.0
 30
0.0
 11
212.50000000000003
 21
62.0
 31
0.0
  0
TEXT
  5
245
330
17
100
AcDbEntity
  8
GR_TEXT
100
AcDbText
 10
290.3229166666667
 20
64.0
 30
0.0
 40
2.5
  1
A = 155.65'
  7
Engineering Regular
 72
1
 11
290.3229166666667
 21
64.0
 31
0.0
100
AcDbText
 73
2
  0
LINE
  5
246
330
17
100
AcDbEntity
  8
GR_DIMENSION
100
AcDbLine
 10
350.00000000000006
 20
69.0
 30
0.0
 11
237.50000000000003
 21
69.0
 31
0.0
  0
LINE
  5
247
330
17
100
AcDbEntity
  8
GR_DIMENSION
100
AcDbLine
 10
350.00000000000006
 20
67.0
 30
0.0
 11
350.00000000000006
 21
71.0
 31
0.0
  0
LINE
  5
248
330
17
100
AcDbEntity
  8
GR_DIMENSION
100
AcDbLine
 10
237.50000000000003
 20
67.0
 30
0.0
 11
237.50000000000003
 21
71.0
 31
0.0
  0
TEXT
  5
249
330
17
100
AcDbEntity
  8
GR_TEXT
100
AcDbText
 10
293.75000000000006
 20
73.0
 30
0.0
 40
2.5
  1
B = 112.50'
  7
Engineering Regular
 72
1
 11
293.75000000000006
 21
73.0
 31
0.0
100
AcDbText
 73
2
  0
LINE
  5
24A
330
17
100
AcDbEntity
  8
GR_DIMENSION
100
AcDbLine
 10
237.50000000000003
 20
78.0
 30
0.0
 11
212.50000000000003
 21
78.0
 31
0.0
  0
LINE
  5
24B
330
17
100
AcDbEntity
  8
GR_DIMENSION
100
AcDbLine
 10
237.50000000000003
 20
76.0
 30
0.0
 11
237.50000000000003
 21
80.0
 31
0.0
  0
LINE
  5
24C
330
17
100
AcDbEntity
  8
GR_DIMENSION
100
AcDbLine
 10
212.50000000000003
 20
76.0
 30
0.0
 11
212.50000000000003
 21
80.0
 31
0.0
  0
TEXT
  5
24D
330
17
100
AcDbEntity
  8
GR_TEXT
100
AcDbText
 10
225.00000000000003
 20
82.0
 30
0.0
 40
2.5
  1
TERMINAL = 25.00'
  7
Engineering Regular
 72
1
 11
225.00000000000003
 21
82.0
 31
0.0
100
AcDbText
 73
2
  0
LINE
  5
24E
330
17
100
AcDbEntity
  8
GR_DIMENSION
100
AcDbLine
 10
212.50000000000003
 20
87.0
 30
0.0
 11
200.00000000000003
 21
87.0
 31
0.0
  0
LINE
  5
24F
330
17
100
AcDbEntity
  8
GR_DIMENSION
100
AcDbLine
 10
212.50000000000003
 20
85.0
 30
0.0
 11
212.50000000000003
 21
89.0
 31
0.0
  0
LINE
  5
250
330
17
100
AcDbEntity
  8
GR_DIMENSION
100
AcDbLine
 10
200.00000000000003
 20
85.0
 30
0.0
 11
200.00000000000003
 21
89.0
 31
0.0
  0
TEXT
  5
251
330
17
100
AcDbEntity
  8
GR_TEXT
100
AcDbText
 10
206.25000000000003
 20
91.0
 30
0.0
 40
2.5
  1
GATING = 12.50'
  7
Engineering Regular
 72
1
 11
206.25000000000003
 21
91.0
 31
0.0
100
AcDbText
 73
2
  0
LINE
  5
252
330
17
100
AcDbEntity
  8
GR_DIMENSION
100
AcDbLine
 10
275.0
 20
96.0
 30
0.0
 11
200.00000000000003
 21
96.0
 31
0.0
  0
LINE
  5
253
330
17
100
AcDbEntity
  8
GR_DIMENSION
100
AcDbLine
 10
275.0
 20
94.0
 30
0.0
 11
275.0
 21
98.0
 31
0.0
  0
LINE
  5
254
330
17
100
AcDbEntity
  8
GR_DIMENSION
100
AcDbLine
 10
200.00000000000003
 20
94.0
 30
0.0
 11
200.00000000000003
 21
98.0
 31
0.0
  0
TEXT
  5
255
330
17
100
AcDbEntity
  8
GR_TEXT
100
AcDbText
 10
237.5
 20
100.0
 30
0.0
 40
2.5
  1
CZ = 75.00'
  7
Engineering Regular
 72
1
 11
237.5
 21
100.0
 31
0.0
100
AcDbText
 73
2
  0
LINE
  5
256
330
17
100
AcDbEntity
  8
GR_DIMENSION
100
AcDbLine
 10
200.00000000000003
 20
105.0
 30
0.0
 11
50.0
 21
105.0
 31
0.0
  0
LINE
  5
257
330
17
100
AcDbEntity
  8
GR_DIMENSION
100
AcDbLine
 10
200.00000000000003
 20
103.0
 30
0.0
 11
200.00000000000003
 21
107.0
 31
0.0
  0
LINE
  5
258
330
17
100
AcDbEntity
  8
GR_DIMENSION
100
AcDbLine
 10
50.0
 20
103.0
 30
0.0
 11
50.0
 21
107.0
 31
0.0
  0
TEXT
  5
259
330
17
100
AcDbEntity
  8
GR_TEXT
100
AcDbText
 10
125.00000000000001
 20
109.0
 30
0.0
 40
2.5
  1
SHLDR = 150.00'
  7
Engineering Regular
 72
1
 11
125.00000000000001
 21
109.0
 31
0.0
100
AcDbText
 73
2
  0
LINE
  5
25A
330
17
100
AcDbEntity
  8
GR_GUARDRAIL
100
AcDbLine
 10
368.14583333333337
 20
-22.0
 30
0.0
 11
359.07291666666674
 21
-22.0
 31
0.0
  0
LINE
  5
25B
330
17
100
AcDbEntity
  8
GR_GUARDRAIL
100
AcDbLine
 10
359.07291666666674
 20
-22.0
 30
0.0
 11
350.00000000000006
 21
-22.0
 31
0.0
  0
LINE
  5
25C
330
17
100
AcDbEntity
  8
GR_GUARDRAIL
100
AcDbLine
 10
350.00000000000006
 20
-22.0
 30
0.0
 11
348.43750000000006
 21
-22.052083333333332
 31
0.0
  0
LINE
  5
25D
330
17
100
AcDbEntity
  8
GR_GUARDRAIL
100
AcDbLine
 10
348.43750000000006
 20
-22.052083333333332
 30
0.0
 11
346.87500000000006
 21
-22.104166666666668
 31
0.0
  0
LINE
  5
25E
330
17
100
AcDbEntity
  8
GR_GUARDRAIL
100
AcDbLine
 10
346.87500000000006
 20
-22.104166666666668
 30
0.0
 11
345.31250000000006
 21
-22.15625
 31
0.0
  0
LINE
  5
25F
330
17
100
AcDbEntity
  8
GR_GUARDRAIL
100
AcDbLine
 10
345.31250000000006
 20
-22.15625
 30
0.0
 11
343.75000000000006
 21
-22.208333333333332
 31
0.0
  0
LINE
  5
260
330
17
100
AcDbEntity
  8
GR_GUARDRAIL
100
AcDbLine
 10
343.75000000000006
 20
-22.208333333333332
 30
0.0
 11
342.18750000000006
 21
-22.260416666666668
 31
0.0
  0
LINE
  5
261
330
17
100
AcDbEntity
  8
GR_GUARDRAIL
100
AcDbLine
 10
342.18750000000006
 20
-22.260416666666668
 30
0.0
 11
340.62500000000006
 21
-22.3125
 31
0.0
  0
LINE
  5
262
330
17
100
AcDbEntity
  8
GR_GUARDRAIL
100
AcDbLine
 10
340.62500000000006
 20
-22.3125
 30
0.0
 11
339.06250000000006
 21
-22.364583333333332
 31
0.0
  0
LINE
  5
263
330
17
100
AcDbEntity
  8
GR_GUARDRAIL
100
AcDbLine
 10
339.06250000000006
 20
-22.364583333333332
 30
0.0
 11
337.50000000000006
 21
-22.416666666666668
 31
0.0
  0
LINE
  5
264
330
17
100
AcDbEntity
  8
GR_GUARDRAIL
100
AcDbLine
 10
337.50000000000006
 20
-22.416666666666668
 30
0.0
 11
335.93750000000006
 21
-22.46875
 31
0.0
  0
LINE
  5
265
330
17
100
AcDbEntity
  8
GR_GUARDRAIL
100
AcDbLine
 10
335.93750000000006
 20
-22.46875
 30
0.0
 11
334.37500000000006
 21
-22.520833333333332
 31
0.0
  0
LINE
  5
266
330
17
100
AcDbEntity
  8
GR_GUARDRAIL
100
AcDbLine
 10
334.37500000000006
 20
-22.520833333333332
 30
0.0
 11
332.81250000000006
 21
-22.572916666666668
 31
0.0
  0
LINE
  5
267
330
17
100
AcDbEntity
  8
GR_GUARDRAIL
100
AcDbLine
 10
332.81250000000006
 20
-22.572916666666668
 30
0.0
 11
331.25000000000006
 21
-22.625
 31
0.0
  0
LINE
  5
268
330
17
100
AcDbEntity
  8
GR_GUARDRAIL
100
AcDbLine
 10
331.25000000000006
 20
-22.625
 30
0.0
 11
329.68750000000006
 21
-22.677083333333332
 31
0.0
  0
LINE
  5
269
330
17
100
AcDbEntity
  8
GR_GUARDRAIL
100
AcDbLine
 10
329.68750000000006
 20
-22.677083333333332
 30
0.0
 11
328.12500000000006
 21
-22.729166666666668
 31
0.0
  0
LINE
  5
26A
330
17
100
AcDbEntity
  8
GR_GUARDRAIL
100
AcDbLine
 10
328.12500000000006
 20
-22.729166666666668
 30
0.0
 11
326.56250000000006
 21
-22.78125
 31
0.0
  0
LINE
  5
26B
330
17
100
AcDbEntity
  8
GR_GUARDRAIL
100
AcDbLine
 10
326.56250000000006
 20
-22.78125
 30
0.0
 11
325.00000000000006
 21
-22.833333333333332
 31
0.0
  0
LINE
  5
26C
330
17
100
AcDbEntity
  8
GR_TERMINAL
100
AcDbLine
 10
325.00000000000006
 20
-22.833333333333332
 30
0.0
 11
321.87500000000006
 21
-23.083333333333332
 31
0.0
  0
LINE
  5
26D
330
17
100
AcDbEntity
  8
GR_TERMINAL
100
AcDbLine
 10
321.87500000000006
 20
-23.083333333333332
 30
0.0
 11
318.75000000000006
 21
-23.333333333333332
 31
0.0
  0
LINE
  5
26E
330
17
100
AcDbEntity
  8
GR_TERMINAL
100
AcDbLine
 10
318.75000000000006
 20
-23.333333333333332
 30
0.0
 11
315.62500000000006
 21
-23.583333333333332
 31
0.0
  0
LINE
  5
26F
330
17
100
AcDbEntity
  8
GR_TERMINAL
100
AcDbLine
 10
315.62500000000006
 20
-23.583333333333332
 30
0.0
 11
312.50000000000006
 21
-23.833333333333332
 31
0.0
  0
LINE
  5
270
330
17
100
AcDbEntity
  8
GR_TERMINAL
100
AcDbLine
 10
312.50000000000006
 20
-23.833333333333332
 30
0.0
 11
309.37500000000006
 21
-24.083333333333332
 31
0.0
  0
LINE
  5
271
330
17
100
AcDbEntity
  8
GR_TERMINAL
100
AcDbLine
 10
309.37500000000006
 20
-24.083333333333332
 30
0.0
 11
306.25000000000006
 21
-24.333333333333332
 31
0.0
  0
LINE
  5
272
330
17
100
AcDbEntity
  8
GR_TERMINAL
100
AcDbLine
 10
306.25000000000006
 20
-24.333333333333332
 30
0.0
 11
303.12500000000006
 21
-24.583333333333332
 31
0.0
  0
LINE
  5
273
330
17
100
AcDbEntity
  8
GR_TERMINAL
100
AcDbLine
 10
303.12500000000006
 20
-24.583333333333332
 30
0.0
 11
300.00000000000006
 21
-24.833333333333332
 31
0.0
  0
LINE
  5
274
330
17
100
AcDbEntity
  8
GR_GATING
100
AcDbLine
 10
300.00000000000006
 20
-24.833333333333332
 30
0.0
 11
296.87500000000006
 21
-25.5
 31
0.0
  0
LINE
  5
275
330
17
100
AcDbEntity
  8
GR_GATING
100
AcDbLine
 10
296.87500000000006
 20
-25.5
 30
0.0
 11
293.75000000000006
 21
-26.166666666666664
 31
0.0
  0
LINE
  5
276
330
17
100
AcDbEntity
  8
GR_GATING
100
AcDbLine
 10
293.75000000000006
 20
-26.166666666666664
 30
0.0
 11
290.62500000000006
 21
-26.833333333333332
 31
0.0
  0
LINE
  5
277
330
17
100
AcDbEntity
  8
GR_GATING
100
AcDbLine
 10
290.62500000000006
 20
-26.833333333333332
 30
0.0
 11
287.50000000000006
 21
-27.5
 31
0.0
  0
LINE
  5
278
330
17
100
AcDbEntity
  8
GR_GUARDRAIL_POSTS
100
AcDbLine
 10
367.8658333333334
 20
-22.28
 30
0.0
 11
368.42583333333334
 21
-22.28
 31
0.0
  0
LINE
  5
279
330
17
100
AcDbEntity
  8
GR_GUARDRAIL_POSTS
100
AcDbLine
 10
368.42583333333334
 20
-22.28
 30
0.0
 11
368.42583333333334
 21
-21.72
 31
0.0
  0
LINE
  5
27A
330
17
100
AcDbEntity
  8
GR_GUARDRAIL_POSTS
100
AcDbLine
 10
368.42583333333334
 20
-21.72
 30
0.0
 11
367.8658333333334
 21
-21.72
 31
0.0
  0
LINE
  5
27B
330
17
100
AcDbEntity
  8
GR_GUARDRAIL_POSTS
100
AcDbLine
 10
367.8658333333334
 20
-21.72
 30
0.0
 11
367.8658333333334
 21
-22.28
 31
0.0
  0
LINE
  5
27C
330
17
100
AcDbEntity
  8
GR_GUARDRAIL_POSTS
100
AcDbLine
 10
361.6158333333334
 20
-22.28
 30
0.0
 11
362.17583333333334
 21
-22.28
 31
0.0
  0
LINE
  5
27D
330
17
100
AcDbEntity
  8
GR_GUARDRAIL_POSTS
100
AcDbLine
 10
362.17583333333334
 20
-22.28
 30
0.0
 11
362.17583333333334
 21
-21.72
 31
0.0
  0
LINE
  5
27E
330
17
100
AcDbEntity
  8
GR_GUARDRAIL_POSTS
100
AcDbLine
 10
362.17583333333334
 20
-21.72
 30
0.0
 11
361.6158333333334
 21
-21.72
 31
0.0
  0
LINE
  5
27F
330
17
100
AcDbEntity
  8
GR_GUARDRAIL_POSTS
100
AcDbLine
 10
361.6158333333334
 20
-21.72
 30
0.0
 11
361.6158333333334
 21
-22.28
 31
0.0
  0
LINE
  5
280
330
17
100
AcDbEntity
  8
GR_GUARDRAIL_POSTS
100
AcDbLine
 10
355.3658333333334
 20
-22.28
 30
0.0
 11
355.92583333333334
 21
-22.28
 31
0.0
  0
LINE
  5
281
330
17
100
AcDbEntity
  8
GR_GUARDRAIL_POSTS
100
AcDbLine
 10
355.92583333333334
 20
-22.28
 30
0.0
 11
355.92583333333334
 21
-21.72
 31
0.0
  0
LINE
  5
282
330
17
100
AcDbEntity
  8
GR_GUARDRAIL_POSTS
100
AcDbLine
 10
355.92583333333334
 20
-21.72
 30
0.0
 11
355.3658333333334
 21
-21.72
 31
0.0
  0
LINE
  5
283
330
17
100
AcDbEntity
  8
GR_GUARDRAIL_POSTS
100
AcDbLine
 10
355.3658333333334
 20
-21.72
 30
0.0
 11
355.3658333333334
 21
-22.28
 31
0.0
  0
LINE
  5
284
330
17
100
AcDbEntity
  8
GR_GUARDRAIL_POSTS
100
AcDbLine
 10
349.1158333333334
 20
-22.30013888888889
 30
0.0
 11
349.67583333333334
 21
-22.30013888888889
 31
0.0
  0
LINE
  5
285
330
17
100
AcDbEntity
  8
GR_GUARDRAIL_POSTS
100
AcDbLine
 10
349.67583333333334
 20
-22.30013888888889
 30
0.0
 11
349.67583333333334
 21
-21.740138888888886
 31
0.0
  0
LINE
  5
286
330
17
100
AcDbEntity
  8
GR_GUARDRAIL_POSTS
100
AcDbLine
 10
349.67583333333334
 20
-21.740138888888886
 30
0.0
 11
349.1158333333334
 21
-21.740138888888886
 31
0.0
  0
LINE
  5
287
330
17
100
AcDbEntity
  8
GR_GUARDRAIL_POSTS
100
AcDbLine
 10
349.1158333333334
 20
-21.740138888888886
 30
0.0
 11
349.1158333333334
 21
-22.30013888888889
 31
0.0
  0
LINE
  5
288
330
17
100
AcDbEntity
  8
GR_GUARDRAIL_POSTS
100
AcDbLine
 10
342.8658333333334
 20
-22.508472222222224
 30
0.0
 11
343.42583333333334
 21
-22.508472222222224
 31
0.0
  0
LINE
  5
289
330
17
100
AcDbEntity
  8
GR_GUARDRAIL_POSTS
100
AcDbLine
 10
343.42583333333334
 20
-22.508472222222224
 30
0.0
 11
343.42583333333334
 21
-21.94847222222222
 31
0.0
  0
LINE
  5
28A
330
17
100
AcDbEntity
  8
GR_GUARDRAIL_POSTS
100
AcDbLine
 10
343.42583333333334
 20
-21.94847222222222
 30
0.0
 11
342.8658333333334
 21
-21.94847222222222
 31
0.0
  0
LINE
  5
28B
330
17
100
AcDbEntity
  8
GR_GUARDRAIL_POSTS
100
AcDbLine
 10
342.8658333333334
 20
-21.94847222222222
 30
0.0
 11
342.8658333333334
 21
-22.508472222222224
 31
0.0
  0
LINE
  5
28C
330
17
100
AcDbEntity
  8
GR_GUARDRAIL_POSTS
100
AcDbLine
 10
336.6158333333334
 20
-22.716805555555556
 30
0.0
 11
337.17583333333334
 21
-22.716805555555556
 31
0.0
  0
LINE
  5
28D
330
17
100
AcDbEntity
  8
GR_GUARDRAIL_POSTS
100
AcDbLine
 10
337.17583333333334
 20
-22.716805555555556
 30
0.0
 11
337.17583333333334
 21
-22.156805555555554
 31
0.0
  0
LINE
  5
28E
330
17
100
AcDbEntity
  8
GR_GUARDRAIL_POSTS
100
AcDbLine
 10
337.17583333333334
 20
-22.156805555555554
 30
0.0
 11
336.6158333333334
 21
-22.156805555555554
 31
0.0
  0
LINE
  5
28F
330
17
100
AcDbEntity
  8
GR_GUARDRAIL_POSTS
100
AcDbLine
 10
336.6158333333334
 20
-22.156805555555554
 30
0.0
 11
336.6158333333334
 21
-22.716805555555556
 31
0.0
  0
LINE
  5
290
330
17
100
AcDbEntity
  8
GR_GUARDRAIL_POSTS
100
AcDbLine
 10
330.3658333333334
 20
-22.92513888888889
 30
0.0
 11
330.92583333333334
 21
-22.92513888888889
 31
0.0
  0
LINE
  5
291
330
17
100
AcDbEntity
  8
GR_GUARDRAIL_POSTS
100
AcDbLine
 10
330.92583333333334
 20
-22.92513888888889
 30
0.0
 11
330.92583333333334
 21
-22.365138888888886
 31
0.0
  0
LINE
  5
292
330
17
100
AcDbEntity
  8
GR_GUARDRAIL_POSTS
100
AcDbLine
 10
330.92583333333334
 20
-22.365138888888886
 30
0.0
 11
330.3658333333334
 21
-22.365138888888886
 31
0.0
  0
LINE
  5
293
330
17
100
AcDbEntity
  8
GR_GUARDRAIL_POSTS
100
AcDbLine
 10
330.3658333333334
 20
-22.365138888888886
 30
0.0
 11
330.3658333333334
 21
-22.92513888888889
 31
0.0
  0
LINE
  5
294
330
17
100
AcDbEntity
  8
GR_GUARDRAIL_POSTS
100
AcDbLine
 10
324.1158333333334
 20
-23.161666666666665
 30
0.0
 11
324.67583333333334
 21
-23.161666666666665
 31
0.0
  0
LINE
  5
295
330
17
100
AcDbEntity
  8
GR_GUARDRAIL_POSTS
100
AcDbLine
 10
324.67583333333334
 20
-23.161666666666665
 30
0.0
 11
324.67583333333334
 21
-22.601666666666663
 31
0.0
  0
LINE
  5
296
330
17
100
AcDbEntity
  8
GR_GUARDRAIL_POSTS
100
AcDbLine
 10
324.67583333333334
 20
-22.601666666666663
 30
0.0
 11
324.1158333333334
 21
-22.601666666666663
 31
0.0
  0
LINE
  5
297
330
17
100
AcDbEntity
  8
GR_GUARDRAIL_POSTS
100
AcDbLine
 10
324.1158333333334
 20
-22.601666666666663
 30
0.0
 11
324.1158333333334
 21
-23.161666666666665
 31
0.0
  0
LINE
  5
298
330
17
100
AcDbEntity
  8
GR_GUARDRAIL_POSTS
100
AcDbLine
 10
317.8658333333334
 20
-23.661666666666665
 30
0.0
 11
318.42583333333334
 21
-23.661666666666665
 31
0.0
  0
LINE
  5
299
330
17
100
AcDbEntity
  8
GR_GUARDRAIL_POSTS
100
AcDbLine
 10
318.42583333333334
 20
-23.661666666666665
 30
0.0
 11
318.42583333333334
 21
-23.101666666666663
 31
0.0
  0
LINE
  5
29A
330
17
100
AcDbEntity
  8
GR_GUARDRAIL_POSTS
100
AcDbLine
 10
318.42583333333334
 20
-23.101666666666663
 30
0.0
 11
317.8658333333334
 21
-23.101666666666663
 31
0.0
  0
LINE
  5
29B
330
17
100
AcDbEntity
  8
GR_GUARDRAIL_POSTS
100
AcDbLine
 10
317.8658333333334
 20
-23.101666666666663
 30
0.0
 11
317.8658333333334
 21
-23.661666666666665
 31
0.0
  0
LINE
  5
29C
330
17
100
AcDbEntity
  8
GR_GUARDRAIL_POSTS
100
AcDbLine
 10
311.6158333333334
 20
-24.16166666666667
 30
0.0
 11
312.17583333333334
 21
-24.16166666666667
 31
0.0
  0
LINE
  5
29D
330
17
100
AcDbEntity
  8
GR_GUARDRAIL_POSTS
100
AcDbLine
 10
312.17583333333334
 20
-24.16166666666667
 30
0.0
 11
312.17583333333334
 21
-23.601666666666667
 31
0.0
  0
LINE
  5
29E
330
17
100
AcDbEntity
  8
GR_GUARDRAIL_POSTS
100
AcDbLine
 10
312.17583333333334
 20
-23.601666666666667
 30
0.0
 11
311.6158333333334
 21
-23.601666666666667
 31
0.0
  0
LINE
  5
29F
330
17
100
AcDbEntity
  8
GR_GUARDRAIL_POSTS
100
AcDbLine
 10
311.6158333333334
 20
-23.601666666666667
 30
0.0
 11
311.6158333333334
 21
-24.16166666666667
 31
0.0
  0
LINE
  5
2A0
330
17
100
AcDbEntity
  8
GR_GUARDRAIL_POSTS
100
AcDbLine
 10
305.3658333333334
 20
-24.66166666666667
 30
0.0
 11
305.92583333333334
 21
-24.66166666666667
 31
0.0
  0
LINE
  5
2A1
330
17
100
AcDbEntity
  8
GR_GUARDRAIL_POSTS
100
AcDbLine
 10
305.92583333333334
 20
-24.66166666666667
 30
0.0
 11
305.92583333333334
 21
-24.101666666666667
 31
0.0
  0
LINE
  5
2A2
330
17
100
AcDbEntity
  8
GR_GUARDRAIL_POSTS
100
AcDbLine
 10
305.92583333333334
 20
-24.101666666666667
 30
0.0
 11
305.3658333333334
 21
-24.101666666666667
 31
0.0
  0
LINE
  5
2A3
330
17
100
AcDbEntity
  8
GR_GUARDRAIL_POSTS
100
AcDbLine
 10
305.3658333333334
 20
-24.101666666666667
 30
0.0
 11
305.3658333333334
 21
-24.66166666666667
 31
0.0
  0
LINE
  5
2A4
330
17
100
AcDbEntity
  8
GR_GUARDRAIL_POSTS
100
AcDbLine
 10
299.1158333333334
 20
-25.242222222222225
 30
0.0
 11
299.67583333333334
 21
-25.242222222222225
 31
0.0
  0
LINE
  5
2A5
330
17
100
AcDbEntity
  8
GR_GUARDRAIL_POSTS
100
AcDbLine
 10
299.67583333333334
 20
-25.242222222222225
 30
0.0
 11
299.67583333333334
 21
-24.682222222222222
 31
0.0
  0
LINE
  5
2A6
330
17
100
AcDbEntity
  8
GR_GUARDRAIL_POSTS
100
AcDbLine
 10
299.67583333333334
 20
-24.682222222222222
 30
0.0
 11
299.1158333333334
 21
-24.682222222222222
 31
0.0
  0
LINE
  5
2A7
330
17
100
AcDbEntity
  8
GR_GUARDRAIL_POSTS
100
AcDbLine
 10
299.1158333333334
 20
-24.682222222222222
 30
0.0
 11
299.1158333333334
 21
-25.242222222222225
 31
0.0
  0
LINE
  5
2A8
330
17
100
AcDbEntity
  8
GR_GUARDRAIL_POSTS
100
AcDbLine
 10
292.8658333333334
 20
-26.575555555555557
 30
0.0
 11
293.42583333333334
 21
-26.575555555555557
 31
0.0
  0
LINE
  5
2A9
330
17
100
AcDbEntity
  8
GR_GUARDRAIL_POSTS
100
AcDbLine
 10
293.42583333333334
 20
-26.575555555555557
 30
0.0
 11
293.42583333333334
 21
-26.015555555555554
 31
0.0
  0
LINE
  5
2AA
330
17
100
AcDbEntity
  8
GR_GUARDRAIL_POSTS
100
AcDbLine
 10
293.42583333333334
 20
-26.015555555555554
 30
0.0
 11
292.8658333333334
 21
-26.015555555555554
 31
0.0
  0
LINE
  5
2AB
330
17
100
AcDbEntity
  8
GR_GUARDRAIL_POSTS
100
AcDbLine
 10
292.8658333333334
 20
-26.015555555555554
 30
0.0
 11
292.8658333333334
 21
-26.575555555555557
 31
0.0
  0
LINE
  5
2AC
330
17
100
AcDbEntity
  8
GR_SHOULDER_FLARE
100
AcDbLine
 10
368.14583333333337
 20
-25.0
 30
0.0
 11
350.00000000000006
 21
-25.0
 31
0.0
  0
LINE
  5
2AD
330
17
100
AcDbEntity
  8
GR_SHOULDER_FLARE
100
AcDbLine
 10
350.00000000000006
 20
-25.0
 30
0.0
 11
325.00000000000006
 21
-25.833333333333332
 31
0.0
  0
LINE
  5
2AE
330
17
100
AcDbEntity
  8
GR_SHOULDER_FLARE
100
AcDbLine
 10
325.00000000000006
 20
-25.833333333333332
 30
0.0
 11
300.00000000000006
 21
-28.5
 31
0.0
  0
LINE
  5
2AF
330
17
100
AcDbEntity
  8
GR_SHOULDER_FLARE
100
AcDbLine
 10
300.00000000000006
 20
-28.5
 30
0.0
 11
287.50000000000006
 21
-31.5
 31
0.0
  0
LINE
  5
2B0
330
17
100
AcDbEntity
  8
GR_SHOULDER_FLARE
100
AcDbLine
 10
287.50000000000006
 20
-31.5
 30
0.0
 11
137.50000000000006
 21
-12.0
 31
0.0
  0
LINE
  5
2B1
330
17
100
AcDbEntity
  8
GR_SHOULDER_FLARE
100
AcDbLine
 10
214.42307692307696
 20
-22.0
 30
0.0
 11
87.50000000000006
 21
-22.0
 31
0.0
  0
LINE
  5
2B2
330
17
100
AcDbEntity
  8
GR_FORESLOPE_W
100
AcDbLine
 10
87.50000000000006
 20
-42.0
 30
0.0
 11
287.50000000000006
 21
-42.0
 31
0.0
  0
LINE
  5
2B3
330
17
100
AcDbEntity
  8
GR_FORESLOPE_W
100
AcDbLine
 10
287.50000000000006
 20
-42.0
 30
0.0
 11
362.50000000000006
 21
-25.0
 31
0.0
  0
TEXT
  5
2B4
330
17
100
AcDbEntity
  8
GR_TEXT
100
AcDbText
 10
232.50000000000006
 20
-47.0
 30
0.0
 40
2.5
  1
LA = 30.00'
  7
Engineering Regular
 11
232.50000000000006
 21
-47.0
 31
0.0
100
AcDbText
  0
LINE
  5
2B5
330
17
100
AcDbEntity
  8
GR_DIMENSION
100
AcDbLine
 10
368.14583333333337
 20
-60.0
 30
0.0
 11
300.00000000000006
 21
-60.0
 31
0.0
  0
LINE
  5
2B6
330
17
100
AcDbEntity
  8
GR_DIMENSION
100
AcDbLine
 10
368.14583333333337
 20
-62.0
 30
0.0
 11
368.14583333333337
 21
-58.0
 31
0.0
  0
LINE
  5
2B7
330
17
100
AcDbEntity
  8
GR_DIMENSION
100
AcDbLine
 10
300.00000000000006
 20
-62.0
 30
0.0
 11
300.00000000000006
 21
-58.0
 31
0.0
  0
TEXT
  5
2B8
330
17
100
AcDbEntity
  8
GR_TEXT
100
AcDbText
 10
334.07291666666674
 20
-64.0
 30
0.0
 40
2.5
  1
C = 68.15'
  7
Engineering Regular
 72
1
 11
334.07291666666674
 21
-64.0
 31
0.0
100
AcDbText
 73
2
  0
LINE
  5
2B9
330
17
100
AcDbEntity
  8
GR_DIMENSION
100
AcDbLine
 10
350.00000000000006
 20
-69.0
 30
0.0
 11
325.00000000000006
 21
-69.0
 31
0.0
  0
LINE
  5
2BA
330
17
100
AcDbEntity
  8
GR_DIMENSION
100
AcDbLine
 10
350.00000000000006
 20
-71.0
 30
0.0
 11
350.00000000000006
 21
-67.0
 31
0.0
  0
LINE
  5
2BB
330
17
100
AcDbEntity
  8
GR_DIMENSION
100
AcDbLine
 10
325.00000000000006
 20
-71.0
 30
0.0
 11
325.00000000000006
 21
-67.0
 31
0.0
  0
TEXT
  5
2BC
330
17
100
AcDbEntity
  8
GR_TEXT
100
AcDbText
 10
337.50000000000006
 20
-73.0
 30
0.0
 40
2.5
  1
D = 25.00'
  7
Engineering Regular
 72
1
 11
337.50000000000006
 21
-73.0
 31
0.0
100
AcDbText
 73
2
  0
LINE
  5
2BD
330
17
100
AcDbEntity
  8
GR_DIMENSION
100
AcDbLine
 10
325.00000000000006
 20
-78.0
 30
0.0
 11
300.00000000000006
 21
-78.0
 31
0.0
  0
LINE
  5
2BE
330
17
100
AcDbEntity
  8
GR_DIMENSION
100
AcDbLine
 10
325.00000000000006
 20
-80.0
 30
0.0
 11
325.00000000000006
 21
-76.0
 31
0.0
  0
LINE
  5
2BF
330
17
100
AcDbEntity
  8
GR_DIMENSION
100
AcDbLine
 10
300.00000000000006
 20
-80.0
 30
0.0
 11
300.00000000000006
 21
-76.0
 31
0.0
  0
TEXT
  5
2C0
330
17
100
AcDbEntity
  8
GR_TEXT
100
AcDbText
 10
312.50000000000006
 20
-82.0
 30
0.0
 40
2.5
  1
TERMINAL = 25.00'
  7
Engineering Regular
 72
1
 11
312.50000000000006
 21
-82.0
 31
0.0
100
AcDbText
 73
2
  0
LINE
  5
2C1
330
17
100
AcDbEntity
  8
GR_DIMENSION
100
AcDbLine
 10
300.00000000000006
 20
-87.0
 30
0.0
 11
287.50000000000006
 21
-87.0
 31
0.0
  0
LINE
  5
2C2
330
17
100
AcDbEntity
  8
GR_DIMENSION
100
AcDbLine
 10
300.00000000000006
 20
-89.0
 30
0.0
 11
300.00000000000006
 21
-85.0
 31
0.0
  0
LINE
  5
2C3
330
17
100
AcDbEntity
  8
GR_DIMENSION
100
AcDbLine
 10
287.50000000000006
 20
-89.0
 30
0.0
 11
287.50000000000006
 21
-85.0
 31
0.0
  0
TEXT
  5
2C4
330
17
100
AcDbEntity
  8
GR_TEXT
100
AcDbText
 10
293.75000000000006
 20
-91.0
 30
0.0
 40
2.5
  1
GATING = 12.50'
  7
Engineering Regular
 72
1
 11
293.75000000000006
 21
-91.0
 31
0.0
100
AcDbText
 73
2
  0
LINE
  5
2C5
330
17
100
AcDbEntity
  8
GR_DIMENSION
100
AcDbLine
 10
362.50000000000006
 20
-96.0
 30
0.0
 11
287.50000000000006
 21
-96.0
 31
0.0
  0
LINE
  5
2C6
330
17
100
AcDbEntity
  8
GR_DIMENSION
100
AcDbLine
 10
362.50000000000006
 20
-98.0
 30
0.0
 11
362.50000000000006
 21
-94.0
 31
0.0
  0
LINE
  5
2C7
330
17
100
AcDbEntity
  8
GR_DIMENSION
100
AcDbLine
 10
287.50000000000006
 20
-98.0
 30
0.0
 11
287.50000000000006
 21
-94.0
 31
0.0
  0
TEXT
  5
2C8
330
17
100
AcDbEntity
  8
GR_TEXT
100
AcDbText
 10
325.00000000000006
 20
-100.0
 30
0.0
 40
2.5
  1
CZ = 75.00'
  7
Engineering Regular
 72
1
 11
325.00000000000006
 21
-100.0
 31
0.0
100
AcDbText
 73
2
  0
LINE
  5
2C9
330
17
100
AcDbEntity
  8
GR_DIMENSION
100
AcDbLine
 10
287.50000000000006
 20
-105.0
 30
0.0
 11
137.50000000000006
 21
-105.0
 31
0.0
  0
LINE
  5
2CA
330
17
100
AcDbEntity
  8
GR_DIMENSION
100
AcDbLine
 10
287.50000000000006
 20
-107.0
 30
0.0
 11
287.50000000000006
 21
-103.0
 31
0.0
  0
LINE
  5
2CB
330
17
100
AcDbEntity
  8
GR_DIMENSION
100
AcDbLine
 10
137.50000000000006
 20
-107.0
 30
0.0
 11
137.50000000000006
 21
-103.0
 31
0.0
  0
TEXT
  5
2CC
330
17
100
AcDbEntity
  8
GR_TEXT
100
AcDbText
 10
212.50000000000006
 20
-109.0
 30
0.0
 40
2.5
  1
SHLDR = 150.00'
  7
Engineering Regular
 72
1
 11
212.50000000000006
 21
-109.0
 31
0.0
100
AcDbText
 73
2
  0
LINE
  5
2CD
330
17
100
AcDbEntity
  8
GR_TRAFFIC_ARROWS
100
AcDbLine
 10
284.3229166666667
 20
6.0
 30
0.0
 11
296.3229166666667
 21
6.0
 31
0.0
  0
LINE
  5
2CE
330
17
100
AcDbEntity
  8
GR_TRAFFIC_ARROWS
100
AcDbLine
 10
296.3229166666667
 20
6.0
 30
0.0
 11
292.3229166666667
 21
8.0
 31
0.0
  0
LINE
  5
2CF
330
17
100
AcDbEntity
  8
GR_TRAFFIC_ARROWS
100
AcDbLine
 10
296.3229166666667
 20
6.0
 30
0.0
 11
292.3229166666667
 21
4.0
 31
0.0
  0
LINE
  5
2D0
330
17
100
AcDbEntity
  8
GR_TRAFFIC_ARROWS
100
AcDbLine
 10
296.3229166666667
 20
-6.0
 30
0.0
 11
284.3229166666667
 21
-6.0
 31
0.0
  0
LINE
  5
2D1
330
17
100
AcDbEntity
  8
GR_TRAFFIC_ARROWS
100
AcDbLine
 10
284.3229166666667
 20
-6.0
 30
0.0
 11
288.3229166666667
 21
-8.0
 31
0.0
  0
LINE
  5
2D2
330
17
100
AcDbEntity
  8
GR_TRAFFIC_ARROWS
100
AcDbLine
 10
284.3229166666667
 20
-6.0
 30
0.0
 11
288.3229166666667
 21
-4.0
 31
0.0
  0
LINE
  5
2D3
330
17
100
AcDbEntity
  8
GR_GUARDRAIL
100
AcDbLine
 10
468.14583333333337
 20
22.0
 30
0.0
 11
477.21875
 21
22.0
 31
0.0
  0
LINE
  5
2D4
330
17
100
AcDbEntity
  8
GR_GUARDRAIL
100
AcDbLine
 10
477.21875
 20
22.0
 30
0.0
 11
486.2916666666667
 21
22.0
 31
0.0
  0
LINE
  5
2D5
330
17
100
AcDbEntity
  8
GR_GUARDRAIL
100
AcDbLine
 10
486.2916666666667
 20
22.0
 30
0.0
 11
493.3229166666667
 21
22.234375
 31
0.0
  0
LINE
  5
2D6
330
17
100
AcDbEntity
  8
GR_GUARDRAIL
100
AcDbLine
 10
493.3229166666667
 20
22.234375
 30
0.0
 11
500.3541666666667
 21
22.46875
 31
0.0
  0
LINE
  5
2D7
330
17
100
AcDbEntity
  8
GR_GUARDRAIL
100
AcDbLine
 10
500.3541666666667
 20
22.46875
 30
0.0
 11
507.3854166666667
 21
22.703125
 31
0.0
  0
LINE
  5
2D8
330
17
100
AcDbEntity
  8
GR_GUARDRAIL
100
AcDbLine
 10
507.3854166666667
 20
22.703125
 30
0.0
 11
514.4166666666667
 21
22.9375
 31
0.0
  0
LINE
  5
2D9
330
17
100
AcDbEntity
  8
GR_GUARDRAIL
100
AcDbLine
 10
514.4166666666667
 20
22.9375
 30
0.0
 11
521.4479166666667
 21
23.171875
 31
0.0
  0
LINE
  5
2DA
330
17
100
AcDbEntity
  8
GR_GUARDRAIL
100
AcDbLine
 10
521.4479166666667
 20
23.171875
 30
0.0
 11
528.4791666666667
 21
23.40625
 31
0.0
  0
LINE
  5
2DB
330
17
100
AcDbEntity
  8
GR_GUARDRAIL
100
AcDbLine
 10
528.4791666666667
 20
23.40625
 30
0.0
 11
535.5104166666667
 21
23.640625
 31
0.0
  0
LINE
  5
2DC
330
17
100
AcDbEntity
  8
GR_GUARDRAIL
100
AcDbLine
 10
535.5104166666667
 20
23.640625
 30
0.0
 11
542.5416666666667
 21
23.875
 31
0.0
  0
LINE
  5
2DD
330
17
100
AcDbEntity
  8
GR_GUARDRAIL
100
AcDbLine
 10
542.5416666666667
 20
23.875
 30
0.0
 11
549.5729166666667
 21
24.109375
 31
0.0
  0
LINE
  5
2DE
330
17
100
AcDbEntity
  8
GR_GUARDRAIL
100
AcDbLine
 10
549.5729166666667
 20
24.109375
 30
0.0
 11
556.6041666666667
 21
24.34375
 31
0.0
  0
LINE
  5
2DF
330
17
100
AcDbEntity
  8
GR_GUARDRAIL
100
AcDbLine
 10
556.6041666666667
 20
24.34375
 30
0.0
 11
563.6354166666667
 21
24.578125
 31
0.0
  0
LINE
  5
2E0
330
17
100
AcDbEntity
  8
GR_GUARDRAIL
100
AcDbLine
 10
563.6354166666667
 20
24.578125
 30
0.0
 11
570.6666666666667
 21
24.8125
 31
0.0
  0
LINE
  5
2E1
330
17
100
AcDbEntity
  8
GR_GUARDRAIL
100
AcDbLine
 10
570.6666666666667
 20
24.8125
 30
0.0
 11
577.6979166666667
 21
25.046875
 31
0.0
  0
LINE
  5
2E2
330
17
100
AcDbEntity
  8
GR_GUARDRAIL
100
AcDbLine
 10
577.6979166666667
 20
25.046875
 30
0.0
 11
584.7291666666667
 21
25.28125
 31
0.0
  0
LINE
  5
2E3
330
17
100
AcDbEntity
  8
GR_GUARDRAIL
100
AcDbLine
 10
584.7291666666667
 20
25.28125
 30
0.0
 11
591.7604166666667
 21
25.515625
 31
0.0
  0
LINE
  5
2E4
330
17
100
AcDbEntity
  8
GR_GUARDRAIL
100
AcDbLine
 10
591.7604166666667
 20
25.515625
 30
0.0
 11
598.7916666666667
 21
25.75
 31
0.0
  0
LINE
  5
2E5
330
17
100
AcDbEntity
  8
GR_TERMINAL
100
AcDbLine
 10
598.7916666666667
 20
25.75
 30
0.0
 11
601.9166666666667
 21
26.0
 31
0.0
  0
LINE
  5
2E6
330
17
100
AcDbEntity
  8
GR_TERMINAL
100
AcDbLine
 10
601.9166666666667
 20
26.0
 30
0.0
 11
605.0416666666667
 21
26.25
 31
0.0
  0
LINE
  5
2E7
330
17
100
AcDbEntity
  8
GR_TERMINAL
100
AcDbLine
 10
605.0416666666667
 20
26.25
 30
0.0
 11
608.1666666666667
 21
26.5
 31
0.0
  0
LINE
  5
2E8
330
17
100
AcDbEntity
  8
GR_TERMINAL
100
AcDbLine
 10
608.1666666666667
 20
26.5
 30
0.0
 11
611.2916666666667
 21
26.75
 31
0.0
  0
LINE
  5
2E9
330
17
100
AcDbEntity
  8
GR_TERMINAL
100
AcDbLine
 10
611.2916666666667
 20
26.75
 30
0.0
 11
614.4166666666667
 21
27.0
 31
0.0
  0
LINE
  5
2EA
330
17
100
AcDbEntity
  8
GR_TERMINAL
100
AcDbLine
 10
614.4166666666667
 20
27.0
 30
0.0
 11
617.5416666666667
 21
27.25
 31
0.0
  0
LINE
  5
2EB
330
17
100
AcDbEntity
  8
GR_TERMINAL
100
AcDbLine
 10
617.5416666666667
 20
27.25
 30
0.0
 11
620.6666666666667
 21
27.5
 31
0.0
  0
LINE
  5
2EC
330
17
100
AcDbEntity
  8
GR_TERMINAL
100
AcDbLine
 10
620.6666666666667
 20
27.5
 30
0.0
 11
623.7916666666667
 21
27.75
 31
0.0
  0
LINE
  5
2ED
330
17
100
AcDbEntity
  8
GR_GATING
100
AcDbLine
 10
623.7916666666667
 20
27.75
 30
0.0
 11
626.9166666666667
 21
28.416666666666668
 31
0.0
  0
LINE
  5
2EE
330
17
100
AcDbEntity
  8
GR_GATING
100
AcDbLine
 10
626.9166666666667
 20
28.416666666666668
 30
0.0
 11
630.0416666666667
 21
29.083333333333332
 31
0.0
  0
LINE
  5
2EF
330
17
100
AcDbEntity
  8
GR_GATING
100
AcDbLine
 10
630.0416666666667
 20
29.083333333333332
 30
0.0
 11
633.1666666666667
 21
29.75
 31
0.0
  0
LINE
  5
2F0
330
17
100
AcDbEntity
  8
GR_GATING
100
AcDbLine
 10
633.1666666666667
 20
29.75
 30
0.0
 11
636.2916666666667
 21
30.416666666666668
 31
0.0
  0
LINE
  5
2F1
330
17
100
AcDbEntity
  8
GR_GUARDRAIL_POSTS
100
AcDbLine
 10
467.8658333333334
 20
21.72
 30
0.0
 11
468.42583333333334
 21
21.72
 31
0.0
  0
LINE
  5
2F2
330
17
100
AcDbEntity
  8
GR_GUARDRAIL_POSTS
100
AcDbLine
 10
468.42583333333334
 20
21.72
 30
0.0
 11
468.42583333333334
 21
22.28
 31
0.0
  0
LINE
  5
2F3
330
17
100
AcDbEntity
  8
GR_GUARDRAIL_POSTS
100
AcDbLine
 10
468.42583333333334
 20
22.28
 30
0.0
 11
467.8658333333334
 21
22.28
 31
0.0
  0
LINE
  5
2F4
330
17
100
AcDbEntity
  8
GR_GUARDRAIL_POSTS
100
AcDbLine
 10
467.8658333333334
 20
22.28
 30
0.0
 11
467.8658333333334
 21
21.72
 31
0.0
  0
LINE
  5
2F5
330
17
100
AcDbEntity
  8
GR_GUARDRAIL_POSTS
100
AcDbLine
 10
474.1158333333334
 20
21.72
 30
0.0
 11
474.67583333333334
 21
21.72
 31
0.0
  0
LINE
  5
2F6
330
17
100
AcDbEntity
  8
GR_GUARDRAIL_POSTS
100
AcDbLine
 10
474.67583333333334
 20
21.72
 30
0.0
 11
474.67583333333334
 21
22.28
 31
0.0
  0
LINE
  5
2F7
330
17
100
AcDbEntity
  8
GR_GUARDRAIL_POSTS
100
AcDbLine
 10
474.67583333333334
 20
22.28
 30
0.0
 11
474.1158333333334
 21
22.28
 31
0.0
  0
LINE
  5
2F8
330
17
100
AcDbEntity
  8
GR_GUARDRAIL_POSTS
100
AcDbLine
 10
474.1158333333334
 20
22.28
 30
0.0
 11
474.1158333333334
 21
21.72
 31
0.0
  0
LINE
  5
2F9
330
17
100
AcDbEntity
  8
GR_GUARDRAIL_POSTS
100
AcDbLine
 10
480.3658333333334
 20
21.72
 30
0.0
 11
480.92583333333334
 21
21.72
 31
0.0
  0
LINE
  5
2FA
330
17
100
AcDbEntity
  8
GR_GUARDRAIL_POSTS
100
AcDbLine
 10
480.92583333333334
 20
21.72
 30
0.0
 11
480.92583333333334
 21
22.28
 31
0.0
  0
LINE
  5
2FB
330
17
100
AcDbEntity
  8
GR_GUARDRAIL_POSTS
100
AcDbLine
 10
480.92583333333334
 20
22.28
 30
0.0
 11
480.3658333333334
 21
22.28
 31
0.0
  0
LINE
  5
2FC
330
17
100
AcDbEntity
  8
GR_GUARDRAIL_POSTS
100
AcDbLine
 10
480.3658333333334
 20
22.28
 30
0.0
 11
480.3658333333334
 21
21.72
 31
0.0
  0
LINE
  5
2FD
330
17
100
AcDbEntity
  8
GR_GUARDRAIL_POSTS
100
AcDbLine
 10
486.6158333333334
 20
21.740138888888886
 30
0.0
 11
487.17583333333334
 21
21.740138888888886
 31
0.0
  0
LINE
  5
2FE
330
17
100
AcDbEntity
  8
GR_GUARDRAIL_POSTS
100
AcDbLine
 10
487.17583333333334
 20
21.740138888888886
 30
0.0
 11
487.17583333333334
 21
22.30013888888889
 31
0.0
  0
LINE
  5
2FF
330
17
100
AcDbEntity
  8
GR_GUARDRAIL_POSTS
100
AcDbLine
 10
487.17583333333334
 20
22.30013888888889
 30
0.0
 11
486.6158333333334
 21
22.30013888888889
 31
0.0
  0
LINE
  5
300
330
17
100
AcDbEntity
  8
GR_GUARDRAIL_POSTS
100
AcDbLine
 10
486.6158333333334
 20
22.30013888888889
 30
0.0
 11
486.6158333333334
 21
21.740138888888886
 31
0.0
  0
LINE
  5
301
330
17
100
AcDbEntity
  8
GR_GUARDRAIL_POSTS
100
AcDbLine
 10
492.8658333333334
 20
21.94847222222222
 30
0.0
 11
493.42583333333334
 21
21.94847222222222
 31
0.0
  0
LINE
  5
302
330
17
100
AcDbEntity
  8
GR_GUARDRAIL_POSTS
100
AcDbLine
 10
493.42583333333334
 20
21.94847222222222
 30
0.0
 11
493.42583333333334
 21
22.508472222222224
 31
0.0
  0
LINE
  5
303
330
17
100
AcDbEntity
  8
GR_GUARDRAIL_POSTS
100
AcDbLine
 10
493.42583333333334
 20
22.508472222222224
 30
0.0
 11
492.8658333333334
 21
22.508472222222224
 31
0.0
  0
LINE
  5
304
330
17
100
AcDbEntity
  8
GR_GUARDRAIL_POSTS
100
AcDbLine
 10
492.8658333333334
 20
22.508472222222224
 30
0.0
 11
492.8658333333334
 21
21.94847222222222
 31
0.0
  0
LINE
  5
305
330
17
100
AcDbEntity
  8
GR_GUARDRAIL_POSTS
100
AcDbLine
 10
499.1158333333334
 20
22.156805555555554
 30
0.0
 11
499.67583333333334
 21
22.156805555555554
 31
0.0
  0
LINE
  5
306
330
17
100
AcDbEntity
  8
GR_GUARDRAIL_POSTS
100
AcDbLine
 10
499.67583333333334
 20
22.156805555555554
 30
0.0
 11
499.67583333333334
 21
22.716805555555556
 31
0.0
  0
LINE
  5
307
330
17
100
AcDbEntity
  8
GR_GUARDRAIL_POSTS
100
AcDbLine
 10
499.67583333333334
 20
22.716805555555556
 30
0.0
 11
499.1158333333334
 21
22.716805555555556
 31
0.0
  0
LINE
  5
308
330
17
100
AcDbEntity
  8
GR_GUARDRAIL_POSTS
100
AcDbLine
 10
499.1158333333334
 20
22.716805555555556
 30
0.0
 11
499.1158333333334
 21
22.156805555555554
 31
0.0
  0
LINE
  5
309
330
17
100
AcDbEntity
  8
GR_GUARDRAIL_POSTS
100
AcDbLine
 10
505.3658333333334
 20
22.365138888888886
 30
0.0
 11
505.92583333333334
 21
22.365138888888886
 31
0.0
  0
LINE
  5
30A
330
17
100
AcDbEntity
  8
GR_GUARDRAIL_POSTS
100
AcDbLine
 10
505.92583333333334
 20
22.365138888888886
 30
0.0
 11
505.92583333333334
 21
22.92513888888889
 31
0.0
  0
LINE
  5
30B
330
17
100
AcDbEntity
  8
GR_GUARDRAIL_POSTS
100
AcDbLine
 10
505.92583333333334
 20
22.92513888888889
 30
0.0
 11
505.3658333333334
 21
22.92513888888889
 31
0.0
  0
LINE
  5
30C
330
17
100
AcDbEntity
  8
GR_GUARDRAIL_POSTS
100
AcDbLine
 10
505.3658333333334
 20
22.92513888888889
 30
0.0
 11
505.3658333333334
 21
22.365138888888886
 31
0.0
  0
LINE
  5
30D
330
17
100
AcDbEntity
  8
GR_GUARDRAIL_POSTS
100
AcDbLine
 10
511.6158333333334
 20
22.57347222222222
 30
0.0
 11
512.1758333333333
 21
22.57347222222222
 31
0.0
  0
LINE
  5
30E
330
17
100
AcDbEntity
  8
GR_GUARDRAIL_POSTS
100
AcDbLine
 10
512.1758333333333
 20
22.57347222222222
 30
0.0
 11
512.1758333333333
 21
23.133472222222224
 31
0.0
  0
LINE
  5
30F
330
17
100
AcDbEntity
  8
GR_GUARDRAIL_POSTS
100
AcDbLine
 10
512.1758333333333
 20
23.133472222222224
 30
0.0
 11
511.6158333333334
 21
23.133472222222224
 31
0.0
  0
LINE
  5
310
330
17
100
AcDbEntity
  8
GR_GUARDRAIL_POSTS
100
AcDbLine
 10
511.6158333333334
 20
23.133472222222224
 30
0.0
 11
511.6158333333334
 21
22.57347222222222
 31
0.0
  0
LINE
  5
311
330
17
100
AcDbEntity
  8
GR_GUARDRAIL_POSTS
100
AcDbLine
 10
517.8658333333334
 20
22.781805555555554
 30
0.0
 11
518.4258333333333
 21
22.781805555555554
 31
0.0
  0
LINE
  5
312
330
17
100
AcDbEntity
  8
GR_GUARDRAIL_POSTS
100
AcDbLine
 10
518.4258333333333
 20
22.781805555555554
 30
0.0
 11
518.4258333333333
 21
23.341805555555556
 31
0.0
  0
LINE
  5
313
330
17
100
AcDbEntity
  8
GR_GUARDRAIL_POSTS
100
AcDbLine
 10
518.4258333333333
 20
23.341805555555556
 30
0.0
 11
517.8658333333334
 21
23.341805555555556
 31
0.0
  0
LINE
  5
314
330
17
100
AcDbEntity
  8
GR_GUARDRAIL_POSTS
100
AcDbLine
 10
517.8658333333334
 20
23.341805555555556
 30
0.0
 11
517.8658333333334
 21
22.781805555555554
 31
0.0
  0
LINE
  5
315
330
17
100
AcDbEntity
  8
GR_GUARDRAIL_POSTS
100
AcDbLine
 10
524.1158333333334
 20
22.99013888888889
 30
0.0
 11
524.6758333333333
 21
22.99013888888889
 31
0.0
  0
LINE
  5
316
330
17
100
AcDbEntity
  8
GR_GUARDRAIL_POSTS
100
AcDbLine
 10
524.6758333333333
 20
22.99013888888889
 30
0.0
 11
524.6758333333333
 21
23.550138888888892
 31
0.0
  0
LINE
  5
317
330
17
100
AcDbEntity
  8
GR_GUARDRAIL_POSTS
100
AcDbLine
 10
524.6758333333333
 20
23.550138888888892
 30
0.0
 11
524.1158333333334
 21
23.550138888888892
 31
0.0
  0
LINE
  5
318
330
17
100
AcDbEntity
  8
GR_GUARDRAIL_POSTS
100
AcDbLine
 10
524.1158333333334
 20
23.550138888888892
 30
0.0
 11
524.1158333333334
 21
22.99013888888889
 31
0.0
  0
LINE
  5
319
330
17
100
AcDbEntity
  8
GR_GUARDRAIL_POSTS
100
AcDbLine
 10
530.3658333333334
 20
23.19847222222222
 30
0.0
 11
530.9258333333333
 21
23.19847222222222
 31
0.0
  0
LINE
  5
31A
330
17
100
AcDbEntity
  8
GR_GUARDRAIL_POSTS
100
AcDbLine
 10
530.9258333333333
 20
23.19847222222222
 30
0.0
 11
530.9258333333333
 21
23.758472222222224
 31
0.0
  0
LINE
  5
31B
330
17
100
AcDbEntity
  8
GR_GUARDRAIL_POSTS
100
AcDbLine
 10
530.9258333333333
 20
23.758472222222224
 30
0.0
 11
530.3658333333334
 21
23.758472222222224
 31
0.0
  0
LINE
  5
31C
330
17
100
AcDbEntity
  8
GR_GUARDRAIL_POSTS
100
AcDbLine
 10
530.3658333333334
 20
23.758472222222224
 30
0.0
 11
530.3658333333334
 21
23.19847222222222
 31
0.0
  0
LINE
  5
31D
330
17
100
AcDbEntity
  8
GR_GUARDRAIL_POSTS
100
AcDbLine
 10
536.6158333333334
 20
23.406805555555554
 30
0.0
 11
537.1758333333333
 21
23.406805555555554
 31
0.0
  0
LINE
  5
31E
330
17
100
AcDbEntity
  8
GR_GUARDRAIL_POSTS
100
AcDbLine
 10
537.1758333333333
 20
23.406805555555554
 30
0.0
 11
537.1758333333333
 21
23.966805555555556
 31
0.0
  0
LINE
  5
31F
330
17
100
AcDbEntity
  8
GR_GUARDRAIL_POSTS
100
AcDbLine
 10
537.1758333333333
 20
23.966805555555556
 30
0.0
 11
536.6158333333334
 21
23.966805555555556
 31
0.0
  0
LINE
  5
320
330
17
100
AcDbEntity
  8
GR_GUARDRAIL_POSTS
100
AcDbLine
 10
536.6158333333334
 20
23.966805555555556
 30
0.0
 11
536.6158333333334
 21
23.406805555555554
 31
0.0
  0
LINE
  5
321
330
17
100
AcDbEntity
  8
GR_GUARDRAIL_POSTS
100
AcDbLine
 10
542.8658333333334
 20
23.61513888888889
 30
0.0
 11
543.4258333333333
 21
23.61513888888889
 31
0.0
  0
LINE
  5
322
330
17
100
AcDbEntity
  8
GR_GUARDRAIL_POSTS
100
AcDbLine
 10
543.4258333333333
 20
23.61513888888889
 30
0.0
 11
543.4258333333333
 21
24.175138888888892
 31
0.0
  0
LINE
  5
323
330
17
100
AcDbEntity
  8
GR_GUARDRAIL_POSTS
100
AcDbLine
 10
543.4258333333333
 20
24.175138888888892
 30
0.0
 11
542.8658333333334
 21
24.175138888888892
 31
0.0
  0
LINE
  5
324
330
17
100
AcDbEntity
  8
GR_GUARDRAIL_POSTS
100
AcDbLine
 10
542.8658333333334
 20
24.175138888888892
 30
0.0
 11
542.8658333333334
 21
23.61513888888889
 31
0.0
  0
LINE
  5
325
330
17
100
AcDbEntity
  8
GR_GUARDRAIL_POSTS
100
AcDbLine
 10
549.1158333333334
 20
23.82347222222222
 30
0.0
 11
549.6758333333333
 21
23.82347222222222
 31
0.0
  0
LINE
  5
326
330
17
100
AcDbEntity
  8
GR_GUARDRAIL_POSTS
100
AcDbLine
 10
549.6758333333333
 20
23.82347222222222
 30
0.0
 11
549.6758333333333
 21
24.383472222222224
 31
0.0
  0
LINE
  5
327
330
17
100
AcDbEntity
  8
GR_GUARDRAIL_POSTS
100
AcDbLine
 10
549.6758333333333
 20
24.383472222222224
 30
0.0
 11
549.1158333333334
 21
24.383472222222224
 31
0.0
  0
LINE
  5
328
330
17
100
AcDbEntity
  8
GR_GUARDRAIL_POSTS
100
AcDbLine
 10
549.1158333333334
 20
24.383472222222224
 30
0.0
 11
549.1158333333334
 21
23.82347222222222
 31
0.0
  0
LINE
  5
329
330
17
100
AcDbEntity
  8
GR_GUARDRAIL_POSTS
100
AcDbLine
 10
555.3658333333334
 20
24.031805555555554
 30
0.0
 11
555.9258333333333
 21
24.031805555555554
 31
0.0
  0
LINE
  5
32A
330
17
100
AcDbEntity
  8
GR_GUARDRAIL_POSTS
100
AcDbLine
 10
555.9258333333333
 20
24.031805555555554
 30
0.0
 11
555.9258333333333
 21
24.591805555555556
 31
0.0
  0
LINE
  5
32B
330
17
100
AcDbEntity
  8
GR_GUARDRAIL_POSTS
100
AcDbLine
 10
555.9258333333333
 20
24.591805555555556
 30
0.0
 11
555.3658333333334
 21
24.591805555555556
 31
0.0
  0
LINE
  5
32C
330
17
100
AcDbEntity
  8
GR_GUARDRAIL_POSTS
100
AcDbLine
 10
555.3658333333334
 20
24.591805555555556
 30
0.0
 11
555.3658333333334
 21
24.031805555555554
 31
0.0
  0
LINE
  5
32D
330
17
100
AcDbEntity
  8
GR_GUARDRAIL_POSTS
100
AcDbLine
 10
561.6158333333334
 20
24.240138888888886
 30
0.0
 11
562.1758333333333
 21
24.240138888888886
 31
0.0
  0
LINE
  5
32E
330
17
100
AcDbEntity
  8
GR_GUARDRAIL_POSTS
100
AcDbLine
 10
562.1758333333333
 20
24.240138888888886
 30
0.0
 11
562.1758333333333
 21
24.80013888888889
 31
0.0
  0
LINE
  5
32F
330
17
100
AcDbEntity
  8
GR_GUARDRAIL_POSTS
100
AcDbLine
 10
562.1758333333333
 20
24.80013888888889
 30
0.0
 11
561.6158333333334
 21
24.80013888888889
 31
0.0
  0
LINE
  5
330
330
17
100
AcDbEntity
  8
GR_GUARDRAIL_POSTS
100
AcDbLine
 10
561.6158333333334
 20
24.80013888888889
 30
0.0
 11
561.6158333333334
 21
24.240138888888886
 31
0.0
  0
LINE
  5
331
330
17
100
AcDbEntity
  8
GR_GUARDRAIL_POSTS
100
AcDbLine
 10
567.8658333333334
 20
24.44847222222222
 30
0.0
 11
568.4258333333333
 21
24.44847222222222
 31
0.0
  0
LINE
  5
332
330
17
100
AcDbEntity
  8
GR_GUARDRAIL_POSTS
100
AcDbLine
 10
568.4258333333333
 20
24.44847222222222
 30
0.0
 11
568.4258333333333
 21
25.008472222222224
 31
0.0
  0
LINE
  5
333
330
17
100
AcDbEntity
  8
GR_GUARDRAIL_POSTS
100
AcDbLine
 10
568.4258333333333
 20
25.008472222222224
 30
0.0
 11
567.8658333333334
 21
25.008472222222224
 31
0.0
  0
LINE
  5
334
330
17
100
AcDbEntity
  8
GR_GUARDRAIL_POSTS
100
AcDbLine
 10
567.8658333333334
 20
25.008472222222224
 30
0.0
 11
567.8658333333334
 21
24.44847222222222
 31
0.0
  0
LINE
  5
335
330
17
100
AcDbEntity
  8
GR_GUARDRAIL_POSTS
100
AcDbLine
 10
574.1158333333334
 20
24.656805555555554
 30
0.0
 11
574.6758333333333
 21
24.656805555555554
 31
0.0
  0
LINE
  5
336
330
17
100
AcDbEntity
  8
GR_GUARDRAIL_POSTS
100
AcDbLine
 10
574.6758333333333
 20
24.656805555555554
 30
0.0
 11
574.6758333333333
 21
25.216805555555556
 31
0.0
  0
LINE
  5
337
330
17
100
AcDbEntity
  8
GR_GUARDRAIL_POSTS
100
AcDbLine
 10
574.6758333333333
 20
25.216805555555556
 30
0.0
 11
574.1158333333334
 21
25.216805555555556
 31
0.0
  0
LINE
  5
338
330
17
100
AcDbEntity
  8
GR_GUARDRAIL_POSTS
100
AcDbLine
 10
574.1158333333334
 20
25.216805555555556
 30
0.0
 11
574.1158333333334
 21
24.656805555555554
 31
0.0
  0
LINE
  5
339
330
17
100
AcDbEntity
  8
GR_GUARDRAIL_POSTS
100
AcDbLine
 10
580.3658333333334
 20
24.865138888888886
 30
0.0
 11
580.9258333333333
 21
24.865138888888886
 31
0.0
  0
LINE
  5
33A
330
17
100
AcDbEntity
  8
GR_GUARDRAIL_POSTS
100
AcDbLine
 10
580.9258333333333
 20
24.865138888888886
 30
0.0
 11
580.9258333333333
 21
25.42513888888889
 31
0.0
  0
LINE
  5
33B
330
17
100
AcDbEntity
  8
GR_GUARDRAIL_POSTS
100
AcDbLine
 10
580.9258333333333
 20
25.42513888888889
 30
0.0
 11
580.3658333333334
 21
25.42513888888889
 31
0.0
  0
LINE
  5
33C
330
17
100
AcDbEntity
  8
GR_GUARDRAIL_POSTS
100
AcDbLine
 10
580.3658333333334
 20
25.42513888888889
 30
0.0
 11
580.3658333333334
 21
24.865138888888886
 31
0.0
  0
LINE
  5
33D
330
17
100
AcDbEntity
  8
GR_GUARDRAIL_POSTS
100
AcDbLine
 10
586.6158333333334
 20
25.07347222222222
 30
0.0
 11
587.1758333333333
 21
25.07347222222222
 31
0.0
  0
LINE
  5
33E
330
17
100
AcDbEntity
  8
GR_GUARDRAIL_POSTS
100
AcDbLine
 10
587.1758333333333
 20
25.07347222222222
 30
0.0
 11
587.1758333333333
 21
25.633472222222224
 31
0.0
  0
LINE
  5
33F
330
17
100
AcDbEntity
  8
GR_GUARDRAIL_POSTS
100
AcDbLine
 10
587.1758333333333
 20
25.633472222222224
 30
0.0
 11
586.6158333333334
 21
25.633472222222224
 31
0.0
  0
LINE
  5
340
330
17
100
AcDbEntity
  8
GR_GUARDRAIL_POSTS
100
AcDbLine
 10
586.6158333333334
 20
25.633472222222224
 30
0.0
 11
586.6158333333334
 21
25.07347222222222
 31
0.0
  0
LINE
  5
341
330
17
100
AcDbEntity
  8
GR_GUARDRAIL_POSTS
100
AcDbLine
 10
592.8658333333334
 20
25.281805555555554
 30
0.0
 11
593.4258333333333
 21
25.281805555555554
 31
0.0
  0
LINE
  5
342
330
17
100
AcDbEntity
  8
GR_GUARDRAIL_POSTS
100
AcDbLine
 10
593.4258333333333
 20
25.281805555555554
 30
0.0
 11
593.4258333333333
 21
25.841805555555556
 31
0.0
  0
LINE
  5
343
330
17
100
AcDbEntity
  8
GR_GUARDRAIL_POSTS
100
AcDbLine
 10
593.4258333333333
 20
25.841805555555556
 30
0.0
 11
592.8658333333334
 21
25.841805555555556
 31
0.0
  0
LINE
  5
344
330
17
100
AcDbEntity
  8
GR_GUARDRAIL_POSTS
100
AcDbLine
 10
592.8658333333334
 20
25.841805555555556
 30
0.0
 11
592.8658333333334
 21
25.281805555555554
 31
0.0
  0
LINE
  5
345
330
17
100
AcDbEntity
  8
GR_GUARDRAIL_POSTS
100
AcDbLine
 10
599.1158333333334
 20
25.51833333333333
 30
0.0
 11
599.6758333333333
 21
25.51833333333333
 31
0.0
  0
LINE
  5
346
330
17
100
AcDbEntity
  8
GR_GUARDRAIL_POSTS
100
AcDbLine
 10
599.6758333333333
 20
25.51833333333333
 30
0.0
 11
599.6758333333333
 21
26.078333333333333
 31
0.0
  0
LINE
  5
347
330
17
100
AcDbEntity
  8
GR_GUARDRAIL_POSTS
100
AcDbLine
 10
599.6758333333333
 20
26.078333333333333
 30
0.0
 11
599.1158333333334
 21
26.078333333333333
 31
0.0
  0
LINE
  5
348
330
17
100
AcDbEntity
  8
GR_GUARDRAIL_POSTS
100
AcDbLine
 10
599.1158333333334
 20
26.078333333333333
 30
0.0
 11
599.1158333333334
 21
25.51833333333333
 31
0.0
  0
LINE
  5
349
330
17
100
AcDbEntity
  8
GR_GUARDRAIL_POSTS
100
AcDbLine
 10
605.3658333333334
 20
26.01833333333333
 30
0.0
 11
605.9258333333333
 21
26.01833333333333
 31
0.0
  0
LINE
  5
34A
330
17
100
AcDbEntity
  8
GR_GUARDRAIL_POSTS
100
AcDbLine
 10
605.9258333333333
 20
26.01833333333333
 30
0.0
 11
605.9258333333333
 21
26.578333333333333
 31
0.0
  0
LINE
  5
34B
330
17
100
AcDbEntity
  8
GR_GUARDRAIL_POSTS
100
AcDbLine
 10
605.9258333333333
 20
26.578333333333333
 30
0.0
 11
605.3658333333334
 21
26.578333333333333
 31
0.0
  0
LINE
  5
34C
330
17
100
AcDbEntity
  8
GR_GUARDRAIL_POSTS
100
AcDbLine
 10
605.3658333333334
 20
26.578333333333333
 30
0.0
 11
605.3658333333334
 21
26.01833333333333
 31
0.0
  0
LINE
  5
34D
330
17
100
AcDbEntity
  8
GR_GUARDRAIL_POSTS
100
AcDbLine
 10
611.6158333333334
 20
26.51833333333333
 30
0.0
 11
612.1758333333333
 21
26.51833333333333
 31
0.0
  0
LINE
  5
34E
330
17
100
AcDbEntity
  8
GR_GUARDRAIL_POSTS
100
AcDbLine
 10
612.1758333333333
 20
26.51833333333333
 30
0.0
 11
612.1758333333333
 21
27.078333333333333
 31
0.0
  0
LINE
  5
34F
330
17
100
AcDbEntity
  8
GR_GUARDRAIL_POSTS
100
AcDbLine
 10
612.1758333333333
 20
27.078333333333333
 30
0.0
 11
611.6158333333334
 21
27.078333333333333
 31
0.0
  0
LINE
  5
350
330
17
100
AcDbEntity
  8
GR_GUARDRAIL_POSTS
100
AcDbLine
 10
611.6158333333334
 20
27.078333333333333
 30
0.0
 11
611.6158333333334
 21
26.51833333333333
 31
0.0
  0
LINE
  5
351
330
17
100
AcDbEntity
  8
GR_GUARDRAIL_POSTS
100
AcDbLine
 10
617.8658333333334
 20
27.01833333333333
 30
0.0
 11
618.4258333333333
 21
27.01833333333333
 31
0.0
  0
LINE
  5
352
330
17
100
AcDbEntity
  8
GR_GUARDRAIL_POSTS
100
AcDbLine
 10
618.4258333333333
 20
27.01833333333333
 30
0.0
 11
618.4258333333333
 21
27.578333333333333
 31
0.0
  0
LINE
  5
353
330
17
100
AcDbEntity
  8
GR_GUARDRAIL_POSTS
100
AcDbLine
 10
618.4258333333333
 20
27.578333333333333
 30
0.0
 11
617.8658333333334
 21
27.578333333333333
 31
0.0
  0
LINE
  5
354
330
17
100
AcDbEntity
  8
GR_GUARDRAIL_POSTS
100
AcDbLine
 10
617.8658333333334
 20
27.578333333333333
 30
0.0
 11
617.8658333333334
 21
27.01833333333333
 31
0.0
  0
LINE
  5
355
330
17
100
AcDbEntity
  8
GR_GUARDRAIL_POSTS
100
AcDbLine
 10
624.1158333333334
 20
27.598888888888887
 30
0.0
 11
624.6758333333333
 21
27.598888888888887
 31
0.0
  0
LINE
  5
356
330
17
100
AcDbEntity
  8
GR_GUARDRAIL_POSTS
100
AcDbLine
 10
624.6758333333333
 20
27.598888888888887
 30
0.0
 11
624.6758333333333
 21
28.15888888888889
 31
0.0
  0
LINE
  5
357
330
17
100
AcDbEntity
  8
GR_GUARDRAIL_POSTS
100
AcDbLine
 10
624.6758333333333
 20
28.15888888888889
 30
0.0
 11
624.1158333333334
 21
28.15888888888889
 31
0.0
  0
LINE
  5
358
330
17
100
AcDbEntity
  8
GR_GUARDRAIL_POSTS
100
AcDbLine
 10
624.1158333333334
 20
28.15888888888889
 30
0.0
 11
624.1158333333334
 21
27.598888888888887
 31
0.0
  0
LINE
  5
359
330
17
100
AcDbEntity
  8
GR_GUARDRAIL_POSTS
100
AcDbLine
 10
630.3658333333334
 20
28.93222222222222
 30
0.0
 11
630.9258333333333
 21
28.93222222222222
 31
0.0
  0
LINE
  5
35A
330
17
100
AcDbEntity
  8
GR_GUARDRAIL_POSTS
100
AcDbLine
 10
630.9258333333333
 20
28.93222222222222
 30
0.0
 11
630.9258333333333
 21
29.49222222222222
 31
0.0
  0
LINE
  5
35B
330
17
100
AcDbEntity
  8
GR_GUARDRAIL_POSTS
100
AcDbLine
 10
630.9258333333333
 20
29.49222222222222
 30
0.0
 11
630.3658333333334
 21
29.49222222222222
 31
0.0
  0
LINE
  5
35C
330
17
100
AcDbEntity
  8
GR_GUARDRAIL_POSTS
100
AcDbLine
 10
630.3658333333334
 20
29.49222222222222
 30
0.0
 11
630.3658333333334
 21
28.93222222222222
 31
0.0
  0
LINE
  5
35D
330
17
100
AcDbEntity
  8
GR_SHOULDER_FLARE
100
AcDbLine
 10
468.14583333333337
 20
25.0
 30
0.0
 11
486.2916666666667
 21
25.0
 31
0.0
  0
LINE
  5
35E
330
17
100
AcDbEntity
  8
GR_SHOULDER_FLARE
100
AcDbLine
 10
486.2916666666667
 20
25.0
 30
0.0
 11
598.7916666666667
 21
28.75
 31
0.0
  0
LINE
  5
35F
330
17
100
AcDbEntity
  8
GR_SHOULDER_FLARE
100
AcDbLine
 10
598.7916666666667
 20
28.75
 30
0.0
 11
623.7916666666667
 21
31.416666666666668
 31
0.0
  0
LINE
  5
360
330
17
100
AcDbEntity
  8
GR_SHOULDER_FLARE
100
AcDbLine
 10
623.7916666666667
 20
31.416666666666668
 30
0.0
 11
636.2916666666667
 21
34.41666666666667
 31
0.0
  0
LINE
  5
361
330
17
100
AcDbEntity
  8
GR_SHOULDER_FLARE
100
AcDbLine
 10
636.2916666666667
 20
34.41666666666667
 30
0.0
 11
786.2916666666667
 21
12.0
 31
0.0
  0
LINE
  5
362
330
17
100
AcDbEntity
  8
GR_SHOULDER_FLARE
100
AcDbLine
 10
719.3771685254028
 20
22.0
 30
0.0
 11
836.2916666666667
 21
22.0
 31
0.0
  0
LINE
  5
363
330
17
100
AcDbEntity
  8
GR_FORESLOPE_W
100
AcDbLine
 10
836.2916666666667
 20
42.0
 30
0.0
 11
636.2916666666667
 21
42.0
 31
0.0
  0
LINE
  5
364
330
17
100
AcDbEntity
  8
GR_FORESLOPE_W
100
AcDbLine
 10
636.2916666666667
 20
42.0
 30
0.0
 11
561.2916666666667
 21
27.5
 31
0.0
  0
TEXT
  5
365
330
17
100
AcDbEntity
  8
GR_TEXT
100
AcDbText
 10
691.2916666666667
 20
47.0
 30
0.0
 40
2.5
  1
LA = 30.00'
  7
Engineering Regular
 11
691.2916666666667
 21
47.0
 31
0.0
100
AcDbText
  0
LINE
  5
366
330
17
100
AcDbEntity
  8
GR_DIMENSION
100
AcDbLine
 10
468.14583333333337
 20
60.0
 30
0.0
 11
623.7916666666667
 21
60.0
 31
0.0
  0
LINE
  5
367
330
17
100
AcDbEntity
  8
GR_DIMENSION
100
AcDbLine
 10
468.14583333333337
 20
58.0
 30
0.0
 11
468.14583333333337
 21
62.0
 31
0.0
  0
LINE
  5
368
330
17
100
AcDbEntity
  8
GR_DIMENSION
100
AcDbLine
 10
623.7916666666667
 20
58.0
 30
0.0
 11
623.7916666666667
 21
62.0
 31
0.0
  0
TEXT
  5
369
330
17
100
AcDbEntity
  8
GR_TEXT
100
AcDbText
 10
545.96875
 20
64.0
 30
0.0
 40
2.5
  1
A = 155.65'
  7
Engineering Regular
 72
1
 11
545.96875
 21
64.0
 31
0.0
100
AcDbText
 73
2
  0
LINE
  5
36A
330
17
100
AcDbEntity
  8
GR_DIMENSION
100
AcDbLine
 10
486.2916666666667
 20
69.0
 30
0.0
 11
598.7916666666667
 21
69.0
 31
0.0
  0
LINE
  5
36B
330
17
100
AcDbEntity
  8
GR_DIMENSION
100
AcDbLine
 10
486.2916666666667
 20
67.0
 30
0.0
 11
486.2916666666667
 21
71.0
 31
0.0
  0
LINE
  5
36C
330
17
100
AcDbEntity
  8
GR_DIMENSION
100
AcDbLine
 10
598.7916666666667
 20
67.0
 30
0.0
 11
598.7916666666667
 21
71.0
 31
0.0
  0
TEXT
  5
36D
330
17
100
AcDbEntity
  8
GR_TEXT
100
AcDbText
 10
542.5416666666667
 20
73.0
 30
0.0
 40
2.5
  1
B = 112.50'
  7
Engineering Regular
 72
1
 11
542.5416666666667
 21
73.0
 31
0.0
100
AcDbText
 73
2
  0
LINE
  5
36E
330
17
100
AcDbEntity
  8
GR_DIMENSION
100
AcDbLine
 10
598.7916666666667
 20
78.0
 30
0.0
 11
623.7916666666667
 21
78.0
 31
0.0
  0
LINE
  5
36F
330
17
100
AcDbEntity
  8
GR_DIMENSION
100
AcDbLine
 10
598.7916666666667
 20
76.0
 30
0.0
 11
598.7916666666667
 21
80.0
 31
0.0
  0
LINE
  5
370
330
17
100
AcDbEntity
  8
GR_DIMENSION
100
AcDbLine
 10
623.7916666666667
 20
76.0
 30
0.0
 11
623.7916666666667
 21
80.0
 31
0.0
  0
TEXT
  5
371
330
17
100
AcDbEntity
  8
GR_TEXT
100
AcDbText
 10
611.2916666666667
 20
82.0
 30
0.0
 40
2.5
  1
TERMINAL = 25.00'
  7
Engineering Regular
 72
1
 11
611.2916666666667
 21
82.0
 31
0.0
100
AcDbText
 73
2
  0
LINE
  5
372
330
17
100
AcDbEntity
  8
GR_DIMENSION
100
AcDbLine
 10
623.7916666666667
 20
87.0
 30
0.0
 11
636.2916666666667
 21
87.0
 31
0.0
  0
LINE
  5
373
330
17
100
AcDbEntity
  8
GR_DIMENSION
100
AcDbLine
 10
623.7916666666667
 20
85.0
 30
0.0
 11
623.7916666666667
 21
89.0
 31
0.0
  0
LINE
  5
374
330
17
100
AcDbEntity
  8
GR_DIMENSION
100
AcDbLine
 10
636.2916666666667
 20
85.0
 30
0.0
 11
636.2916666666667
 21
89.0
 31
0.0
  0
TEXT
  5
375
330
17
100
AcDbEntity
  8
GR_TEXT
100
AcDbText
 10
630.0416666666667
 20
91.0
 30
0.0
 40
2.5
  1
GATING = 12.50'
  7
Engineering Regular
 72
1
 11
630.0416666666667
 21
91.0
 31
0.0
100
AcDbText
 73
2
  0
LINE
  5
376
330
17
100
AcDbEntity
  8
GR_DIMENSION
100
AcDbLine
 10
561.2916666666667
 20
96.0
 30
0.0
 11
636.2916666666667
 21
96.0
 31
0.0
  0
LINE
  5
377
330
17
100
AcDbEntity
  8
GR_DIMENSION
100
AcDbLine
 10
561.2916666666667
 20
94.0
 30
0.0
 11
561.2916666666667
 21
98.0
 31
0.0
  0
LINE
  5
378
330
17
100
AcDbEntity
  8
GR_DIMENSION
100
AcDbLine
 10
636.2916666666667
 20
94.0
 30
0.0
 11
636.2916666666667
 21
98.0
 31
0.0
  0
TEXT
  5
379
330
17
100
AcDbEntity
  8
GR_TEXT
100
AcDbText
 10
598.7916666666667
 20
100.0
 30
0.0
 40
2.5
  1
CZ = 75.00'
  7
Engineering Regular
 72
1
 11
598.7916666666667
 21
100.0
 31
0.0
100
AcDbText
 73
2
  0
LINE
  5
37A
330
17
100
AcDbEntity
  8
GR_DIMENSION
100
AcDbLine
 10
636.2916666666667
 20
105.0
 30
0.0
 11
786.2916666666667
 21
105.0
 31
0.0
  0
LINE
  5
37B
330
17
100
AcDbEntity
  8
GR_DIMENSION
100
AcDbLine
 10
636.2916666666667
 20
103.0
 30
0.0
 11
636.2916666666667
 21
107.0
 31
0.0
  0
LINE
  5
37C
330
17
100
AcDbEntity
  8
GR_DIMENSION
100
AcDbLine
 10
786.2916666666667
 20
103.0
 30
0.0
 11
786.2916666666667
 21
107.0
 31
0.0
  0
TEXT
  5
37D
330
17
100
AcDbEntity
  8
GR_TEXT
100
AcDbText
 10
711.2916666666667
 20
109.0
 30
0.0
 40
2.5
  1
SHLDR = 150.00'
  7
Engineering Regular
 72
1
 11
711.2916666666667
 21
109.0
 31
0.0
100
AcDbText
 73
2
  0
LINE
  5
37E
330
17
100
AcDbEntity
  8
GR_GUARDRAIL
100
AcDbLine
 10
468.14583333333337
 20
-22.0
 30
0.0
 11
477.21875
 21
-22.0
 31
0.0
  0
LINE
  5
37F
330
17
100
AcDbEntity
  8
GR_GUARDRAIL
100
AcDbLine
 10
477.21875
 20
-22.0
 30
0.0
 11
486.2916666666667
 21
-22.0
 31
0.0
  0
LINE
  5
380
330
17
100
AcDbEntity
  8
GR_GUARDRAIL
100
AcDbLine
 10
486.2916666666667
 20
-22.0
 30
0.0
 11
487.8541666666667
 21
-22.052083333333332
 31
0.0
  0
LINE
  5
381
330
17
100
AcDbEntity
  8
GR_GUARDRAIL
100
AcDbLine
 10
487.8541666666667
 20
-22.052083333333332
 30
0.0
 11
489.4166666666667
 21
-22.104166666666668
 31
0.0
  0
LINE
  5
382
330
17
100
AcDbEntity
  8
GR_GUARDRAIL
100
AcDbLine
 10
489.4166666666667
 20
-22.104166666666668
 30
0.0
 11
490.9791666666667
 21
-22.15625
 31
0.0
  0
LINE
  5
383
330
17
100
AcDbEntity
  8
GR_GUARDRAIL
100
AcDbLine
 10
490.9791666666667
 20
-22.15625
 30
0.0
 11
492.5416666666667
 21
-22.208333333333332
 31
0.0
  0
LINE
  5
384
330
17
100
AcDbEntity
  8
GR_GUARDRAIL
100
AcDbLine
 10
492.5416666666667
 20
-22.208333333333332
 30
0.0
 11
494.1041666666667
 21
-22.260416666666668
 31
0.0
  0
LINE
  5
385
330
17
100
AcDbEntity
  8
GR_GUARDRAIL
100
AcDbLine
 10
494.1041666666667
 20
-22.260416666666668
 30
0.0
 11
495.6666666666667
 21
-22.3125
 31
0.0
  0
LINE
  5
386
330
17
100
AcDbEntity
  8
GR_GUARDRAIL
100
AcDbLine
 10
495.6666666666667
 20
-22.3125
 30
0.0
 11
497.2291666666667
 21
-22.364583333333332
 31
0.0
  0
LINE
  5
387
330
17
100
AcDbEntity
  8
GR_GUARDRAIL
100
AcDbLine
 10
497.2291666666667
 20
-22.364583333333332
 30
0.0
 11
498.7916666666667
 21
-22.416666666666668
 31
0.0
  0
LINE
  5
388
330
17
100
AcDbEntity
  8
GR_GUARDRAIL
100
AcDbLine
 10
498.7916666666667
 20
-22.416666666666668
 30
0.0
 11
500.3541666666667
 21
-22.46875
 31
0.0
  0
LINE
  5
389
330
17
100
AcDbEntity
  8
GR_GUARDRAIL
100
AcDbLine
 10
500.3541666666667
 20
-22.46875
 30
0.0
 11
501.9166666666667
 21
-22.520833333333332
 31
0.0
  0
LINE
  5
38A
330
17
100
AcDbEntity
  8
GR_GUARDRAIL
100
AcDbLine
 10
501.9166666666667
 20
-22.520833333333332
 30
0.0
 11
503.4791666666667
 21
-22.572916666666668
 31
0.0
  0
LINE
  5
38B
330
17
100
AcDbEntity
  8
GR_GUARDRAIL
100
AcDbLine
 10
503.4791666666667
 20
-22.572916666666668
 30
0.0
 11
505.0416666666667
 21
-22.625
 31
0.0
  0
LINE
  5
38C
330
17
100
AcDbEntity
  8
GR_GUARDRAIL
100
AcDbLine
 10
505.0416666666667
 20
-22.625
 30
0.0
 11
506.6041666666667
 21
-22.677083333333332
 31
0.0
  0
LINE
  5
38D
330
17
100
AcDbEntity
  8
GR_GUARDRAIL
100
AcDbLine
 10
506.6041666666667
 20
-22.677083333333332
 30
0.0
 11
508.1666666666667
 21
-22.729166666666668
 31
0.0
  0
LINE
  5
38E
330
17
100
AcDbEntity
  8
GR_GUARDRAIL
100
AcDbLine
 10
508.1666666666667
 20
-22.729166666666668
 30
0.0
 11
509.7291666666667
 21
-22.78125
 31
0.0
  0
LINE
  5
38F
330
17
100
AcDbEntity
  8
GR_GUARDRAIL
100
AcDbLine
 10
509.7291666666667
 20
-22.78125
 30
0.0
 11
511.2916666666667
 21
-22.833333333333332
 31
0.0
  0
LINE
  5
390
330
17
100
AcDbEntity
  8
GR_TERMINAL
100
AcDbLine
 10
511.2916666666667
 20
-22.833333333333332
 30
0.0
 11
514.4166666666667
 21
-23.083333333333332
 31
0.0
  0
LINE
  5
391
330
17
100
AcDbEntity
  8
GR_TERMINAL
100
AcDbLine
 10
514.4166666666667
 20
-23.083333333333332
 30
0.0
 11
517.5416666666667
 21
-23.333333333333332
 31
0.0
  0
LINE
  5
392
330
17
100
AcDbEntity
  8
GR_TERMINAL
100
AcDbLine
 10
517.5416666666667
 20
-23.333333333333332
 30
0.0
 11
520.6666666666667
 21
-23.583333333333332
 31
0.0
  0
LINE
  5
393
330
17
100
AcDbEntity
  8
GR_TERMINAL
100
AcDbLine
 10
520.6666666666667
 20
-23.583333333333332
 30
0.0
 11
523.7916666666667
 21
-23.833333333333332
 31
0.0
  0
LINE
  5
394
330
17
100
AcDbEntity
  8
GR_TERMINAL
100
AcDbLine
 10
523.7916666666667
 20
-23.833333333333332
 30
0.0
 11
526.9166666666667
 21
-24.083333333333332
 31
0.0
  0
LINE
  5
395
330
17
100
AcDbEntity
  8
GR_TERMINAL
100
AcDbLine
 10
526.9166666666667
 20
-24.083333333333332
 30
0.0
 11
530.0416666666667
 21
-24.333333333333332
 31
0.0
  0
LINE
  5
396
330
17
100
AcDbEntity
  8
GR_TERMINAL
100
AcDbLine
 10
530.0416666666667
 20
-24.333333333333332
 30
0.0
 11
533.1666666666667
 21
-24.583333333333332
 31
0.0
  0
LINE
  5
397
330
17
100
AcDbEntity
  8
GR_TERMINAL
100
AcDbLine
 10
533.1666666666667
 20
-24.583333333333332
 30
0.0
 11
536.2916666666667
 21
-24.833333333333332
 31
0.0
  0
LINE
  5
398
330
17
100
AcDbEntity
  8
GR_GATING
100
AcDbLine
 10
536.2916666666667
 20
-24.833333333333332
 30
0.0
 11
539.4166666666667
 21
-25.5
 31
0.0
  0
LINE
  5
399
330
17
100
AcDbEntity
  8
GR_GATING
100
AcDbLine
 10
539.4166666666667
 20
-25.5
 30
0.0
 11
542.5416666666667
 21
-26.166666666666664
 31
0.0
  0
LINE
  5
39A
330
17
100
AcDbEntity
  8
GR_GATING
100
AcDbLine
 10
542.5416666666667
 20
-26.166666666666664
 30
0.0
 11
545.6666666666667
 21
-26.833333333333332
 31
0.0
  0
LINE
  5
39B
330
17
100
AcDbEntity
  8
GR_GATING
100
AcDbLine
 10
545.6666666666667
 20
-26.833333333333332
 30
0.0
 11
548.7916666666667
 21
-27.5
 31
0.0
  0
LINE
  5
39C
330
17
100
AcDbEntity
  8
GR_GUARDRAIL_POSTS
100
AcDbLine
 10
467.8658333333334
 20
-22.28
 30
0.0
 11
468.42583333333334
 21
-22.28
 31
0.0
  0
LINE
  5
39D
330
17
100
AcDbEntity
  8
GR_GUARDRAIL_POSTS
100
AcDbLine
 10
468.42583333333334
 20
-22.28
 30
0.0
 11
468.42583333333334
 21
-21.72
 31
0.0
  0
LINE
  5
39E
330
17
100
AcDbEntity
  8
GR_GUARDRAIL_POSTS
100
AcDbLine
 10
468.42583333333334
 20
-21.72
 30
0.0
 11
467.8658333333334
 21
-21.72
 31
0.0
  0
LINE
  5
39F
330
17
100
AcDbEntity
  8
GR_GUARDRAIL_POSTS
100
AcDbLine
 10
467.8658333333334
 20
-21.72
 30
0.0
 11
467.8658333333334
 21
-22.28
 31
0.0
  0
LINE
  5
3A0
330
17
100
AcDbEntity
  8
GR_GUARDRAIL_POSTS
100
AcDbLine
 10
474.1158333333334
 20
-22.28
 30
0.0
 11
474.67583333333334
 21
-22.28
 31
0.0
  0
LINE
  5
3A1
330
17
100
AcDbEntity
  8
GR_GUARDRAIL_POSTS
100
AcDbLine
 10
474.67583333333334
 20
-22.28
 30
0.0
 11
474.67583333333334
 21
-21.72
 31
0.0
  0
LINE
  5
3A2
330
17
100
AcDbEntity
  8
GR_GUARDRAIL_POSTS
100
AcDbLine
 10
474.67583333333334
 20
-21.72
 30
0.0
 11
474.1158333333334
 21
-21.72
 31
0.0
  0
LINE
  5
3A3
330
17
100
AcDbEntity
  8
GR_GUARDRAIL_POSTS
100
AcDbLine
 10
474.1158333333334
 20
-21.72
 30
0.0
 11
474.1158333333334
 21
-22.28
 31
0.0
  0
LINE
  5
3A4
330
17
100
AcDbEntity
  8
GR_GUARDRAIL_POSTS
100
AcDbLine
 10
480.3658333333334
 20
-22.28
 30
0.0
 11
480.92583333333334
 21
-22.28
 31
0.0
  0
LINE
  5
3A5
330
17
100
AcDbEntity
  8
GR_GUARDRAIL_POSTS
100
AcDbLine
 10
480.92583333333334
 20
-22.28
 30
0.0
 11
480.92583333333334
 21
-21.72
 31
0.0
  0
LINE
  5
3A6
330
17
100
AcDbEntity
  8
GR_GUARDRAIL_POSTS
100
AcDbLine
 10
480.92583333333334
 20
-21.72
 30
0.0
 11
480.3658333333334
 21
-21.72
 31
0.0
  0
LINE
  5
3A7
330
17
100
AcDbEntity
  8
GR_GUARDRAIL_POSTS
100
AcDbLine
 10
480.3658333333334
 20
-21.72
 30
0.0
 11
480.3658333333334
 21
-22.28
 31
0.0
  0
LINE
  5
3A8
330
17
100
AcDbEntity
  8
GR_GUARDRAIL_POSTS
100
AcDbLine
 10
486.6158333333334
 20
-22.30013888888889
 30
0.0
 11
487.17583333333334
 21
-22.30013888888889
 31
0.0
  0
LINE
  5
3A9
330
17
100
AcDbEntity
  8
GR_GUARDRAIL_POSTS
100
AcDbLine
 10
487.17583333333334
 20
-22.30013888888889
 30
0.0
 11
487.17583333333334
 21
-21.740138888888886
 31
0.0
  0
LINE
  5
3AA
330
17
100
AcDbEntity
  8
GR_GUARDRAIL_POSTS
100
AcDbLine
 10
487.17583333333334
 20
-21.740138888888886
 30
0.0
 11
486.6158333333334
 21
-21.740138888888886
 31
0.0
  0
LINE
  5
3AB
330
17
100
AcDbEntity
  8
GR_GUARDRAIL_POSTS
100
AcDbLine
 10
486.6158333333334
 20
-21.740138888888886
 30
0.0
 11
486.6158333333334
 21
-22.30013888888889
 31
0.0
  0
LINE
  5
3AC
330
17
100
AcDbEntity
  8
GR_GUARDRAIL_POSTS
100
AcDbLine
 10
492.8658333333334
 20
-22.508472222222224
 30
0.0
 11
493.42583333333334
 21
-22.508472222222224
 31
0.0
  0
LINE
  5
3AD
330
17
100
AcDbEntity
  8
GR_GUARDRAIL_POSTS
100
AcDbLine
 10
493.42583333333334
 20
-22.508472222222224
 30
0.0
 11
493.42583333333334
 21
-21.94847222222222
 31
0.0
  0
LINE
  5
3AE
330
17
100
AcDbEntity
  8
GR_GUARDRAIL_POSTS
100
AcDbLine
 10
493.42583333333334
 20
-21.94847222222222
 30
0.0
 11
492.8658333333334
 21
-21.94847222222222
 31
0.0
  0
LINE
  5
3AF
330
17
100
AcDbEntity
  8
GR_GUARDRAIL_POSTS
100
AcDbLine
 10
492.8658333333334
 20
-21.94847222222222
 30
0.0
 11
492.8658333333334
 21
-22.508472222222224
 31
0.0
  0
LINE
  5
3B0
330
17
100
AcDbEntity
  8
GR_GUARDRAIL_POSTS
100
AcDbLine
 10
499.1158333333334
 20
-22.716805555555556
 30
0.0
 11
499.67583333333334
 21
-22.716805555555556
 31
0.0
  0
LINE
  5
3B1
330
17
100
AcDbEntity
  8
GR_GUARDRAIL_POSTS
100
AcDbLine
 10
499.67583333333334
 20
-22.716805555555556
 30
0.0
 11
499.67583333333334
 21
-22.156805555555554
 31
0.0
  0
LINE
  5
3B2
330
17
100
AcDbEntity
  8
GR_GUARDRAIL_POSTS
100
AcDbLine
 10
499.67583333333334
 20
-22.156805555555554
 30
0.0
 11
499.1158333333334
 21
-22.156805555555554
 31
0.0
  0
LINE
  5
3B3
330
17
100
AcDbEntity
  8
GR_GUARDRAIL_POSTS
100
AcDbLine
 10
499.1158333333334
 20
-22.156805555555554
 30
0.0
 11
499.1158333333334
 21
-22.716805555555556
 31
0.0
  0
LINE
  5
3B4
330
17
100
AcDbEntity
  8
GR_GUARDRAIL_POSTS
100
AcDbLine
 10
505.3658333333334
 20
-22.92513888888889
 30
0.0
 11
505.92583333333334
 21
-22.92513888888889
 31
0.0
  0
LINE
  5
3B5
330
17
100
AcDbEntity
  8
GR_GUARDRAIL_POSTS
100
AcDbLine
 10
505.92583333333334
 20
-22.92513888888889
 30
0.0
 11
505.92583333333334
 21
-22.365138888888886
 31
0.0
  0
LINE
  5
3B6
330
17
100
AcDbEntity
  8
GR_GUARDRAIL_POSTS
100
AcDbLine
 10
505.92583333333334
 20
-22.365138888888886
 30
0.0
 11
505.3658333333334
 21
-22.365138888888886
 31
0.0
  0
LINE
  5
3B7
330
17
100
AcDbEntity
  8
GR_GUARDRAIL_POSTS
100
AcDbLine
 10
505.3658333333334
 20
-22.365138888888886
 30
0.0
 11
505.3658333333334
 21
-22.92513888888889
 31
0.0
  0
LINE
  5
3B8
330
17
100
AcDbEntity
  8
GR_GUARDRAIL_POSTS
100
AcDbLine
 10
511.6158333333334
 20
-23.161666666666665
 30
0.0
 11
512.1758333333333
 21
-23.161666666666665
 31
0.0
  0
LINE
  5
3B9
330
17
100
AcDbEntity
  8
GR_GUARDRAIL_POSTS
100
AcDbLine
 10
512.1758333333333
 20
-23.161666666666665
 30
0.0
 11
512.1758333333333
 21
-22.601666666666663
 31
0.0
  0
LINE
  5
3BA
330
17
100
AcDbEntity
  8
GR_GUARDRAIL_POSTS
100
AcDbLine
 10
512.1758333333333
 20
-22.601666666666663
 30
0.0
 11
511.6158333333334
 21
-22.601666666666663
 31
0.0
  0
LINE
  5
3BB
330
17
100
AcDbEntity
  8
GR_GUARDRAIL_POSTS
100
AcDbLine
 10
511.6158333333334
 20
-22.601666666666663
 30
0.0
 11
511.6158333333334
 21
-23.161666666666665
 31
0.0
  0
LINE
  5
3BC
330
17
100
AcDbEntity
  8
GR_GUARDRAIL_POSTS
100
AcDbLine
 10
517.8658333333334
 20
-23.661666666666665
 30
0.0
 11
518.4258333333333
 21
-23.661666666666665
 31
0.0
  0
LINE
  5
3BD
330
17
100
AcDbEntity
  8
GR_GUARDRAIL_POSTS
100
AcDbLine
 10
518.4258333333333
 20
-23.661666666666665
 30
0.0
 11
518.4258333333333
 21
-23.101666666666663
 31
0.0
  0
LINE
  5
3BE
330
17
100
AcDbEntity
  8
GR_GUARDRAIL_POSTS
100
AcDbLine
 10
518.4258333333333
 20
-23.101666666666663
 30
0.0
 11
517.8658333333334
 21
-23.101666666666663
 31
0.0
  0
LINE
  5
3BF
330
17
100
AcDbEntity
  8
GR_GUARDRAIL_POSTS
100
AcDbLine
 10
517.8658333333334
 20
-23.101666666666663
 30
0.0
 11
517.8658333333334
 21
-23.661666666666665
 31
0.0
  0
LINE
  5
3C0
330
17
100
AcDbEntity
  8
GR_GUARDRAIL_POSTS
100
AcDbLine
 10
524.1158333333334
 20
-24.16166666666667
 30
0.0
 11
524.6758333333333
 21
-24.16166666666667
 31
0.0
  0
LINE
  5
3C1
330
17
100
AcDbEntity
  8
GR_GUARDRAIL_POSTS
100
AcDbLine
 10
524.6758333333333
 20
-24.16166666666667
 30
0.0
 11
524.6758333333333
 21
-23.601666666666667
 31
0.0
  0
LINE
  5
3C2
330
17
100
AcDbEntity
  8
GR_GUARDRAIL_POSTS
100
AcDbLine
 10
524.6758333333333
 20
-23.601666666666667
 30
0.0
 11
524.1158333333334
 21
-23.601666666666667
 31
0.0
  0
LINE
  5
3C3
330
17
100
AcDbEntity
  8
GR_GUARDRAIL_POSTS
100
AcDbLine
 10
524.1158333333334
 20
-23.601666666666667
 30
0.0
 11
524.1158333333334
 21
-24.16166666666667
 31
0.0
  0
LINE
  5
3C4
330
17
100
AcDbEntity
  8
GR_GUARDRAIL_POSTS
100
AcDbLine
 10
530.3658333333334
 20
-24.66166666666667
 30
0.0
 11
530.9258333333333
 21
-24.66166666666667
 31
0.0
  0
LINE
  5
3C5
330
17
100
AcDbEntity
  8
GR_GUARDRAIL_POSTS
100
AcDbLine
 10
530.9258333333333
 20
-24.66166666666667
 30
0.0
 11
530.9258333333333
 21
-24.101666666666667
 31
0.0
  0
LINE
  5
3C6
330
17
100
AcDbEntity
  8
GR_GUARDRAIL_POSTS
100
AcDbLine
 10
530.9258333333333
 20
-24.101666666666667
 30
0.0
 11
530.3658333333334
 21
-24.101666666666667
 31
0.0
  0
LINE
  5
3C7
330
17
100
AcDbEntity
  8
GR_GUARDRAIL_POSTS
100
AcDbLine
 10
530.3658333333334
 20
-24.101666666666667
 30
0.0
 11
530.3658333333334
 21
-24.66166666666667
 31
0.0
  0
LINE
  5
3C8
330
17
100
AcDbEntity
  8
GR_GUARDRAIL_POSTS
100
AcDbLine
 10
536.6158333333334
 20
-25.242222222222225
 30
0.0
 11
537.1758333333333
 21
-25.242222222222225
 31
0.0
  0
LINE
  5
3C9
330
17
100
AcDbEntity
  8
GR_GUARDRAIL_POSTS
100
AcDbLine
 10
537.1758333333333
 20
-25.242222222222225
 30
0.0
 11
537.1758333333333
 21
-24.682222222222222
 31
0.0
  0
LINE
  5
3CA
330
17
100
AcDbEntity
  8
GR_GUARDRAIL_POSTS
100
AcDbLine
 10
537.1758333333333
 20
-24.682222222222222
 30
0.0
 11
536.6158333333334
 21
-24.682222222222222
 31
0.0
  0
LINE
  5
3CB
330
17
100
AcDbEntity
  8
GR_GUARDRAIL_POSTS
100
AcDbLine
 10
536.6158333333334
 20
-24.682222222222222
 30
0.0
 11
536.6158333333334
 21
-25.242222222222225
 31
0.0
  0
LINE
  5
3CC
330
17
100
AcDbEntity
  8
GR_GUARDRAIL_POSTS
100
AcDbLine
 10
542.8658333333334
 20
-26.575555555555557
 30
0.0
 11
543.4258333333333
 21
-26.575555555555557
 31
0.0
  0
LINE
  5
3CD
330
17
100
AcDbEntity
  8
GR_GUARDRAIL_POSTS
100
AcDbLine
 10
543.4258333333333
 20
-26.575555555555557
 30
0.0
 11
543.4258333333333
 21
-26.015555555555554
 31
0.0
  0
LINE
  5
3CE
330
17
100
AcDbEntity
  8
GR_GUARDRAIL_POSTS
100
AcDbLine
 10
543.4258333333333
 20
-26.015555555555554
 30
0.0
 11
542.8658333333334
 21
-26.015555555555554
 31
0.0
  0
LINE
  5
3CF
330
17
100
AcDbEntity
  8
GR_GUARDRAIL_POSTS
100
AcDbLine
 10
542.8658333333334
 20
-26.015555555555554
 30
0.0
 11
542.8658333333334
 21
-26.575555555555557
 31
0.0
  0
LINE
  5
3D0
330
17
100
AcDbEntity
  8
GR_SHOULDER_FLARE
100
AcDbLine
 10
468.14583333333337
 20
-25.0
 30
0.0
 11
486.2916666666667
 21
-25.0
 31
0.0
  0
LINE
  5
3D1
330
17
100
AcDbEntity
  8
GR_SHOULDER_FLARE
100
AcDbLine
 10
486.2916666666667
 20
-25.0
 30
0.0
 11
511.2916666666667
 21
-25.833333333333332
 31
0.0
  0
LINE
  5
3D2
330
17
100
AcDbEntity
  8
GR_SHOULDER_FLARE
100
AcDbLine
 10
511.2916666666667
 20
-25.833333333333332
 30
0.0
 11
536.2916666666667
 21
-28.5
 31
0.0
  0
LINE
  5
3D3
330
17
100
AcDbEntity
  8
GR_SHOULDER_FLARE
100
AcDbLine
 10
536.2916666666667
 20
-28.5
 30
0.0
 11
548.7916666666667
 21
-31.5
 31
0.0
  0
LINE
  5
3D4
330
17
100
AcDbEntity
  8
GR_SHOULDER_FLARE
100
AcDbLine
 10
548.7916666666667
 20
-31.5
 30
0.0
 11
698.7916666666667
 21
-12.0
 31
0.0
  0
LINE
  5
3D5
330
17
100
AcDbEntity
  8
GR_SHOULDER_FLARE
100
AcDbLine
 10
621.8685897435898
 20
-22.0
 30
0.0
 11
748.7916666666667
 21
-22.0
 31
0.0
  0
LINE
  5
3D6
330
17
100
AcDbEntity
  8
GR_FORESLOPE_W
100
AcDbLine
 10
748.7916666666667
 20
-42.0
 30
0.0
 11
548.7916666666667
 21
-42.0
 31
0.0
  0
LINE
  5
3D7
330
17
100
AcDbEntity
  8
GR_FORESLOPE_W
100
AcDbLine
 10
548.7916666666667
 20
-42.0
 30
0.0
 11
473.7916666666667
 21
-25.0
 31
0.0
  0
TEXT
  5
3D8
330
17
100
AcDbEntity
  8
GR_TEXT
100
AcDbText
 10
603.7916666666667
 20
-47.0
 30
0.0
 40
2.5
  1
LA = 30.00'
  7
Engineering Regular
 11
603.7916666666667
 21
-47.0
 31
0.0
100
AcDbText
  0
LINE
  5
3D9
330
17
100
AcDbEntity
  8
GR_DIMENSION
100
AcDbLine
 10
468.14583333333337
 20
-60.0
 30
0.0
 11
536.2916666666667
 21
-60.0
 31
0.0
  0
LINE
  5
3DA
330
17
100
AcDbEntity
  8
GR_DIMENSION
100
AcDbLine
 10
468.14583333333337
 20
-62.0
 30
0.0
 11
468.14583333333337
 21
-58.0
 31
0.0
  0
LINE
  5
3DB
330
17
100
AcDbEntity
  8
GR_DIMENSION
100
AcDbLine
 10
536.2916666666667
 20
-62.0
 30
0.0
 11
536.2916666666667
 21
-58.0
 31
0.0
  0
TEXT
  5
3DC
330
17
100
AcDbEntity
  8
GR_TEXT
100
AcDbText
 10
502.21875000000006
 20
-64.0
 30
0.0
 40
2.5
  1
C = 68.15'
  7
Engineering Regular
 72
1
 11
502.21875000000006
 21
-64.0
 31
0.0
100
AcDbText
 73
2
  0
LINE
  5
3DD
330
17
100
AcDbEntity
  8
GR_DIMENSION
100
AcDbLine
 10
486.2916666666667
 20
-69.0
 30
0.0
 11
511.2916666666667
 21
-69.0
 31
0.0
  0
LINE
  5
3DE
330
17
100
AcDbEntity
  8
GR_DIMENSION
100
AcDbLine
 10
486.2916666666667
 20
-71.0
 30
0.0
 11
486.2916666666667
 21
-67.0
 31
0.0
  0
LINE
  5
3DF
330
17
100
AcDbEntity
  8
GR_DIMENSION
100
AcDbLine
 10
511.2916666666667
 20
-71.0
 30
0.0
 11
511.2916666666667
 21
-67.0
 31
0.0
  0
TEXT
  5
3E0
330
17
100
AcDbEntity
  8
GR_TEXT
100
AcDbText
 10
498.7916666666667
 20
-73.0
 30
0.0
 40
2.5
  1
D = 25.00'
  7
Engineering Regular
 72
1
 11
498.7916666666667
 21
-73.0
 31
0.0
100
AcDbText
 73
2
  0
LINE
  5
3E1
330
17
100
AcDbEntity
  8
GR_DIMENSION
100
AcDbLine
 10
511.2916666666667
 20
-78.0
 30
0.0
 11
536.2916666666667
 21
-78.0
 31
0.0
  0
LINE
  5
3E2
330
17
100
AcDbEntity
  8
GR_DIMENSION
100
AcDbLine
 10
511.2916666666667
 20
-80.0
 30
0.0
 11
511.2916666666667
 21
-76.0
 31
0.0
  0
LINE
  5
3E3
330
17
100
AcDbEntity
  8
GR_DIMENSION
100
AcDbLine
 10
536.2916666666667
 20
-80.0
 30
0.0
 11
536.2916666666667
 21
-76.0
 31
0.0
  0
TEXT
  5
3E4
330
17
100
AcDbEntity
  8
GR_TEXT
100
AcDbText
 10
523.7916666666667
 20
-82.0
 30
0.0
 40
2.5
  1
TERMINAL = 25.00'
  7
Engineering Regular
 72
1
 11
523.7916666666667
 21
-82.0
 31
0.0
100
AcDbText
 73
2
  0
LINE
  5
3E5
330
17
100
AcDbEntity
  8
GR_DIMENSION
100
AcDbLine
 10
536.2916666666667
 20
-87.0
 30
0.0
 11
548.7916666666667
 21
-87.0
 31
0.0
  0
LINE
  5
3E6
330
17
100
AcDbEntity
  8
GR_DIMENSION
100
AcDbLine
 10
536.2916666666667
 20
-89.0
 30
0.0
 11
536.2916666666667
 21
-85.0
 31
0.0
  0
LINE
  5
3E7
330
17
100
AcDbEntity
  8
GR_DIMENSION
100
AcDbLine
 10
548.7916666666667
 20
-89.0
 30
0.0
 11
548.7916666666667
 21
-85.0
 31
0.0
  0
TEXT
  5
3E8
330
17
100
AcDbEntity
  8
GR_TEXT
100
AcDbText
 10
542.5416666666667
 20
-91.0
 30
0.0
 40
2.5
  1
GATING = 12.50'
  7
Engineering Regular
 72
1
 11
542.5416666666667
 21
-91.0
 31
0.0
100
AcDbText
 73
2
  0
LINE
  5
3E9
330
17
100
AcDbEntity
  8
GR_DIMENSION
100
AcDbLine
 10
473.7916666666667
 20
-96.0
 30
0.0
 11
548.7916666666667
 21
-96.0
 31
0.0
  0
LINE
  5
3EA
330
17
100
AcDbEntity
  8
GR_DIMENSION
100
AcDbLine
 10
473.7916666666667
 20
-98.0
 30
0.0
 11
473.7916666666667
 21
-94.0
 31
0.0
  0
LINE
  5
3EB
330
17
100
AcDbEntity
  8
GR_DIMENSION
100
AcDbLine
 10
548.7916666666667
 20
-98.0
 30
0.0
 11
548.7916666666667
 21
-94.0
 31
0.0
  0
TEXT
  5
3EC
330
17
100
AcDbEntity
  8
GR_TEXT
100
AcDbText
 10
511.29166666666674
 20
-100.0
 30
0.0
 40
2.5
  1
CZ = 75.00'
  7
Engineering Regular
 72
1
 11
511.29166666666674
 21
-100.0
 31
0.0
100
AcDbText
 73
2
  0
LINE
  5
3ED
330
17
100
AcDbEntity
  8
GR_DIMENSION
100
AcDbLine
 10
548.7916666666667
 20
-105.0
 30
0.0
 11
698.7916666666667
 21
-105.0
 31
0.0
  0
LINE
  5
3EE
330
17
100
AcDbEntity
  8
GR_DIMENSION
100
AcDbLine
 10
548.7916666666667
 20
-107.0
 30
0.0
 11
548.7916666666667
 21
-103.0
 31
0.0
  0
LINE
  5
3EF
330
17
100
AcDbEntity
  8
GR_DIMENSION
100
AcDbLine
 10
698.7916666666667
 20
-107.0
 30
0.0
 11
698.7916666666667
 21
-103.0
 31
0.0
  0
TEXT
  5
3F0
330
17
100
AcDbEntity
  8
GR_TEXT
100
AcDbText
 10
623.7916666666667
 20
-109.0
 30
0.0
 40
2.5
  1
SHLDR = 150.00'
  7
Engineering Regular
 72
1
 11
623.7916666666667
 21
-109.0
 31
0.0
100
AcDbText
 73
2
  0
LINE
  5
3F1
330
17
100
AcDbEntity
  8
GR_TRAFFIC_ARROWS
100
AcDbLine
 10
551.96875
 20
6.0
 30
0.0
 11
539.96875
 21
6.0
 31
0.0
  0
LINE
  5
3F2
330
17
100
AcDbEntity
  8
GR_TRAFFIC_ARROWS
100
AcDbLine
 10
539.96875
 20
6.0
 30
0.0
 11
543.96875
 21
4.0
 31
0.0
  0
LINE
  5
3F3
330
17
100
AcDbEntity
  8
GR_TRAFFIC_ARROWS
100
AcDbLine
 10
539.96875
 20
6.0
 30
0.0
 11
543.96875
 21
8.0
 31
0.0
  0
LINE
  5
3F4
330
17
100
AcDbEntity
  8
GR_TRAFFIC_ARROWS
100
AcDbLine
 10
539.96875
 20
-6.0
 30
0.0
 11
551.96875
 21
-6.0
 31
0.0
  0
LINE
  5
3F5
330
17
100
AcDbEntity
  8
GR_TRAFFIC_ARROWS
100
AcDbLine
 10
551.96875
 20
-6.0
 30
0.0
 11
547.96875
 21
-4.0
 31
0.0
  0
LINE
  5
3F6
330
17
100
AcDbEntity
  8
GR_TRAFFIC_ARROWS
100
AcDbLine
 10
551.96875
 20
-6.0
 30
0.0
 11
547.96875
 21
-8.0
 31
0.0
  0
TEXT
  5
3F7
330
17
100
AcDbEntity
  8
GR_TEXT
100
AcDbText
 10
418.14583333333337
 20
114.0
 30
0.0
 40
2.5
  1
GR-4A - 2-LANE, 2-WAY
  7
Engineering Regular
 11
418.14583333333337
 21
114.0
 31
0.0
100
AcDbText
  0
ENDSEC
  0
SECTION
  2
OBJECTS
  0
DICTIONARY
  5
A
330
0
100
AcDbDictionary
281
1
  3
ACAD_COLOR
350
B
  3
ACAD_GROUP
350
C
  3
ACAD_LAYOUT
350
D
  3
ACAD_MATERIAL
350
E
  3
ACAD_MLEADERSTYLE
350
F
  3
ACAD_MLINESTYLE
350
10
  3
ACAD_PLOTSETTINGS
350
11
  3
ACAD_PLOTSTYLENAME
350
12
  3
ACAD_SCALELIST
350
14
  3
ACAD_TABLESTYLE
350
15
  3
ACAD_VISUALSTYLE
350
16
  3
EZDXF_META
350
2D
  0
DICTIONARY
  5
B
330
A
100
AcDbDictionary
281
1
  0
DICTIONARY
  5
C
330
A
100
AcDbDictionary
281
1
  0
DICTIONARY
  5
D
330
A
100
AcDbDictionary
281
1
  3
Model
350
1A
  3
Layout1
350
1E
  0
DICTIONARY
  5
E
330
A
100
AcDbDictionary
281
1
  3
ByBlock
350
1F
  3
ByLayer
350
20
  3
Global
350
21
  0
DICTIONARY
  5
F
330
A
100
AcDbDictionary
281
1
  3
Standard
350
2C
  0
DICTIONARY
  5
10
330
A
100
AcDbDictionary
281
1
  3
Standard
350
22
  0
DICTIONARY
  5
11
330
A
100
AcDbDictionary
281
1
  0
ACDBDICTIONARYWDFLT
  5
12
330
A
100
AcDbDictionary
281
1
  3
Normal
350
13
100
AcDbDictionaryWithDefault
340
13
  0
ACDBPLACEHOLDER
  5
13
330
12
  0
DICTIONARY
  5
14
330
A
100
AcDbDictionary
281
1
  0
DICTIONARY
  5
15
330
A
100
AcDbDictionary
281
1
  0
DICTIONARY
  5
16
330
A
100
AcDbDictionary
281
1
  0
LAYOUT
  5
1A
330
D
100
AcDbPlotSettings
  1

  4
A3
  6

 40
7.5
 41
20.0
 42
7.5
 43
20.0
 44
420.0
 45
297.0
 46
0.0
 47
0.0
 48
0.0
 49
0.0
140
0.0
141
0.0
142
1.0
143
1.0
 70
1024
 72
1
 73
0
 74
5
  7

 75
16
 76
0
 77
2
 78
300
147
1.0
148
0.0
149
0.0
100
AcDbLayout
  1
Model
 70
1
 71
0
 10
0.0
 20
0.0
 11
420.0
 21
297.0
 12
0.0
 22
0.0
 32
0.0
 14
1e+20
 24
1e+20
 34
1e+20
 15
-1e+20
 25
-1e+20
 35
-1e+20
146
0.0
 13
0.0
 23
0.0
 33
0.0
 16
1.0
 26
0.0
 36
0.0
 17
0.0
 27
1.0
 37
0.0
 76
1
330
17
  0
LAYOUT
  5
1E
330
D
100
AcDbPlotSettings
  1

  4
A3
  6

 40
7.5
 41
20.0
 42
7.5
 43
20.0
 44
420.0
 45
297.0
 46
0.0
 47
0.0
 48
0.0
 49
0.0
140
0.0
141
0.0
142
1.0
143
1.0
 70
0
 72
1
 73
0
 74
5
  7

 75
16
 76
0
 77
2
 78
300
147
1.0
148
0.0
149
0.0
100
AcDbLayout
  1
Layout1
 70
1
 71
1
 10
0.0
 20
0.0
 11
420.0
 21
297.0
 12
0.0
 22
0.0
 32
0.0
 14
1e+20
 24
1e+20
 34
1e+20
 15
-1e+20
 25
-1e+20
 35
-1e+20
146
0.0
 13
0.0
 23
0.0
 33
0.0
 16
1.0
 26
0.0
 36
0.0
 17
0.0
 27
1.0
 37
0.0
 76
1
330
1B
  0
MATERIAL
  5
1F
102
{ACAD_REACTORS
330
E
102
}
330
E
100
AcDbMaterial
  1
ByBlock
  2

 70
0
 40
1.0
 71
1
 41
1.0
 91
-1023410177
 42
1.0
 72
1
  3

 73
1
 74
1
 75
1
 44
0.5
 73
0
 45
1.0
 46
1.0
 77
1
  4

 78
1
 79
1
170
1
 48
1.0
171
1
  6

172
1
173
1
174
1
140
1.0
141
1.0
175
1
  7

176
1
177
1
178
1
143
1.0
179
1
  8

270
1
271
1
272
1
145
1.0
146
1.0
273
1
  9

274
1
275
1
276
1
 42
1.0
 72
1
  3

 73
1
 74
1
 75
1
 94
63
  0
MATERIAL
  5
20
102
{ACAD_REACTORS
330
E
102
}
330
E
100
AcDbMaterial
  1
ByLayer
  2

 70
0
 40
1.0
 71
1
 41
1.0
 91
-1023410177
 42
1.0
 72
1
  3

 73
1
 74
1
 75
1
 44
0.5
 73
0
 45
1.0
 46
1.0
 77
1
  4

 78
1
 79
1
170
1
 48
1.0
171
1
  6

172
1
173
1
174
1
140
1.0
141
1.0
175
1
  7

176
1
177
1
178
1
143
1.0
179
1
  8

270
1
271
1
272
1
145
1.0
146
1.0
273
1
  9

274
1
275
1
276
1
 42
1.0
 72
1
  3

 73
1
 74
1
 75
1
 94
63
  0
MATERIAL
  5
21
102
{ACAD_REACTORS
330
E
102
}
330
E
100
AcDbMaterial
  1
Global
  2

 70
0
 40
1.0
 71
1
 41
1.0
 91
-1023410177
 42
1.0
 72
1
  3

 73
1
 74
1
 75
1
 44
0.5
 73
0
 45
1.0
 46
1.0
 77
1
  4

 78
1
 79
1
170
1
 48
1.0
171
1
  6

172
1
173
1
174
1
140
1.0
141
1.0
175
1
  7

176
1
177
1
178
1
143
1.0
179
1
  8

270
1
271
1
272
1
145
1.0
146
1.0
273
1
  9

274
1
275
1
276
1
 42
1.0
 72
1
  3

 73
1
 74
1
 75
1
 94
63
  0
MLINESTYLE
  5
22
102
{ACAD_REACTORS
330
10
102
}
330
10
100
AcDbMlineStyle
  2
Standard
 70
0
  3

 62
256
 51
90.0
 52
90.0
 71
2
 49
0.5
 62
256
  6
BYLAYER
 49
-0.5
 62
256
  6
BYLAYER
  0
MLEADERSTYLE
  5
2C
102
{ACAD_REACTORS
330
F
102
}
330
F
100
AcDbMLeaderStyle
179
2
170
2
171
1
172
0
 90
2
 40
0.0
 41
0.0
173
1
 91
-1056964608
 92
-2
290
1
 42
2.0
291
1
 43
8.0
  3
Standard
 44
4.0
300

342
29
174
1
175
1
176
0
178
1
 93
-1056964608
 45
4.0
292
0
297
0
 46
4.0
 94
-1056964608
 47
1.0
 49
1.0
140
1.0
294
1
141
0.0
177
0
142
1.0
295
0
296
0
143
3.75
271
0
272
9
273
9
  0
DICTIONARY
  5
2D
330
A
100
AcDbDictionary
280
1
281
1
  3
CREATED_BY_EZDXF
350
2E
  3
WRITTEN_BY_EZDXF
350
3FA
  0
DICTIONARYVAR
  5
2E
330
2D
100
DictionaryVariables
280
0
  1
1.4.4 @ 2026-07-13T03:39:46.600941+00:00
  0
DICTIONARYVAR
  5
3FA
330
2D
100
DictionaryVariables
280
0
  1
1.4.4 @ 2026-07-13T03:39:46.613625+00:00
  0
ENDSEC
  0
EOF
